# Blender 5.1.2
# www.blender.org
mtllib 103749225541480.mtl
o 103749225541480
v 0.060012 -0.186046 0.033019
v 0.348150 -0.186046 -0.033019
v 0.348150 -0.186046 0.033019
v 0.378364 -0.116306 0.033019
v 0.060012 -0.186046 -0.033019
v 0.378364 -0.116306 -0.033019
v 0.034784 -0.214767 0.033019
v 0.337446 -0.079657 -0.033019
v 0.034784 -0.214767 -0.033019
v -0.426012 -0.216262 0.033019
v -0.426012 -0.216262 -0.033019
v 0.337446 -0.079657 0.033019
v -0.002627 -0.078542 -0.033019
v -0.002627 -0.078542 0.033019
v -0.030155 -0.107563 -0.033019
v -0.030155 -0.107563 0.033019
v -0.288083 -0.107481 -0.033019
v -0.288083 -0.107481 0.033019
v -0.357048 0.052560 -0.033019
v -0.357048 0.052560 0.033019
v -0.426012 0.052601 -0.033019
v -0.426012 0.052601 0.033019
v -0.523288 -0.239380 -0.061965
v -0.428394 -0.218635 -0.061974
v -0.492581 -0.267310 -0.061957
v -0.523372 0.155826 -0.061978
v -0.428334 0.135553 -0.061979
v -0.493104 0.176171 -0.061980
v -0.428394 -0.218635 0.061974
v -0.523372 0.155826 0.061978
v -0.523288 -0.239380 0.061965
v -0.492581 -0.267310 0.061957
v -0.428334 0.135553 0.061979
v -0.493104 0.176171 0.061980
v 0.029336 -0.202786 -0.045019
v 0.060012 -0.186046 -0.033019
v 0.034784 -0.214767 -0.033019
v -0.426012 -0.216262 -0.033019
v -0.426012 -0.204237 -0.045019
v 0.054580 -0.174046 -0.045019
v 0.340074 -0.174046 -0.045019
v 0.348150 -0.186046 -0.033019
v 0.364104 -0.120060 -0.045019
v 0.378364 -0.116306 -0.033019
v 0.337446 -0.079657 -0.033019
v 0.330313 -0.091636 -0.045019
v -0.002627 -0.078542 -0.033019
v 0.002516 -0.090557 -0.045019
v -0.030155 -0.107563 -0.033019
v -0.025000 -0.119565 -0.045019
v -0.288083 -0.107481 -0.033019
v -0.295506 -0.119483 -0.045019
v -0.365759 0.040557 -0.045019
v -0.357048 0.052560 -0.033019
v -0.426012 0.052601 -0.033019
v -0.426012 0.040598 -0.045019
v 0.060012 -0.186046 0.033019
v 0.348150 -0.186046 0.033019
v 0.340073 -0.174046 0.045019
v 0.054580 -0.174046 0.045019
v 0.364104 -0.120060 0.045019
v 0.029336 -0.202786 0.045019
v 0.378364 -0.116306 0.033019
v 0.034784 -0.214767 0.033019
v -0.426012 -0.216262 0.033019
v -0.426012 -0.204237 0.045019
v 0.337446 -0.079657 0.033019
v 0.330313 -0.091636 0.045019
v -0.002627 -0.078542 0.033019
v 0.002516 -0.090557 0.045019
v -0.030155 -0.107563 0.033019
v -0.025000 -0.119565 0.045019
v -0.288083 -0.107481 0.033019
v -0.295506 -0.119483 0.045019
v -0.365759 0.040557 0.045019
v -0.357048 0.052560 0.033019
v -0.426012 0.052601 0.033019
v -0.426012 0.040598 0.045019
v -0.492581 -0.267310 -0.061957
v -0.413364 -0.230290 -0.046567
v -0.493364 -0.296150 -0.046567
v -0.538364 -0.252590 -0.046567
v -0.428394 -0.218635 -0.061974
v -0.523288 -0.239380 -0.061965
v -0.413364 0.143850 -0.046567
v -0.538364 0.163850 -0.046567
v -0.428334 0.135553 -0.061979
v -0.523372 0.155826 -0.061978
v -0.493104 0.176171 -0.061980
v -0.493364 0.196150 -0.046567
v -0.492581 -0.267310 0.061957
v -0.413364 -0.230290 0.046567
v -0.428394 -0.218635 0.061974
v -0.493364 -0.296150 0.046567
v -0.413364 0.143850 0.046567
v -0.538364 -0.252590 0.046567
v -0.428334 0.135553 0.061979
v -0.523288 -0.239380 0.061965
v -0.493104 0.176171 0.061980
v -0.538364 0.163850 0.046567
v -0.493364 0.196150 0.046567
v -0.523372 0.155826 0.061978
v -0.295506 -0.119483 0.045019
v 0.029336 -0.202786 0.045019
v -0.025000 -0.119565 0.045019
v -0.426012 -0.204237 0.045019
v -0.426012 0.040598 0.045019
v -0.365759 0.040557 0.045019
v 0.054580 -0.174046 0.045019
v 0.002516 -0.090557 0.045019
v 0.330313 -0.091636 0.045019
v 0.340073 -0.174046 0.045019
v 0.364104 -0.120060 0.045019
v -0.365759 0.040557 -0.045019
v -0.295506 -0.119483 -0.045019
v -0.426012 0.040598 -0.045019
v -0.426012 -0.204237 -0.045019
v 0.029336 -0.202786 -0.045019
v -0.025000 -0.119565 -0.045019
v 0.054580 -0.174046 -0.045019
v 0.002516 -0.090557 -0.045019
v 0.330313 -0.091636 -0.045019
v 0.340074 -0.174046 -0.045019
v 0.364104 -0.120060 -0.045019
v -0.493364 0.196150 -0.046567
v -0.538364 0.163850 0.046567
v -0.493364 0.196150 0.046567
v -0.538364 0.163850 -0.046567
v -0.413364 0.143850 -0.046567
v -0.538364 -0.252590 0.046567
v -0.413364 0.143850 0.046567
v -0.538364 -0.252590 -0.046567
v -0.413364 -0.230290 0.046567
v -0.493364 -0.296150 0.046567
v -0.413364 -0.230290 -0.046567
v -0.493364 -0.296150 -0.046567
vn 0.4121 -0.9112 -0.0004
vn 0.5488 -0.8360 -0.0005
vn 0.9767 0.2145 -0.0005
vn 0.4121 -0.9111 -0.0004
vn 0.9768 0.2143 -0.0003
vn 0.4139 -0.9103 -0.0003
vn 0.3584 0.9336 -0.0004
vn 0.4140 -0.9103 -0.0004
vn 0.0036 -1.0000 -0.0006
vn 0.0035 -1.0000 -0.0004
vn -0.3930 0.9195 -0.0004
vn -0.3949 0.9187 -0.0004
vn 0.5498 0.8353 -0.0000
vn 0.5499 0.8352 -0.0000
vn 0.5499 0.8352 -0.0004
vn 0.0006 1.0000 -0.0006
vn 0.0006 1.0000 -0.0007
vn -0.0003 0.0004 -1.0000
vn -0.0003 0.0003 -1.0000
vn -0.0003 0.0003 1.0000
vn -0.0003 0.0004 1.0000
vn -0.0004 0.0005 1.0000
vn 0.2791 -0.6130 -0.7391
vn 0.2782 -0.6132 -0.7393
vn 0.0025 -0.7066 -0.7077
vn 0.0026 -0.7066 -0.7076
vn 0.2780 -0.6133 -0.7393
vn 0.3504 -0.5398 -0.7654
vn 0.3552 -0.5368 -0.7653
vn 0.6032 0.1196 -0.7886
vn 0.5988 0.1363 -0.7892
vn 0.2526 0.6188 -0.7438
vn 0.2137 0.6359 -0.7415
vn -0.2660 0.6218 -0.7366
vn -0.2670 0.6216 -0.7364
vn 0.3523 0.5329 -0.7693
vn 0.3435 0.5387 -0.7693
vn 0.3426 0.5389 -0.7695
vn 0.3592 0.5281 -0.7695
vn 0.0005 0.7070 -0.7072
vn 0.2781 -0.6133 0.7393
vn 0.3552 -0.5367 0.7653
vn 0.3504 -0.5398 0.7654
vn 0.6032 0.1196 0.7886
vn 0.2790 -0.6131 0.7391
vn 0.5988 0.1363 0.7892
vn 0.2788 -0.6133 0.7390
vn 0.0025 -0.7066 0.7077
vn 0.0026 -0.7066 0.7076
vn 0.2526 0.6188 0.7438
vn 0.2137 0.6359 0.7415
vn -0.2660 0.6218 0.7366
vn -0.2670 0.6216 0.7364
vn 0.3523 0.5329 0.7693
vn 0.3435 0.5387 0.7693
vn 0.3426 0.5389 0.7695
vn 0.3592 0.5281 0.7695
vn 0.0005 0.7070 0.7072
vn -0.0209 -0.4928 -0.8699
vn 0.5480 -0.2800 -0.7882
vn -0.0131 -0.4929 -0.8700
vn -0.5532 -0.2681 -0.7887
vn 0.5848 -0.2291 -0.7781
vn -0.6033 -0.1979 -0.7725
vn 0.5801 0.3132 -0.7519
vn -0.5884 0.3053 -0.7487
vn 0.5811 0.3112 -0.7520
vn -0.5902 0.3022 -0.7485
vn -0.0131 0.6278 -0.7783
vn -0.0101 0.6278 -0.7783
vn -0.0209 -0.4928 0.8699
vn 0.5480 -0.2800 0.7882
vn 0.5848 -0.2291 0.7781
vn -0.0131 -0.4929 0.8700
vn 0.5801 0.3132 0.7519
vn -0.5532 -0.2681 0.7887
vn 0.5811 0.3112 0.7520
vn -0.6033 -0.1979 0.7725
vn -0.0131 0.6278 0.7783
vn -0.5884 0.3053 0.7487
vn -0.0101 0.6278 0.7783
vn -0.5902 0.3022 0.7485
vn -0.0219 0.9998 -0.0006
vn -0.8896 0.4568 -0.0004
vn -0.0218 0.9998 -0.0005
vn -0.8896 0.4567 -0.0003
vn 0.8794 0.4760 -0.0004
vn -0.9207 -0.3903 -0.0003
vn 0.9045 -0.4265 -0.0005
vn -0.0404 -0.9992 -0.0004
vn -0.0405 -0.9992 -0.0006
vt 0.000000 0.000000
s 1
f 1/1/1 2/1/2 3/1/2
f 3/1/2 2/1/2 4/1/3
f 2/1/2 1/1/1 5/1/4
f 4/1/3 2/1/2 6/1/5
f 5/1/4 1/1/1 7/1/6
f 4/1/3 6/1/5 8/1/7
f 7/1/6 9/1/8 5/1/4
f 10/1/9 9/1/8 7/1/6
f 9/1/8 10/1/9 11/1/10
f 12/1/7 4/1/3 8/1/7
f 8/1/7 13/1/11 12/1/7
f 14/1/11 12/1/7 13/1/11
f 14/1/11 13/1/11 15/1/12
f 15/1/12 16/1/12 14/1/11
f 15/1/12 17/1/13 16/1/12
f 18/1/13 16/1/12 17/1/13
f 17/1/13 19/1/14 18/1/13
f 20/1/15 18/1/13 19/1/14
f 20/1/15 19/1/14 21/1/16
f 22/1/17 20/1/15 21/1/16
f 23/1/18 24/1/19 25/1/19
f 26/1/18 24/1/19 23/1/18
f 24/1/19 26/1/18 27/1/18
f 27/1/18 26/1/18 28/1/19
f 29/1/20 30/1/21 31/1/21
f 29/1/20 31/1/21 32/1/22
f 30/1/21 29/1/20 33/1/21
f 30/1/21 33/1/21 34/1/20
f 35/1/23 36/1/24 37/1/23
f 38/1/25 35/1/23 37/1/23
f 35/1/23 38/1/25 39/1/26
f 36/1/24 35/1/23 40/1/27
f 41/1/28 36/1/24 40/1/27
f 36/1/24 41/1/28 42/1/29
f 43/1/30 42/1/29 41/1/28
f 42/1/29 43/1/30 44/1/31
f 45/1/32 44/1/31 43/1/30
f 45/1/32 43/1/30 46/1/33
f 47/1/34 45/1/32 46/1/33
f 47/1/34 46/1/33 48/1/34
f 49/1/35 47/1/34 48/1/34
f 48/1/34 50/1/35 49/1/35
f 51/1/36 49/1/35 50/1/35
f 51/1/36 50/1/35 52/1/37
f 53/1/38 51/1/36 52/1/37
f 51/1/36 53/1/38 54/1/39
f 53/1/38 55/1/40 54/1/39
f 55/1/40 53/1/38 56/1/40
f 57/1/41 58/1/42 59/1/43
f 57/1/41 59/1/43 60/1/41
f 58/1/42 61/1/44 59/1/43
f 62/1/45 57/1/41 60/1/41
f 58/1/42 63/1/46 61/1/44
f 57/1/41 62/1/45 64/1/47
f 65/1/48 64/1/47 62/1/45
f 65/1/48 62/1/45 66/1/49
f 67/1/50 61/1/44 63/1/46
f 61/1/44 67/1/50 68/1/51
f 69/1/52 68/1/51 67/1/50
f 68/1/51 69/1/52 70/1/52
f 71/1/53 70/1/52 69/1/52
f 70/1/52 71/1/53 72/1/53
f 73/1/54 72/1/53 71/1/53
f 72/1/53 73/1/54 74/1/55
f 75/1/56 74/1/55 73/1/54
f 73/1/54 76/1/57 75/1/56
f 77/1/58 75/1/56 76/1/57
f 75/1/56 77/1/58 78/1/58
f 79/1/59 80/1/60 81/1/61
f 82/1/62 79/1/59 81/1/61
f 80/1/60 79/1/59 83/1/63
f 79/1/59 82/1/62 84/1/64
f 85/1/65 80/1/60 83/1/63
f 86/1/66 84/1/64 82/1/62
f 85/1/65 83/1/63 87/1/67
f 84/1/64 86/1/66 88/1/68
f 89/1/69 85/1/65 87/1/67
f 89/1/69 88/1/68 86/1/66
f 85/1/65 89/1/69 90/1/70
f 86/1/66 90/1/70 89/1/69
f 91/1/71 92/1/72 93/1/73
f 92/1/72 91/1/71 94/1/74
f 95/1/75 93/1/73 92/1/72
f 96/1/76 94/1/74 91/1/71
f 93/1/73 95/1/75 97/1/77
f 91/1/71 98/1/78 96/1/76
f 95/1/75 99/1/79 97/1/77
f 100/1/80 96/1/76 98/1/78
f 99/1/79 95/1/75 101/1/81
f 100/1/80 99/1/79 101/1/81
f 99/1/79 100/1/80 102/1/82
f 100/1/80 98/1/78 102/1/82
f 103/1/21 104/1/21 105/1/21
f 106/1/21 104/1/21 103/1/21
f 106/1/21 103/1/21 107/1/21
f 103/1/21 108/1/21 107/1/21
f 109/1/21 105/1/21 104/1/21
f 109/1/21 110/1/21 105/1/21
f 110/1/21 109/1/21 111/1/21
f 112/1/21 111/1/21 109/1/21
f 111/1/21 112/1/21 113/1/21
f 114/1/18 115/1/18 116/1/18
f 116/1/18 115/1/18 117/1/18
f 118/1/18 117/1/18 115/1/18
f 119/1/18 118/1/18 115/1/18
f 118/1/18 119/1/18 120/1/18
f 121/1/18 120/1/18 119/1/18
f 122/1/18 120/1/18 121/1/18
f 120/1/18 122/1/18 123/1/18
f 123/1/18 122/1/18 124/1/18
f 125/1/83 126/1/84 127/1/85
f 126/1/84 125/1/83 128/1/86
f 127/1/85 129/1/87 125/1/83
f 128/1/86 130/1/88 126/1/84
f 131/1/87 129/1/87 127/1/85
f 130/1/88 128/1/86 132/1/88
f 131/1/87 133/1/89 129/1/87
f 132/1/88 134/1/90 130/1/88
f 135/1/89 129/1/87 133/1/89
f 134/1/90 135/1/89 133/1/89
f 134/1/90 132/1/88 136/1/91
f 135/1/89 134/1/90 136/1/91
