# Blender 5.1.2
# www.blender.org
mtllib 117643139547133.mtl
o 117643139547133
v 0.469068 0.077758 -0.002538
v 0.481595 0.043282 0.020511
v 0.481595 0.043282 -0.020512
v 0.469068 0.077758 0.002538
v -0.538489 0.063320 -0.054790
v -0.538489 0.063320 -0.014640
v -0.530617 0.084523 -0.054790
v -0.530617 0.084523 -0.014640
v -0.546361 0.037018 -0.054790
v -0.538489 0.063320 0.014561
v -0.546361 0.037018 0.054711
v -0.538489 0.063320 0.054711
v -0.530617 0.084523 0.014561
v -0.530617 0.084523 0.054711
v -0.504378 0.084523 -0.054790
v -0.530617 0.084523 -0.054790
v -0.530617 0.084523 -0.014640
v -0.504378 0.084523 -0.014640
v -0.504377 0.084523 0.014561
v -0.530617 0.084523 0.014561
v -0.530617 0.084523 0.054711
v -0.504377 0.084523 0.054711
v 0.469068 0.077758 -0.002538
v 0.426093 0.077758 -0.002538
v 0.426093 0.077758 0.002538
v 0.469068 0.077758 0.002538
v -0.538489 0.063320 -0.014640
v -0.538489 0.063320 0.014561
v -0.496505 0.063320 -0.014640
v -0.496505 0.063320 0.014561
v -0.763358 -0.424523 -0.059168
v -0.795079 -0.374523 0.059168
v -0.795079 -0.374523 -0.059168
v -0.763358 -0.424523 0.059168
v -0.332500 -0.424523 -0.059168
v -0.332500 -0.424523 0.059168
v -0.182500 -0.234523 -0.059168
v -0.182500 -0.234523 0.059168
v -0.132500 -0.234523 -0.059168
v -0.132500 -0.234523 0.059168
v -0.032500 -0.114523 -0.059168
v -0.032500 -0.114523 0.059168
v 0.167500 -0.114523 -0.059168
v 0.167500 -0.114523 0.059168
v 0.267500 -0.204523 -0.059168
v 0.267500 -0.204523 0.059168
v 0.487277 -0.204523 -0.059168
v 0.487277 -0.204523 0.059168
v 0.507883 -0.186205 -0.059168
v 0.507883 -0.186205 0.059168
v 0.507883 -0.134523 -0.059168
v 0.507883 -0.134523 0.059168
v -0.763358 -0.424523 0.059168
v -0.772122 -0.385744 0.074035
v -0.795079 -0.374523 0.059168
v -0.755077 -0.412151 0.074035
v -0.343789 -0.412151 0.074035
v -0.332500 -0.424523 0.059168
v -0.182500 -0.234523 0.059168
v -0.195445 -0.220861 0.074035
v -0.144023 -0.220861 0.074035
v -0.132500 -0.234523 0.059168
v -0.032500 -0.114523 0.059168
v -0.044023 -0.103301 0.074035
v 0.178433 -0.103301 0.074035
v 0.167500 -0.114523 0.059168
v 0.267500 -0.204523 0.059168
v 0.278433 -0.193168 0.074035
v 0.473144 -0.193168 0.074035
v 0.487277 -0.204523 0.059168
v 0.493752 -0.174488 0.074035
v 0.507883 -0.186205 0.059168
v 0.507883 -0.134523 0.059168
v 0.493752 -0.145878 0.074035
v -0.763358 -0.424523 -0.059168
v -0.795079 -0.374523 -0.059168
v -0.772122 -0.385744 -0.074035
v -0.755077 -0.412151 -0.074035
v -0.343789 -0.412151 -0.074035
v -0.332500 -0.424523 -0.059168
v -0.182500 -0.234523 -0.059168
v -0.195445 -0.220861 -0.074035
v -0.144023 -0.220861 -0.074035
v -0.132500 -0.234523 -0.059168
v -0.032500 -0.114523 -0.059168
v -0.044023 -0.103301 -0.074035
v 0.178433 -0.103301 -0.074035
v 0.167500 -0.114523 -0.059168
v 0.267500 -0.204523 -0.059168
v 0.278433 -0.193168 -0.074035
v 0.473144 -0.193168 -0.074035
v 0.487277 -0.204523 -0.059168
v 0.493752 -0.174488 -0.074035
v 0.507883 -0.186205 -0.059168
v 0.507883 -0.134523 -0.059168
v 0.493752 -0.145878 -0.074035
v 0.391034 0.043282 0.020511
v 0.481595 0.043282 0.020511
v 0.426093 0.077758 0.002538
v 0.469068 0.077758 0.002538
v 0.481595 0.043282 -0.020512
v 0.426093 0.077758 -0.002538
v 0.469068 0.077758 -0.002538
v 0.391034 0.043282 -0.020512
v 0.478068 0.036369 0.092446
v 0.228588 0.036326 0.092446
v 0.256101 0.005713 0.092446
v 0.461676 0.005713 0.092446
v 0.226682 -0.039627 0.092446
v 0.488795 -0.009608 0.092446
v 0.176740 -0.042954 0.092446
v 0.512500 0.001958 0.092446
v 0.278215 -0.137166 0.092446
v 0.512500 -0.112118 0.092446
v 0.322351 -0.113241 0.092446
v 0.489617 -0.113241 0.092446
v 0.487213 -0.137166 0.092446
v 0.512837 0.001723 -0.092446
v 0.512825 -0.112118 -0.092446
v 0.489093 -0.009608 -0.092446
v 0.478450 0.036127 -0.092446
v 0.489892 -0.113241 -0.092446
v 0.461676 0.005713 -0.092446
v 0.487538 -0.137166 -0.092446
v 0.255870 0.005713 -0.092446
v 0.322351 -0.113241 -0.092446
v 0.228679 0.036107 -0.092446
v 0.278215 -0.137166 -0.092446
v 0.226681 -0.039627 -0.092446
v 0.176881 -0.042954 -0.092446
v 0.522500 0.006649 0.079350
v 0.512500 -0.112118 0.092446
v 0.522500 -0.122149 0.079350
v 0.497215 -0.147166 0.079350
v 0.512500 0.001958 0.092446
v 0.487213 -0.137166 0.092446
v 0.478068 0.036369 0.092446
v 0.272500 -0.147166 0.079350
v 0.482500 0.046649 0.079350
v 0.278215 -0.137166 0.092446
v 0.228588 0.036326 0.092446
v 0.176740 -0.042954 0.092446
v 0.222500 0.046649 0.079350
v 0.162500 -0.042954 0.079350
v 0.272500 -0.147166 -0.079350
v 0.487538 -0.137166 -0.092446
v 0.497216 -0.147166 -0.079350
v 0.522500 -0.122149 -0.079350
v 0.278215 -0.137166 -0.092446
v 0.512825 -0.112118 -0.092446
v 0.176881 -0.042954 -0.092446
v 0.522500 0.006649 -0.079350
v 0.162500 -0.042954 -0.079350
v 0.512837 0.001723 -0.092446
v 0.222500 0.046649 -0.079350
v 0.478450 0.036127 -0.092446
v 0.228679 0.036107 -0.092446
v 0.482500 0.046649 -0.079350
v 0.322351 -0.113241 -0.092446
v 0.479538 -0.103241 -0.079350
v 0.489892 -0.113241 -0.092446
v 0.489093 -0.009608 -0.092446
v 0.325609 -0.103241 -0.079350
v 0.478848 -0.015606 -0.079350
v 0.239940 -0.039627 -0.079350
v 0.461676 0.005713 -0.092446
v 0.226681 -0.039627 -0.092446
v 0.461676 -0.004723 -0.079350
v 0.261356 -0.004723 -0.079350
v 0.255870 0.005713 -0.092446
v 0.488795 -0.009608 0.092446
v 0.479538 -0.103241 0.079350
v 0.489617 -0.113241 0.092446
v 0.322351 -0.113241 0.092446
v 0.478848 -0.015606 0.079350
v 0.325609 -0.103241 0.079350
v 0.461676 0.005713 0.092446
v 0.239940 -0.039627 0.079350
v 0.461676 -0.004723 0.079350
v 0.226682 -0.039627 0.092446
v 0.261356 -0.004723 0.079350
v 0.256101 0.005713 0.092446
v 0.215792 -0.039166 0.075596
v -0.137009 -0.039166 0.075596
v -0.093181 -0.075166 0.075596
v 0.215792 -0.075166 0.075596
v -0.168174 -0.164021 0.075596
v -0.216257 -0.094446 0.075596
v -0.218565 0.032223 0.075596
v -0.238054 -0.128315 0.075596
v -0.270222 -0.036999 0.075596
v -0.224399 -0.164021 0.075596
v -0.628394 -0.036999 0.075596
v -0.316874 -0.128315 0.075596
v -0.705065 0.032223 0.075596
v -0.436121 -0.284030 0.075596
v -0.739368 -0.178879 0.075596
v -0.393185 -0.380166 0.075596
v -0.848957 -0.169074 0.075596
v -0.715960 -0.284030 0.075596
v -0.766078 -0.380166 0.075596
v -0.810080 -0.344162 0.075596
v -0.436121 -0.284030 -0.075596
v -0.224399 -0.164021 -0.075596
v -0.393185 -0.380166 -0.075596
v -0.316874 -0.128315 -0.075596
v -0.238054 -0.128315 -0.075596
v -0.715960 -0.284030 -0.075596
v -0.168174 -0.164021 -0.075596
v -0.766078 -0.380166 -0.075596
v -0.810080 -0.344162 -0.075596
v -0.848957 -0.169074 -0.075596
v -0.739368 -0.178879 -0.075596
v -0.705065 0.032223 -0.075596
v -0.628394 -0.036999 -0.075596
v -0.218565 0.032223 -0.075596
v -0.270222 -0.036999 -0.075596
v -0.216257 -0.094446 -0.075596
v -0.137009 -0.039166 -0.075596
v -0.093181 -0.075166 -0.075596
v 0.215792 -0.039166 -0.075596
v 0.215792 -0.075166 -0.075596
v 0.473144 -0.193168 -0.074035
v 0.493752 -0.145878 -0.074035
v 0.493752 -0.174488 -0.074035
v 0.259393 -0.145878 -0.074035
v 0.278433 -0.193168 -0.074035
v 0.178433 -0.103301 -0.074035
v 0.195833 -0.086083 -0.074035
v -0.044023 -0.103301 -0.074035
v -0.080996 -0.086083 -0.074035
v -0.160677 -0.177758 -0.074035
v -0.144023 -0.220861 -0.074035
v -0.195445 -0.220861 -0.074035
v -0.215823 -0.177758 -0.074035
v -0.381223 -0.385744 -0.074035
v -0.343789 -0.412151 -0.074035
v -0.755077 -0.412151 -0.074035
v -0.772122 -0.385744 -0.074035
v 0.178433 -0.103301 0.074035
v 0.278433 -0.193168 0.074035
v 0.259393 -0.145878 0.074035
v 0.473144 -0.193168 0.074035
v 0.493752 -0.145878 0.074035
v 0.493752 -0.174488 0.074035
v 0.195833 -0.086083 0.074035
v -0.044023 -0.103301 0.074035
v -0.080996 -0.086083 0.074035
v -0.160677 -0.177758 0.074035
v -0.144023 -0.220861 0.074035
v -0.195445 -0.220861 0.074035
v -0.215823 -0.177758 0.074035
v -0.381223 -0.385744 0.074035
v -0.343789 -0.412151 0.074035
v -0.755077 -0.412151 0.074035
v -0.772122 -0.385744 0.074035
v -0.270222 -0.036999 -0.075596
v -0.619079 -0.053345 -0.056666
v -0.628394 -0.036999 -0.075596
v -0.721503 -0.181690 -0.056820
v -0.278183 -0.053384 -0.056641
v -0.739368 -0.178879 -0.075596
v -0.235978 -0.096674 -0.057088
v -0.703613 -0.268585 -0.056996
v -0.216257 -0.094446 -0.075596
v -0.715960 -0.284030 -0.075596
v -0.238054 -0.128315 -0.075596
v -0.436121 -0.284030 -0.075596
v -0.246447 -0.111802 -0.056758
v -0.443628 -0.268088 -0.056608
v -0.316874 -0.128315 -0.075596
v -0.323396 -0.111474 -0.056149
v -0.619079 -0.053345 0.056666
v -0.278183 -0.053384 0.056641
v -0.270222 -0.036999 0.075596
v -0.235978 -0.096674 0.057088
v -0.628394 -0.036999 0.075596
v -0.216257 -0.094446 0.075596
v -0.721503 -0.181690 0.056820
v -0.238054 -0.128315 0.075596
v -0.739368 -0.178879 0.075596
v -0.246447 -0.111802 0.056758
v -0.703613 -0.268585 0.056996
v -0.316874 -0.128315 0.075596
v -0.715960 -0.284030 0.075596
v -0.323396 -0.111474 0.056149
v -0.436121 -0.284030 0.075596
v -0.443628 -0.268088 0.056608
v -0.705065 0.032223 -0.075596
v -0.212500 0.042834 -0.053997
v -0.218565 0.032223 -0.075596
v -0.137009 -0.039166 -0.075596
v -0.712500 0.042834 -0.053997
v -0.132500 -0.027166 -0.053997
v -0.862500 -0.167166 -0.053997
v 0.215792 -0.039166 -0.075596
v -0.848957 -0.169074 -0.075596
v 0.215792 -0.027166 -0.053997
v -0.810080 -0.344162 -0.075596
v 0.215792 -0.087166 -0.053997
v -0.822500 -0.347166 -0.053997
v 0.215792 -0.075166 -0.075596
v -0.772500 -0.392166 -0.053997
v -0.082500 -0.087166 -0.053997
v -0.766078 -0.380166 -0.075596
v -0.093181 -0.075166 -0.075596
v -0.387862 -0.392166 -0.053997
v -0.168174 -0.164021 -0.075596
v -0.393185 -0.380166 -0.075596
v -0.162500 -0.177166 -0.053997
v -0.222500 -0.177166 -0.053997
v -0.224399 -0.164021 -0.075596
v -0.212500 0.042834 0.053997
v -0.137009 -0.039166 0.075596
v -0.132500 -0.027166 0.053997
v -0.218565 0.032223 0.075596
v 0.215792 -0.039166 0.075596
v -0.705065 0.032223 0.075596
v 0.215792 -0.027166 0.053997
v -0.712500 0.042834 0.053997
v 0.215792 -0.087166 0.053997
v -0.862500 -0.167166 0.053997
v 0.215792 -0.075166 0.075596
v -0.848957 -0.169074 0.075596
v -0.082500 -0.087166 0.053997
v -0.810080 -0.344162 0.075596
v -0.093181 -0.075166 0.075596
v -0.822500 -0.347166 0.053997
v -0.168174 -0.164021 0.075596
v -0.772500 -0.392166 0.053997
v -0.162500 -0.177166 0.053997
v -0.766078 -0.380166 0.075596
v -0.222500 -0.177166 0.053997
v -0.387862 -0.392166 0.053997
v -0.224399 -0.164021 0.075596
v -0.393185 -0.380166 0.075596
v -0.488634 0.037018 -0.054790
v -0.546361 0.037018 -0.054790
v -0.538489 0.063320 -0.054790
v -0.496505 0.063320 -0.054790
v -0.504378 0.084523 -0.054790
v -0.530617 0.084523 -0.054790
v -0.530617 0.084523 0.054711
v -0.496505 0.063320 0.054711
v -0.504377 0.084523 0.054711
v -0.538489 0.063320 0.054711
v -0.546361 0.037018 0.054711
v -0.488633 0.037018 0.054711
v -0.132500 -0.027166 -0.053997
v -0.212500 0.042834 -0.053997
v -0.132500 -0.027166 0.053997
v -0.212500 0.042834 0.053997
v 0.215792 -0.027166 0.053997
v -0.712500 0.042834 0.053997
v 0.215792 -0.027166 -0.053997
v -0.712500 0.042834 -0.053997
v 0.215792 -0.087166 0.053997
v -0.862500 -0.167166 -0.053997
v 0.215792 -0.087166 -0.053997
v -0.862500 -0.167166 0.053997
v -0.082500 -0.087166 0.053997
v -0.822500 -0.347166 -0.053997
v -0.082500 -0.087166 -0.053997
v -0.822500 -0.347166 0.053997
v -0.162500 -0.177166 0.053997
v -0.772500 -0.392166 -0.053997
v -0.162500 -0.177166 -0.053997
v -0.772500 -0.392166 0.053997
v -0.222500 -0.177166 0.053997
v -0.387862 -0.392166 0.053997
v -0.222500 -0.177166 -0.053997
v -0.387862 -0.392166 -0.053997
v 0.325609 -0.103241 -0.079350
v 0.479538 -0.103241 0.079350
v 0.479538 -0.103241 -0.079350
v 0.478848 -0.015606 -0.079350
v 0.325609 -0.103241 0.079350
v 0.478848 -0.015606 0.079350
v 0.239940 -0.039627 -0.079350
v 0.461676 -0.004723 -0.079350
v 0.239940 -0.039627 0.079350
v 0.461676 -0.004723 0.079350
v 0.261356 -0.004723 -0.079350
v 0.261356 -0.004723 0.079350
v -0.538489 0.063320 -0.014640
v -0.504378 0.084523 -0.014640
v -0.530617 0.084523 -0.014640
v -0.496505 0.063320 -0.014640
v -0.504377 0.084523 0.014561
v -0.496505 0.063320 0.014561
v -0.530617 0.084523 0.014561
v -0.538489 0.063320 0.014561
v -0.215823 -0.177758 -0.074035
v -0.167930 -0.164940 -0.059168
v -0.160677 -0.177758 -0.074035
v -0.080996 -0.086083 -0.074035
v -0.227100 -0.164940 -0.059168
v -0.092500 -0.074523 -0.059168
v -0.392500 -0.374523 -0.059168
v 0.195833 -0.086083 -0.074035
v -0.381223 -0.385744 -0.074035
v -0.772122 -0.385744 -0.074035
v -0.795079 -0.374523 -0.059168
v 0.207500 -0.074523 -0.059168
v 0.267500 -0.134523 -0.059168
v 0.259393 -0.145878 -0.074035
v 0.493752 -0.145878 -0.074035
v 0.507883 -0.134523 -0.059168
v -0.392500 -0.374523 0.059168
v -0.215823 -0.177758 0.074035
v -0.227100 -0.164940 0.059168
v -0.167930 -0.164940 0.059168
v -0.381223 -0.385744 0.074035
v -0.772122 -0.385744 0.074035
v -0.795079 -0.374523 0.059168
v -0.160677 -0.177758 0.074035
v -0.080996 -0.086083 0.074035
v -0.092500 -0.074523 0.059168
v 0.195833 -0.086083 0.074035
v 0.207500 -0.074523 0.059168
v 0.267500 -0.134523 0.059168
v 0.259393 -0.145878 0.074035
v 0.493752 -0.145878 0.074035
v 0.507883 -0.134523 0.059168
v 0.222500 0.046649 -0.079350
v 0.482500 0.046649 0.079350
v 0.482500 0.046649 -0.079350
v 0.522500 0.006649 0.079350
v 0.222500 0.046649 0.079350
v 0.522500 0.006649 -0.079350
v 0.162500 -0.042954 -0.079350
v 0.522500 -0.122149 0.079350
v 0.162500 -0.042954 0.079350
v 0.522500 -0.122149 -0.079350
v 0.272500 -0.147166 0.079350
v 0.497216 -0.147166 -0.079350
v 0.272500 -0.147166 -0.079350
v 0.497215 -0.147166 0.079350
v -0.392500 -0.374523 -0.059168
v -0.227100 -0.164940 0.059168
v -0.227100 -0.164940 -0.059168
v -0.167930 -0.164940 0.059168
v -0.392500 -0.374523 0.059168
v -0.795079 -0.374523 -0.059168
v -0.795079 -0.374523 0.059168
v -0.167930 -0.164940 -0.059168
v -0.092500 -0.074523 0.059168
v -0.092500 -0.074523 -0.059168
v 0.207500 -0.074523 -0.059168
v 0.207500 -0.074523 0.059168
v 0.267500 -0.134523 0.059168
v 0.267500 -0.134523 -0.059168
v 0.507883 -0.134523 0.059168
v 0.507883 -0.134523 -0.059168
v -0.488634 0.037018 -0.054790
v -0.546361 0.037018 0.054711
v -0.546361 0.037018 -0.054790
v -0.488633 0.037018 0.054711
v 0.391034 0.043282 -0.020512
v 0.481595 0.043282 -0.020512
v 0.481595 0.043282 0.020511
v 0.391034 0.043282 0.020511
v 0.426093 0.077758 -0.002538
v 0.391034 0.043282 -0.020512
v 0.391034 0.043282 0.020511
v 0.426093 0.077758 0.002538
v -0.504377 0.084523 0.054711
v -0.496505 0.063320 0.014561
v -0.504377 0.084523 0.014561
v -0.496505 0.063320 0.054711
v -0.488633 0.037018 0.054711
v -0.488634 0.037018 -0.054790
v -0.496505 0.063320 -0.014640
v -0.496505 0.063320 -0.054790
v -0.504378 0.084523 -0.014640
v -0.504378 0.084523 -0.054790
v -0.278183 -0.053384 0.056641
v -0.619079 -0.053345 -0.056666
v -0.278183 -0.053384 -0.056641
v -0.619079 -0.053345 0.056666
v -0.235978 -0.096674 0.057088
v -0.721503 -0.181690 0.056820
v -0.235978 -0.096674 -0.057088
v -0.721503 -0.181690 -0.056820
v -0.246447 -0.111802 0.056758
v -0.703613 -0.268585 -0.056996
v -0.246447 -0.111802 -0.056758
v -0.703613 -0.268585 0.056996
v -0.323396 -0.111474 -0.056149
v -0.443628 -0.268088 -0.056608
v -0.323396 -0.111474 0.056149
v -0.443628 -0.268088 0.056608
vn 0.9398 0.3416 0.0005
vn 0.9399 0.3416 0.0003
vn -0.9481 0.3180 0.0005
vn -0.9516 0.3074 0.0003
vn -0.9374 0.3483 0.0004
vn -0.9580 0.2867 -0.0000
vn -0.9516 0.3074 0.0005
vn -0.9481 0.3179 0.0004
vn -0.9375 0.3481 -0.0000
vn -0.0004 1.0000 0.0004
vn -0.1480 -0.9890 -0.0000
vn -0.8444 -0.5358 0.0005
vn -0.1480 -0.9890 0.0005
vn 0.1443 -0.9895 0.0005
vn 0.1442 -0.9895 -0.0000
vn 0.1442 -0.9895 0.0005
vn 0.1433 -0.9897 0.0005
vn 0.1433 -0.9897 -0.0000
vn -0.1373 -0.9905 -0.0000
vn -0.1373 -0.9905 0.0005
vn 0.1374 -0.9905 0.0005
vn 0.1374 -0.9905 -0.0000
vn 0.8733 -0.4872 0.0005
vn 0.8733 -0.4872 -0.0000
vn 1.0000 0.0005 0.0005
vn -0.0845 -0.7430 0.6639
vn -0.6248 -0.3981 0.6717
vn -0.1940 -0.6995 0.6878
vn 0.1746 -0.6789 0.7132
vn 0.0826 -0.7301 0.6784
vn 0.1764 -0.6522 0.7372
vn 0.0797 -0.7019 0.7078
vn 0.1775 -0.6593 0.7307
vn 0.0788 -0.7059 0.7039
vn 0.1696 -0.7128 0.6806
vn 0.0865 -0.7584 0.6461
vn -0.0845 -0.7643 0.6393
vn -0.1604 -0.7263 0.6684
vn -0.0845 -0.7612 0.6430
vn -0.1617 -0.7237 0.6709
vn 0.1529 -0.7085 0.6890
vn 0.0846 -0.7508 0.6551
vn 0.6398 -0.1794 0.7473
vn 0.4899 -0.3990 0.7751
vn 0.7245 0.0005 0.6893
vn 0.7246 0.0003 0.6892
vn -0.0845 -0.7430 -0.6639
vn -0.6248 -0.3981 -0.6717
vn -0.1940 -0.6995 -0.6878
vn 0.1746 -0.6789 -0.7131
vn 0.0826 -0.7301 -0.6783
vn 0.1765 -0.6522 -0.7372
vn 0.0797 -0.7019 -0.7078
vn 0.1775 -0.6593 -0.7306
vn 0.0787 -0.7059 -0.7040
vn 0.1696 -0.7128 -0.6806
vn 0.0865 -0.7584 -0.6461
vn -0.0845 -0.7643 -0.6393
vn -0.1607 -0.7266 -0.6680
vn -0.0845 -0.7611 -0.6431
vn -0.1617 -0.7237 -0.6709
vn 0.1529 -0.7085 -0.6890
vn 0.0846 -0.7508 -0.6551
vn 0.6398 -0.1794 -0.7473
vn 0.4899 -0.3990 -0.7751
vn 0.7245 0.0004 -0.6892
vn 0.7246 0.0003 -0.6892
vn -0.0004 0.4625 0.8866
vn -0.0005 0.4626 -0.8866
vn -0.0005 0.4626 -0.8865
vn -0.0004 0.4625 -0.8866
vn -0.0004 0.0004 1.0000
vn -0.0003 0.0004 1.0000
vn -0.0004 0.0004 -1.0000
vn -0.0003 0.0004 -1.0000
vn 0.6502 0.4059 0.6423
vn 0.7087 -0.1832 0.6813
vn 0.5496 -0.4059 0.7302
vn 0.0855 -0.7593 0.6451
vn 0.7189 0.2625 0.6436
vn 0.1647 -0.7196 0.6746
vn 0.1823 0.7419 0.6452
vn -0.0845 -0.7771 0.6237
vn 0.0827 0.7693 0.6335
vn -0.1763 -0.7508 0.6365
vn -0.1939 0.7195 0.6668
vn -0.6658 -0.1324 0.7343
vn -0.0865 0.7606 0.6434
vn -0.6668 -0.1275 0.7343
vn -0.0845 -0.7771 -0.6237
vn 0.1657 -0.7209 -0.6730
vn 0.0856 -0.7607 -0.6435
vn 0.5555 -0.4107 -0.7230
vn -0.1763 -0.7508 -0.6365
vn 0.7175 -0.1851 -0.6715
vn -0.6628 -0.1314 -0.7371
vn 0.6522 0.4118 -0.6365
vn -0.6633 -0.1266 -0.7376
vn 0.7274 0.2614 -0.6345
vn -0.0854 0.7544 -0.6509
vn 0.1842 0.7371 -0.6502
vn -0.1940 0.7129 -0.6739
vn 0.0817 0.7645 -0.6394
vn 0.0817 0.7872 -0.6113
vn -0.2173 0.6853 -0.6951
vn -0.0962 0.7528 -0.6512
vn -0.5204 -0.5712 -0.6348
vn 0.1726 0.7724 -0.6112
vn -0.6540 -0.3717 -0.6589
vn 0.6710 0.2292 -0.7052
vn -0.0738 -0.7764 -0.6259
vn 0.6731 0.2194 -0.7063
vn -0.1598 -0.7640 -0.6251
vn 0.1979 -0.7195 -0.6657
vn 0.0856 -0.7593 -0.6451
vn -0.5250 -0.5728 0.6295
vn -0.2194 0.6864 0.6933
vn -0.0962 0.7542 0.6496
vn 0.0817 0.7872 0.6113
vn -0.6600 -0.3728 0.6522
vn 0.1725 0.7723 0.6113
vn -0.0747 -0.7763 0.6259
vn 0.6727 0.2281 0.7039
vn -0.1607 -0.7647 0.6240
vn 0.6746 0.2193 0.7048
vn 0.1990 -0.7207 0.6641
vn 0.0856 -0.7598 0.6445
vn -0.0796 -0.7387 -0.6694
vn 0.1901 -0.7000 -0.6883
vn 0.0817 -0.7362 -0.6718
vn 0.7024 -0.1598 -0.6936
vn -0.1842 -0.7071 -0.6827
vn 0.6836 -0.2311 -0.6923
vn -0.6733 -0.0474 -0.7378
vn 0.2116 0.6718 -0.7099
vn -0.6607 -0.1431 -0.7369
vn 0.0885 0.7330 -0.6744
vn -0.0826 0.7334 -0.6748
vn -0.0826 0.7491 -0.6573
vn -0.1958 0.6958 -0.6910
vn -0.1960 0.7150 -0.6711
vn -0.1978 0.7038 -0.6823
vn -0.0836 0.7366 -0.6711
vn 0.1901 -0.7000 0.6883
vn -0.1842 -0.7071 0.6827
vn -0.0796 -0.7387 0.6694
vn -0.6733 -0.0474 0.7378
vn 0.0817 -0.7363 0.6718
vn -0.6607 -0.1431 0.7369
vn 0.7024 -0.1598 0.6936
vn -0.0826 0.7334 0.6748
vn 0.6836 -0.2311 0.6923
vn -0.1958 0.6958 0.6910
vn 0.2116 0.6717 0.7099
vn -0.1978 0.7038 0.6823
vn 0.0885 0.7330 0.6745
vn -0.0836 0.7366 0.6711
vn -0.0826 0.7491 0.6573
vn -0.1960 0.7150 0.6711
vn -0.1822 0.8564 -0.4832
vn 0.0993 0.8819 -0.4608
vn 0.1667 0.8654 -0.4725
vn 0.0944 0.8615 -0.4989
vn -0.1050 0.8777 -0.4675
vn 0.1725 0.8454 -0.5055
vn -0.8162 0.2252 -0.5320
vn 0.2408 0.8484 -0.4714
vn -0.8265 0.1763 -0.5346
vn 0.1080 0.8689 -0.4831
vn -0.7234 -0.4616 -0.5134
vn 0.1080 -0.8690 -0.4828
vn -0.6941 -0.5095 -0.5085
vn 0.2408 -0.8484 -0.4714
vn -0.0953 -0.8621 -0.4977
vn 0.1755 -0.8290 -0.5310
vn -0.1705 -0.8468 -0.5038
vn 0.1002 -0.8523 -0.5134
vn 0.0993 -0.8615 -0.4980
vn 0.1833 -0.8097 -0.5575
vn 0.1883 -0.8430 -0.5039
vn 0.0944 -0.8351 -0.5419
vn 0.1959 -0.8246 -0.5307
vn 0.0943 -0.8441 -0.5278
vn 0.0993 0.8819 0.4608
vn 0.0944 0.8615 0.4989
vn 0.1725 0.8454 0.5055
vn 0.1667 0.8654 0.4725
vn 0.2408 0.8484 0.4714
vn -0.1822 0.8564 0.4832
vn 0.1080 0.8690 0.4828
vn -0.1050 0.8778 0.4675
vn 0.1080 -0.8689 0.4831
vn -0.8163 0.2252 0.5320
vn 0.2408 -0.8484 0.4714
vn -0.8265 0.1763 0.5346
vn 0.1755 -0.8290 0.5310
vn -0.7234 -0.4616 0.5134
vn 0.1002 -0.8523 0.5134
vn -0.6938 -0.5092 0.5092
vn 0.1833 -0.8097 0.5575
vn -0.0953 -0.8621 0.4977
vn 0.0944 -0.8351 0.5419
vn -0.1705 -0.8468 0.5038
vn 0.1959 -0.8246 0.5307
vn 0.0993 -0.8615 0.4979
vn 0.0943 -0.8441 0.5278
vn 0.1882 -0.8430 0.5039
vn -0.0004 0.0005 -1.0000
vn 0.1365 0.9906 -0.0000
vn 0.1364 0.9906 -0.0000
vn 0.1365 0.9906 0.0005
vn 0.1364 0.9906 0.0005
vn 0.1647 0.9863 0.0005
vn -0.1461 0.9893 -0.0000
vn 0.1647 0.9863 -0.0000
vn -0.1461 0.9893 0.0005
vn 0.1647 -0.9863 -0.0000
vn -0.9713 0.2378 0.0005
vn 0.1647 -0.9864 0.0005
vn -0.9713 0.2378 -0.0000
vn 0.1422 -0.9898 -0.0000
vn -0.8336 -0.5523 -0.0000
vn 0.1422 -0.9898 0.0005
vn -0.8336 -0.5524 0.0005
vn 0.1452 -0.9894 -0.0000
vn 0.1452 -0.9894 0.0005
vn 0.1325 0.9912 -0.0000
vn -0.1646 0.9864 -0.0000
vn -0.1646 0.9864 0.0005
vn -0.7887 -0.6148 -0.0000
vn 0.1325 0.9912 0.0005
vn -0.7887 -0.6148 0.0005
vn 0.9416 0.3366 -0.0000
vn -0.1274 -0.9918 -0.0000
vn 0.9416 0.3366 0.0005
vn -0.1275 -0.9918 0.0005
vn 0.1490 -0.9888 0.0005
vn 0.1490 -0.9888 -0.0000
vn -0.0004 0.0005 1.0000
vn -0.1783 0.6785 -0.7127
vn -0.1822 0.6884 -0.7021
vn -0.0796 0.7312 -0.6775
vn -0.1743 0.7174 -0.6745
vn -0.0826 0.7249 -0.6839
vn -0.0874 0.7574 -0.6471
vn -0.1734 0.7147 -0.6776
vn 0.1667 0.7226 -0.6708
vn -0.0874 0.7597 -0.6444
vn -0.0000 0.7982 -0.6024
vn -0.0004 0.7981 -0.6026
vn 0.0855 0.7584 -0.6461
vn 0.1686 0.7252 -0.6676
vn 0.0837 0.7640 -0.6398
vn -0.0003 0.7947 -0.6071
vn -0.0000 0.7947 -0.6070
vn -0.1734 0.7147 0.6776
vn -0.1782 0.6785 0.7127
vn -0.0826 0.7249 0.6839
vn -0.1822 0.6884 0.7021
vn -0.0874 0.7597 0.6444
vn -0.0000 0.7982 0.6024
vn -0.0004 0.7981 0.6026
vn -0.0796 0.7312 0.6775
vn -0.1743 0.7174 0.6745
vn -0.0874 0.7574 0.6471
vn 0.1667 0.7226 0.6709
vn 0.0855 0.7584 0.6461
vn 0.1686 0.7252 0.6676
vn 0.0837 0.7639 0.6398
vn -0.0003 0.7947 0.6071
vn -0.0000 0.7947 0.6070
vn -0.1480 0.9890 0.0005
vn 0.1403 0.9901 0.0005
vn 0.1403 0.9901 -0.0000
vn 0.8955 0.4450 0.0005
vn -0.1480 0.9890 -0.0000
vn 0.8955 0.4450 -0.0000
vn -0.9825 -0.1862 -0.0000
vn 0.8936 -0.4489 -0.0000
vn -0.9825 -0.1862 0.0005
vn 0.8936 -0.4489 0.0005
vn -0.1383 -0.9904 0.0005
vn 0.1393 -0.9902 0.0005
vn -0.1383 -0.9904 -0.0000
vn 0.1393 -0.9902 -0.0000
vn -0.1451 0.9894 0.0005
vn -0.1451 0.9894 -0.0000
vn -0.1442 0.9896 -0.0000
vn -0.1442 0.9896 0.0005
vn -0.0004 1.0000 0.0005
vn -0.0004 -1.0000 0.0004
vn -0.7012 0.7130 0.0005
vn -0.7012 0.7130 0.0003
vn -0.7012 0.7130 -0.0000
vn 0.9374 0.3482 0.0003
vn 0.9516 0.3073 -0.0000
vn 0.9374 0.3482 0.0004
vn 0.9481 0.3179 0.0004
vn 0.9580 0.2867 0.0003
vn 0.9580 0.2867 0.0005
vn 0.9516 0.3074 0.0005
vn 0.9374 0.3483 0.0004
vn -0.1411 -0.9900 0.0005
vn -0.1412 -0.9900 -0.0020
vn 0.1442 -0.9895 0.0003
vn -0.9901 -0.1402 0.0005
vn 0.9595 -0.2817 0.0001
vn 0.9595 -0.2817 0.0005
vn 0.1579 0.9875 0.0013
vn 0.1579 0.9875 0.0005
vn -0.1392 0.9903 0.0005
vn -0.1460 0.9893 0.0005
vn -0.1392 0.9903 0.0027
vn -0.1461 0.9893 -0.0008
vt 0.000000 0.000000
s 1
f 1/1/1 2/1/1 3/1/2
f 2/1/1 1/1/1 4/1/1
f 5/1/3 6/1/4 7/1/5
f 7/1/5 6/1/4 8/1/5
f 9/1/6 6/1/4 5/1/3
f 9/1/6 10/1/7 6/1/4
f 9/1/6 11/1/6 10/1/7
f 10/1/7 11/1/6 12/1/8
f 10/1/7 12/1/8 13/1/9
f 13/1/9 12/1/8 14/1/5
f 15/1/10 16/1/10 17/1/10
f 15/1/10 17/1/10 18/1/10
f 19/1/10 20/1/10 21/1/10
f 19/1/10 21/1/10 22/1/10
f 23/1/10 24/1/10 25/1/10
f 23/1/10 25/1/10 26/1/10
f 27/1/10 28/1/10 29/1/10
f 29/1/10 28/1/10 30/1/10
f 31/1/11 32/1/12 33/1/12
f 32/1/12 31/1/11 34/1/13
f 31/1/11 35/1/14 34/1/13
f 36/1/15 34/1/13 35/1/14
f 35/1/14 37/1/16 36/1/15
f 37/1/16 38/1/15 36/1/15
f 38/1/15 37/1/16 39/1/17
f 39/1/17 40/1/18 38/1/15
f 39/1/17 41/1/17 40/1/18
f 41/1/17 42/1/18 40/1/18
f 41/1/17 43/1/19 42/1/18
f 43/1/19 44/1/20 42/1/18
f 43/1/19 45/1/19 44/1/20
f 45/1/19 46/1/20 44/1/20
f 45/1/19 47/1/21 46/1/20
f 48/1/22 46/1/20 47/1/21
f 49/1/23 48/1/22 47/1/21
f 48/1/22 49/1/23 50/1/24
f 50/1/24 49/1/23 51/1/25
f 51/1/25 52/1/25 50/1/24
f 53/1/26 54/1/27 55/1/27
f 54/1/27 53/1/26 56/1/28
f 53/1/26 57/1/29 56/1/28
f 53/1/26 58/1/30 57/1/29
f 59/1/31 57/1/29 58/1/30
f 57/1/29 59/1/31 60/1/32
f 61/1/33 60/1/32 59/1/31
f 59/1/31 62/1/34 61/1/33
f 63/1/35 61/1/33 62/1/34
f 61/1/33 63/1/35 64/1/36
f 65/1/37 64/1/36 63/1/35
f 65/1/37 63/1/35 66/1/38
f 67/1/39 65/1/37 66/1/38
f 65/1/37 67/1/39 68/1/40
f 67/1/39 69/1/41 68/1/40
f 67/1/39 70/1/42 69/1/41
f 70/1/42 71/1/43 69/1/41
f 71/1/43 70/1/42 72/1/44
f 73/1/45 71/1/43 72/1/44
f 71/1/43 73/1/45 74/1/46
f 75/1/47 76/1/48 77/1/48
f 75/1/47 77/1/48 78/1/49
f 79/1/50 75/1/47 78/1/49
f 75/1/47 79/1/50 80/1/51
f 81/1/52 80/1/51 79/1/50
f 79/1/50 82/1/53 81/1/52
f 83/1/54 81/1/52 82/1/53
f 81/1/52 83/1/54 84/1/55
f 85/1/56 84/1/55 83/1/54
f 83/1/54 86/1/57 85/1/56
f 87/1/58 85/1/56 86/1/57
f 85/1/56 87/1/58 88/1/59
f 87/1/58 89/1/60 88/1/59
f 89/1/60 87/1/58 90/1/61
f 91/1/62 89/1/60 90/1/61
f 89/1/60 91/1/62 92/1/63
f 91/1/62 93/1/64 92/1/63
f 92/1/63 93/1/64 94/1/65
f 93/1/64 95/1/66 94/1/65
f 93/1/64 96/1/67 95/1/66
f 97/1/68 98/1/68 99/1/68
f 98/1/68 100/1/68 99/1/68
f 101/1/69 102/1/69 103/1/70
f 102/1/69 101/1/69 104/1/71
f 105/1/72 106/1/73 107/1/73
f 105/1/72 107/1/73 108/1/72
f 106/1/73 109/1/72 107/1/73
f 110/1/72 105/1/72 108/1/72
f 106/1/73 111/1/72 109/1/72
f 105/1/72 110/1/72 112/1/72
f 111/1/72 113/1/73 109/1/72
f 110/1/72 114/1/73 112/1/72
f 115/1/73 109/1/72 113/1/73
f 114/1/73 110/1/72 116/1/73
f 117/1/73 115/1/73 113/1/73
f 117/1/73 114/1/73 116/1/73
f 115/1/73 117/1/73 116/1/73
f 118/1/74 119/1/75 120/1/74
f 120/1/74 121/1/74 118/1/74
f 122/1/75 120/1/74 119/1/75
f 121/1/74 120/1/74 123/1/74
f 119/1/75 124/1/75 122/1/75
f 125/1/75 121/1/74 123/1/74
f 126/1/75 122/1/75 124/1/75
f 121/1/74 125/1/75 127/1/75
f 126/1/75 124/1/75 128/1/75
f 129/1/74 127/1/75 125/1/75
f 128/1/75 129/1/74 126/1/75
f 127/1/75 129/1/74 130/1/74
f 128/1/75 130/1/74 129/1/74
f 131/1/76 132/1/77 133/1/78
f 132/1/77 134/1/79 133/1/78
f 132/1/77 131/1/76 135/1/80
f 134/1/79 132/1/77 136/1/81
f 131/1/76 137/1/82 135/1/80
f 138/1/83 134/1/79 136/1/81
f 137/1/82 131/1/76 139/1/84
f 138/1/83 136/1/81 140/1/85
f 139/1/84 141/1/86 137/1/82
f 142/1/87 138/1/83 140/1/85
f 139/1/84 143/1/88 141/1/86
f 143/1/88 142/1/87 141/1/86
f 138/1/83 142/1/87 144/1/89
f 143/1/88 144/1/89 142/1/87
f 145/1/90 146/1/91 147/1/92
f 146/1/91 148/1/93 147/1/92
f 146/1/91 145/1/90 149/1/94
f 148/1/93 146/1/91 150/1/95
f 145/1/90 151/1/96 149/1/94
f 152/1/97 148/1/93 150/1/95
f 145/1/90 153/1/98 151/1/96
f 152/1/97 150/1/95 154/1/99
f 155/1/100 151/1/96 153/1/98
f 156/1/101 152/1/97 154/1/99
f 151/1/96 155/1/100 157/1/102
f 152/1/97 156/1/101 158/1/103
f 158/1/103 157/1/102 155/1/100
f 157/1/102 158/1/103 156/1/101
f 159/1/104 160/1/105 161/1/106
f 162/1/107 161/1/106 160/1/105
f 160/1/105 159/1/104 163/1/108
f 162/1/107 160/1/105 164/1/109
f 159/1/104 165/1/110 163/1/108
f 166/1/111 162/1/107 164/1/109
f 159/1/104 167/1/112 165/1/110
f 166/1/111 164/1/109 168/1/113
f 167/1/112 169/1/114 165/1/110
f 169/1/114 166/1/111 168/1/113
f 167/1/112 170/1/115 169/1/114
f 166/1/111 169/1/114 170/1/115
f 171/1/116 172/1/117 173/1/118
f 172/1/117 174/1/119 173/1/118
f 172/1/117 171/1/116 175/1/120
f 172/1/117 176/1/121 174/1/119
f 177/1/122 175/1/120 171/1/116
f 178/1/123 174/1/119 176/1/121
f 175/1/120 177/1/122 179/1/124
f 174/1/119 178/1/123 180/1/125
f 181/1/126 179/1/124 177/1/122
f 181/1/126 180/1/125 178/1/123
f 181/1/126 177/1/122 182/1/127
f 180/1/125 181/1/126 182/1/127
f 183/1/72 184/1/72 185/1/73
f 185/1/73 186/1/72 183/1/72
f 184/1/72 187/1/72 185/1/73
f 188/1/72 187/1/72 184/1/72
f 189/1/72 188/1/72 184/1/72
f 190/1/73 187/1/72 188/1/72
f 188/1/72 189/1/72 191/1/72
f 187/1/72 190/1/73 192/1/72
f 189/1/72 193/1/73 191/1/72
f 194/1/72 192/1/72 190/1/73
f 193/1/73 189/1/72 195/1/73
f 192/1/72 194/1/72 196/1/73
f 195/1/73 197/1/73 193/1/73
f 198/1/73 192/1/72 196/1/73
f 197/1/73 195/1/73 199/1/73
f 200/1/72 198/1/73 196/1/73
f 199/1/73 200/1/72 197/1/73
f 198/1/73 200/1/72 201/1/72
f 202/1/72 200/1/72 199/1/73
f 200/1/72 202/1/72 201/1/72
f 203/1/75 204/1/74 205/1/75
f 206/1/74 204/1/74 203/1/75
f 204/1/74 206/1/74 207/1/75
f 208/1/74 203/1/75 205/1/75
f 207/1/75 209/1/74 204/1/74
f 205/1/75 210/1/74 208/1/74
f 211/1/74 208/1/74 210/1/74
f 212/1/75 208/1/74 211/1/74
f 208/1/74 212/1/75 213/1/75
f 213/1/75 212/1/75 214/1/75
f 213/1/75 214/1/75 215/1/75
f 216/1/74 215/1/75 214/1/75
f 215/1/75 216/1/74 217/1/74
f 218/1/74 217/1/74 216/1/74
f 218/1/74 209/1/74 207/1/75
f 216/1/74 219/1/74 218/1/74
f 209/1/74 218/1/74 219/1/74
f 209/1/74 219/1/74 220/1/75
f 221/1/74 220/1/75 219/1/74
f 220/1/75 221/1/74 222/1/74
f 223/1/75 224/1/74 225/1/74
f 224/1/74 223/1/75 226/1/74
f 226/1/74 223/1/75 227/1/74
f 227/1/74 228/1/75 226/1/74
f 229/1/75 226/1/74 228/1/75
f 230/1/74 229/1/75 228/1/75
f 229/1/75 230/1/74 231/1/74
f 230/1/74 232/1/74 231/1/74
f 232/1/74 230/1/74 233/1/74
f 234/1/74 232/1/74 233/1/74
f 232/1/74 234/1/74 235/1/74
f 236/1/74 235/1/74 234/1/74
f 234/1/74 237/1/74 236/1/74
f 238/1/74 236/1/74 237/1/74
f 236/1/74 238/1/74 239/1/74
f 240/1/73 241/1/72 242/1/72
f 243/1/73 242/1/72 241/1/72
f 243/1/73 244/1/72 242/1/72
f 244/1/72 243/1/73 245/1/72
f 242/1/72 246/1/73 240/1/73
f 246/1/73 247/1/72 240/1/73
f 247/1/72 246/1/73 248/1/72
f 249/1/72 247/1/72 248/1/72
f 247/1/72 249/1/72 250/1/72
f 250/1/72 249/1/72 251/1/72
f 249/1/72 252/1/72 251/1/72
f 253/1/72 251/1/72 252/1/72
f 251/1/72 253/1/72 254/1/72
f 255/1/72 254/1/72 253/1/72
f 253/1/72 256/1/72 255/1/72
f 257/1/128 258/1/129 259/1/130
f 260/1/131 259/1/130 258/1/129
f 258/1/129 257/1/128 261/1/132
f 259/1/130 260/1/131 262/1/133
f 257/1/128 263/1/134 261/1/132
f 264/1/135 262/1/133 260/1/131
f 257/1/128 265/1/136 263/1/134
f 262/1/133 264/1/135 266/1/137
f 267/1/138 263/1/134 265/1/136
f 264/1/135 268/1/139 266/1/137
f 263/1/134 267/1/138 269/1/140
f 268/1/139 264/1/135 270/1/141
f 271/1/142 269/1/140 267/1/138
f 271/1/142 268/1/139 270/1/141
f 269/1/140 271/1/142 272/1/143
f 270/1/141 272/1/143 271/1/142
f 273/1/144 274/1/145 275/1/146
f 276/1/147 275/1/146 274/1/145
f 273/1/144 275/1/146 277/1/148
f 275/1/146 276/1/147 278/1/149
f 279/1/150 273/1/144 277/1/148
f 276/1/147 280/1/151 278/1/149
f 277/1/148 281/1/152 279/1/150
f 276/1/147 282/1/153 280/1/151
f 283/1/154 279/1/150 281/1/152
f 284/1/155 280/1/151 282/1/153
f 281/1/152 285/1/156 283/1/154
f 282/1/153 286/1/157 284/1/155
f 287/1/158 283/1/154 285/1/156
f 288/1/159 284/1/155 286/1/157
f 283/1/154 287/1/158 288/1/159
f 284/1/155 288/1/159 287/1/158
f 289/1/160 290/1/161 291/1/162
f 292/1/163 291/1/162 290/1/161
f 290/1/161 289/1/160 293/1/164
f 292/1/163 290/1/161 294/1/165
f 289/1/160 295/1/166 293/1/164
f 296/1/167 292/1/163 294/1/165
f 289/1/160 297/1/168 295/1/166
f 296/1/167 294/1/165 298/1/169
f 299/1/170 295/1/166 297/1/168
f 300/1/171 296/1/167 298/1/169
f 295/1/166 299/1/170 301/1/172
f 296/1/167 300/1/171 302/1/173
f 299/1/170 303/1/174 301/1/172
f 304/1/175 302/1/173 300/1/171
f 299/1/170 305/1/176 303/1/174
f 302/1/173 304/1/175 306/1/177
f 305/1/176 307/1/178 303/1/174
f 308/1/179 306/1/177 304/1/175
f 305/1/176 309/1/180 307/1/178
f 304/1/175 310/1/181 308/1/179
f 311/1/182 307/1/178 309/1/180
f 311/1/182 308/1/179 310/1/181
f 309/1/180 312/1/183 311/1/182
f 308/1/179 311/1/182 312/1/183
f 313/1/184 314/1/185 315/1/186
f 314/1/185 313/1/184 316/1/187
f 317/1/188 315/1/186 314/1/185
f 313/1/184 318/1/189 316/1/187
f 315/1/186 317/1/188 319/1/190
f 313/1/184 320/1/191 318/1/189
f 321/1/192 319/1/190 317/1/188
f 322/1/193 318/1/189 320/1/191
f 321/1/192 317/1/188 323/1/194
f 318/1/189 322/1/193 324/1/195
f 325/1/196 321/1/192 323/1/194
f 322/1/193 326/1/197 324/1/195
f 323/1/194 327/1/198 325/1/196
f 326/1/197 322/1/193 328/1/199
f 329/1/200 325/1/196 327/1/198
f 330/1/201 326/1/197 328/1/199
f 325/1/196 329/1/200 331/1/202
f 326/1/197 330/1/201 332/1/203
f 333/1/204 331/1/202 329/1/200
f 334/1/205 332/1/203 330/1/201
f 333/1/204 329/1/200 335/1/206
f 332/1/203 334/1/205 336/1/207
f 333/1/204 336/1/207 334/1/205
f 336/1/207 333/1/204 335/1/206
f 337/1/74 338/1/208 339/1/74
f 339/1/74 340/1/74 337/1/74
f 340/1/74 339/1/74 341/1/74
f 341/1/74 339/1/74 342/1/208
f 343/1/72 344/1/72 345/1/72
f 346/1/72 344/1/72 343/1/72
f 344/1/72 346/1/72 347/1/72
f 344/1/72 347/1/72 348/1/72
f 349/1/209 350/1/210 351/1/211
f 350/1/210 352/1/212 351/1/211
f 351/1/211 353/1/213 349/1/209
f 350/1/210 354/1/214 352/1/212
f 355/1/215 349/1/209 353/1/213
f 354/1/214 350/1/210 356/1/216
f 355/1/215 353/1/213 357/1/217
f 358/1/218 354/1/214 356/1/216
f 357/1/217 359/1/219 355/1/215
f 354/1/214 358/1/218 360/1/220
f 357/1/217 361/1/221 359/1/219
f 362/1/222 360/1/220 358/1/218
f 363/1/223 359/1/219 361/1/221
f 360/1/220 362/1/222 364/1/224
f 363/1/223 361/1/221 365/1/221
f 366/1/19 364/1/224 362/1/222
f 367/1/223 363/1/223 365/1/221
f 364/1/224 366/1/19 368/1/20
f 367/1/223 365/1/221 369/1/225
f 366/1/19 370/1/225 368/1/20
f 369/1/225 371/1/226 367/1/223
f 369/1/225 370/1/225 371/1/226
f 366/1/19 372/1/226 370/1/225
f 372/1/226 371/1/226 370/1/225
f 373/1/227 374/1/228 375/1/229
f 374/1/228 376/1/230 375/1/229
f 374/1/228 373/1/227 377/1/231
f 376/1/230 374/1/228 378/1/232
f 379/1/233 377/1/231 373/1/227
f 376/1/230 378/1/232 380/1/234
f 377/1/231 379/1/233 381/1/235
f 380/1/234 378/1/232 382/1/236
f 381/1/235 379/1/233 383/1/237
f 382/1/236 383/1/237 380/1/234
f 383/1/237 384/1/238 381/1/235
f 383/1/237 382/1/236 384/1/238
f 385/1/72 386/1/72 387/1/72
f 386/1/72 385/1/72 388/1/239
f 389/1/208 390/1/74 391/1/74
f 391/1/74 390/1/74 392/1/208
f 393/1/240 394/1/241 395/1/242
f 394/1/241 396/1/243 395/1/242
f 394/1/241 393/1/240 397/1/244
f 396/1/243 394/1/241 398/1/245
f 393/1/240 399/1/246 397/1/244
f 398/1/245 400/1/247 396/1/243
f 399/1/246 393/1/240 401/1/248
f 402/1/249 399/1/246 401/1/248
f 399/1/246 402/1/249 403/1/250
f 398/1/245 404/1/251 400/1/247
f 405/1/252 400/1/247 404/1/251
f 400/1/247 405/1/252 406/1/253
f 407/1/254 406/1/253 405/1/252
f 407/1/254 405/1/252 408/1/255
f 409/1/256 410/1/257 411/1/258
f 412/1/259 411/1/258 410/1/257
f 410/1/257 409/1/256 413/1/260
f 414/1/261 413/1/260 409/1/256
f 409/1/256 415/1/262 414/1/261
f 410/1/257 416/1/263 412/1/259
f 417/1/264 412/1/259 416/1/263
f 412/1/259 417/1/264 418/1/265
f 419/1/266 418/1/265 417/1/264
f 418/1/265 419/1/266 420/1/267
f 421/1/268 420/1/267 419/1/266
f 419/1/266 422/1/269 421/1/268
f 423/1/270 421/1/268 422/1/269
f 421/1/268 423/1/270 424/1/271
f 425/1/272 426/1/273 427/1/274
f 428/1/275 427/1/274 426/1/273
f 426/1/273 425/1/272 429/1/276
f 427/1/274 428/1/275 430/1/277
f 431/1/278 429/1/276 425/1/272
f 430/1/277 428/1/275 432/1/279
f 429/1/276 431/1/278 433/1/280
f 434/1/281 430/1/277 432/1/279
f 431/1/278 435/1/282 433/1/280
f 432/1/279 436/1/283 434/1/281
f 437/1/284 435/1/282 431/1/278
f 436/1/283 432/1/279 438/1/285
f 437/1/284 438/1/285 435/1/282
f 438/1/285 437/1/284 436/1/283
f 439/1/286 440/1/287 441/1/286
f 442/1/288 441/1/286 440/1/287
f 440/1/287 439/1/286 443/1/287
f 444/1/10 443/1/287 439/1/286
f 443/1/287 444/1/10 445/1/10
f 441/1/286 442/1/288 446/1/289
f 447/1/288 446/1/289 442/1/288
f 446/1/289 447/1/288 448/1/289
f 449/1/274 448/1/289 447/1/288
f 449/1/274 447/1/288 450/1/273
f 449/1/274 450/1/273 451/1/273
f 451/1/273 452/1/274 449/1/274
f 451/1/273 453/1/10 452/1/274
f 454/1/290 452/1/274 453/1/10
f 455/1/291 456/1/291 457/1/291
f 456/1/291 455/1/291 458/1/291
f 459/1/291 460/1/291 461/1/291
f 459/1/291 461/1/291 462/1/291
f 463/1/292 464/1/292 465/1/293
f 463/1/292 465/1/293 466/1/294
f 467/1/295 468/1/296 469/1/297
f 468/1/296 467/1/295 470/1/298
f 468/1/296 470/1/298 471/1/299
f 472/1/300 468/1/296 471/1/299
f 468/1/296 472/1/300 473/1/301
f 472/1/300 474/1/298 473/1/301
f 474/1/298 475/1/302 473/1/301
f 475/1/302 474/1/298 476/1/302
f 477/1/303 478/1/16 479/1/304
f 478/1/16 477/1/303 480/1/305
f 479/1/304 481/1/306 477/1/303
f 482/1/307 478/1/16 480/1/305
f 483/1/306 481/1/306 479/1/304
f 478/1/16 482/1/307 484/1/308
f 483/1/306 485/1/272 481/1/306
f 482/1/307 486/1/309 484/1/308
f 485/1/272 483/1/306 487/1/272
f 486/1/309 482/1/307 488/1/310
f 489/1/311 485/1/272 487/1/272
f 488/1/310 490/1/312 486/1/309
f 485/1/272 489/1/311 491/1/313
f 490/1/312 491/1/313 489/1/311
f 490/1/312 488/1/310 492/1/314
f 491/1/313 490/1/312 492/1/314
