# Blender 5.1.2
# www.blender.org
mtllib 127564637262921.mtl
o 127564637262921
v -0.207042 0.197940 0.044105
v 0.067042 0.197940 0.044105
v -0.207042 0.197940 -0.046422
v 0.067042 0.197940 -0.046422
v -0.235961 -0.283803 -0.033757
v -0.235959 -0.249232 0.043354
v -0.235959 -0.249232 -0.033758
v -0.235960 -0.283803 0.043354
v 0.096732 -0.249232 -0.033758
v 0.096732 -0.249232 0.043354
v 0.096733 -0.283803 -0.033757
v 0.096733 -0.283803 0.043354
v -0.235960 -0.283803 0.043354
v -0.228239 -0.249392 0.057530
v -0.235959 -0.249232 0.043354
v -0.228239 -0.283643 0.057531
v 0.096733 -0.283803 0.043354
v 0.096732 -0.249232 0.043354
v 0.089011 -0.249392 0.057530
v 0.089012 -0.283643 0.057531
v -0.228239 -0.283643 -0.047933
v -0.235959 -0.249232 -0.033758
v -0.228239 -0.249392 -0.047933
v -0.235961 -0.283803 -0.033757
v 0.089012 -0.283643 -0.047933
v 0.089011 -0.249392 -0.047933
v 0.096732 -0.249232 -0.033758
v 0.096733 -0.283803 -0.033757
v -0.207042 -0.192061 0.044105
v -0.207042 -0.192061 -0.046422
v -0.241302 -0.222061 -0.057738
v -0.207042 0.197940 0.044105
v -0.207042 0.197940 -0.046422
v -0.241302 -0.222061 0.055421
v -0.241302 -0.262061 -0.057738
v -0.241302 -0.262061 0.055421
v 0.067042 -0.192061 -0.046422
v 0.101302 -0.222061 0.055421
v 0.101302 -0.222061 -0.057738
v 0.101302 -0.262061 0.055421
v 0.101302 -0.262061 -0.057738
v 0.067042 -0.192061 0.044105
v 0.067042 0.197940 -0.046422
v 0.067042 0.197940 0.044105
v -0.114769 -0.437940 0.043354
v -0.024458 -0.437940 0.043353
v -0.024618 -0.430219 0.057531
v -0.114610 -0.430219 0.057531
v -0.024618 -0.430219 -0.047933
v -0.114769 -0.437940 -0.033757
v -0.114610 -0.430219 -0.047933
v -0.024458 -0.437940 -0.033757
v -0.168383 -0.384765 0.043344
v -0.114769 -0.437940 0.043354
v -0.160667 -0.384606 0.057525
v -0.114610 -0.430219 0.057531
v -0.024458 -0.437940 0.043353
v -0.114769 -0.437940 -0.033757
v -0.024458 -0.437940 -0.033757
v -0.114769 -0.437940 0.043354
v 0.021440 -0.384606 0.057525
v -0.024458 -0.437940 0.043353
v 0.029155 -0.384765 0.043344
v -0.024618 -0.430219 0.057531
v -0.114769 -0.437940 -0.033757
v -0.160667 -0.384606 -0.047927
v -0.114610 -0.430219 -0.047933
v -0.168383 -0.384765 -0.033747
v 0.029155 -0.384765 -0.033747
v -0.024458 -0.437940 -0.033757
v 0.021440 -0.384606 -0.047927
v -0.024618 -0.430219 -0.047933
v -0.114769 -0.437940 -0.033757
v -0.168383 -0.384765 0.043344
v -0.168383 -0.384765 -0.033747
v -0.114769 -0.437940 0.043354
v -0.024458 -0.437940 -0.033757
v 0.029155 -0.384765 -0.033747
v -0.024458 -0.437940 0.043353
v 0.029155 -0.384765 0.043344
v -0.168210 -0.336563 0.043338
v -0.183009 -0.328899 0.057530
v -0.183174 -0.336619 0.043351
v -0.167701 -0.328721 0.057731
v -0.168329 -0.336522 0.043360
v -0.160481 -0.336030 0.057732
v -0.160667 -0.384606 0.057525
v -0.168383 -0.384765 0.043344
v 0.029101 -0.336522 0.043360
v 0.021440 -0.384606 0.057525
v 0.029155 -0.384765 0.043344
v 0.021253 -0.336030 0.057732
v 0.028473 -0.328721 0.057731
v 0.028983 -0.336563 0.043338
v 0.043781 -0.328899 0.057530
v 0.043946 -0.336619 0.043351
v -0.160667 -0.384606 -0.047927
v -0.168329 -0.336522 -0.033762
v -0.160481 -0.336030 -0.048133
v -0.168383 -0.384765 -0.033747
v -0.167701 -0.328721 -0.048133
v -0.183009 -0.328899 -0.047932
v -0.168210 -0.336563 -0.033740
v -0.183174 -0.336619 -0.033753
v 0.021440 -0.384606 -0.047927
v 0.021253 -0.336030 -0.048133
v 0.029101 -0.336522 -0.033762
v 0.029155 -0.384765 -0.033747
v 0.028473 -0.328721 -0.048133
v 0.043781 -0.328899 -0.047932
v 0.028983 -0.336563 -0.033741
v 0.043946 -0.336619 -0.033753
v -0.168210 -0.336563 0.043338
v -0.183174 -0.336619 -0.033753
v -0.168210 -0.336563 -0.033740
v -0.183174 -0.336619 0.043351
v -0.168329 -0.336522 -0.033762
v -0.168329 -0.336522 0.043360
v -0.168383 -0.384765 0.043344
v -0.168383 -0.384765 -0.033747
v 0.043946 -0.336619 -0.033753
v 0.028983 -0.336563 0.043338
v 0.028983 -0.336563 -0.033741
v 0.043946 -0.336619 0.043351
v 0.029101 -0.336522 -0.033762
v 0.029101 -0.336522 0.043360
v 0.029155 -0.384765 0.043344
v 0.029155 -0.384765 -0.033747
v -0.235960 -0.283803 0.043354
v -0.183009 -0.328899 0.057530
v -0.228239 -0.283643 0.057531
v -0.183174 -0.336619 0.043351
v 0.089012 -0.283643 0.057531
v 0.043781 -0.328899 0.057530
v 0.096733 -0.283803 0.043354
v 0.043946 -0.336619 0.043351
v -0.183009 -0.328899 -0.047932
v -0.235961 -0.283803 -0.033757
v -0.228239 -0.283643 -0.047933
v -0.183174 -0.336619 -0.033753
v 0.096733 -0.283803 -0.033757
v 0.043781 -0.328899 -0.047932
v 0.089012 -0.283643 -0.047933
v 0.043946 -0.336619 -0.033753
v -0.183174 -0.336619 -0.033753
v -0.235960 -0.283803 0.043354
v -0.235961 -0.283803 -0.033757
v -0.183174 -0.336619 0.043351
v 0.043946 -0.336619 -0.033753
v 0.096733 -0.283803 -0.033757
v 0.043946 -0.336619 0.043351
v 0.096733 -0.283803 0.043354
v -0.241302 -0.222061 -0.057738
v 0.101302 -0.222061 -0.057738
v 0.101302 -0.262061 -0.057738
v -0.241302 -0.262061 -0.057738
v -0.207042 -0.192061 -0.046422
v 0.067042 -0.192061 -0.046422
v -0.207042 0.197940 -0.046422
v 0.067042 0.197940 -0.046422
v -0.181976 -0.282499 0.043344
v -0.181976 -0.282499 -0.033747
v -0.181834 -0.282626 -0.033753
v -0.181834 -0.282626 0.043351
v 0.042606 -0.282626 -0.033753
v 0.042748 -0.282499 0.043344
v 0.042606 -0.282626 0.043351
v 0.042748 -0.282499 -0.033748
v -0.189687 -0.249920 0.057733
v -0.228239 -0.283643 0.057531
v -0.189679 -0.283119 0.057729
v -0.228239 -0.249392 0.057530
v -0.228239 -0.283643 0.057531
v -0.182478 -0.290340 0.057729
v -0.189679 -0.283119 0.057729
v -0.183009 -0.328899 0.057530
v -0.160667 -0.384606 0.057525
v -0.114610 -0.430219 0.057531
v -0.122117 -0.384076 0.057738
v -0.114089 -0.391646 0.057723
v -0.025139 -0.391646 0.057723
v -0.114610 -0.430219 0.057531
v -0.024618 -0.430219 0.057531
v -0.114089 -0.391646 0.057723
v 0.089012 -0.283643 0.057531
v 0.050459 -0.249920 0.057733
v 0.050452 -0.283119 0.057729
v 0.089011 -0.249392 0.057530
v 0.043251 -0.290340 0.057729
v 0.089012 -0.283643 0.057531
v 0.050452 -0.283119 0.057729
v 0.043781 -0.328899 0.057530
v -0.017111 -0.384076 0.057738
v -0.024618 -0.430219 0.057531
v 0.021440 -0.384606 0.057525
v -0.025139 -0.391646 0.057723
v -0.182478 -0.290340 0.057729
v -0.183009 -0.328899 0.057530
v -0.167701 -0.328721 0.057731
v -0.167170 -0.290164 0.057530
v -0.121919 -0.335505 0.057526
v -0.160481 -0.336030 0.057732
v -0.122117 -0.384076 0.057738
v -0.160667 -0.384606 0.057525
v 0.021440 -0.384606 0.057525
v 0.021253 -0.336030 0.057732
v -0.017111 -0.384076 0.057738
v -0.017309 -0.335505 0.057526
v 0.028473 -0.328721 0.057731
v 0.027942 -0.290164 0.057530
v 0.043251 -0.290340 0.057729
v 0.043781 -0.328899 0.057530
v -0.189687 -0.249920 -0.048135
v -0.228239 -0.283643 -0.047933
v -0.228239 -0.249392 -0.047933
v -0.189679 -0.283119 -0.048132
v -0.182478 -0.290340 -0.048132
v -0.228239 -0.283643 -0.047933
v -0.189679 -0.283119 -0.048132
v -0.183009 -0.328899 -0.047932
v -0.025139 -0.391646 -0.048125
v -0.114610 -0.430219 -0.047933
v -0.114089 -0.391646 -0.048125
v -0.024618 -0.430219 -0.047933
v -0.122117 -0.384076 -0.048141
v -0.114610 -0.430219 -0.047933
v -0.160667 -0.384606 -0.047927
v -0.114089 -0.391646 -0.048125
v 0.021440 -0.384606 -0.047927
v -0.024618 -0.430219 -0.047933
v -0.017111 -0.384076 -0.048141
v -0.025139 -0.391646 -0.048125
v 0.089012 -0.283643 -0.047933
v 0.043251 -0.290340 -0.048132
v 0.050452 -0.283119 -0.048132
v 0.043781 -0.328899 -0.047932
v 0.089011 -0.249392 -0.047933
v 0.089012 -0.283643 -0.047933
v 0.050459 -0.249920 -0.048135
v 0.050452 -0.283119 -0.048132
v -0.121919 -0.335505 -0.047928
v -0.122117 -0.384076 -0.048141
v -0.160481 -0.336030 -0.048133
v -0.160667 -0.384606 -0.047927
v -0.167701 -0.328721 -0.048133
v -0.167170 -0.290164 -0.047932
v -0.182478 -0.290340 -0.048132
v -0.183009 -0.328899 -0.047932
v 0.021253 -0.336030 -0.048133
v -0.017111 -0.384076 -0.048141
v -0.017309 -0.335505 -0.047928
v 0.021440 -0.384606 -0.047927
v 0.028473 -0.328721 -0.048133
v 0.027942 -0.290164 -0.047932
v 0.043251 -0.290340 -0.048132
v 0.043781 -0.328899 -0.047932
v -0.241302 -0.262061 0.055421
v 0.101302 -0.262061 0.055421
v 0.101302 -0.222061 0.055421
v -0.241302 -0.222061 0.055421
v -0.207042 -0.192061 0.044105
v 0.067042 -0.192061 0.044105
v 0.067042 0.197940 0.044105
v -0.207042 0.197940 0.044105
v -0.181976 -0.282499 0.043344
v -0.167170 -0.290164 0.057530
v -0.167006 -0.282445 0.043349
v -0.182478 -0.290340 0.057729
v -0.114203 -0.335343 0.043348
v -0.121919 -0.335505 0.057526
v -0.114281 -0.383532 0.043347
v -0.122117 -0.384076 0.057738
v 0.027778 -0.282445 0.043348
v 0.027942 -0.290164 0.057530
v 0.042748 -0.282499 0.043344
v 0.043251 -0.290340 0.057729
v -0.025025 -0.335343 0.043348
v -0.017309 -0.335505 0.057526
v -0.024947 -0.383532 0.043347
v -0.017111 -0.384076 0.057738
v -0.167006 -0.282445 -0.033752
v -0.114203 -0.335343 -0.033750
v -0.167170 -0.290164 -0.047932
v -0.181976 -0.282499 -0.033747
v -0.182478 -0.290340 -0.048132
v -0.121919 -0.335505 -0.047928
v -0.114281 -0.383532 -0.033749
v -0.122117 -0.384076 -0.048141
v -0.017309 -0.335505 -0.047928
v -0.017111 -0.384076 -0.048141
v -0.024947 -0.383532 -0.033749
v -0.025025 -0.335343 -0.033750
v 0.027942 -0.290164 -0.047932
v 0.027778 -0.282445 -0.033752
v 0.042748 -0.282499 -0.033748
v 0.043251 -0.290340 -0.048132
v -0.182478 -0.290340 0.057729
v -0.181976 -0.282499 0.043344
v -0.189679 -0.283119 0.057729
v 0.042748 -0.282499 0.043344
v 0.043251 -0.290340 0.057729
v 0.050452 -0.283119 0.057729
v -0.181976 -0.282499 -0.033747
v -0.182478 -0.290340 -0.048132
v -0.189679 -0.283119 -0.048132
v 0.043251 -0.290340 -0.048132
v 0.042748 -0.282499 -0.033748
v 0.050452 -0.283119 -0.048132
v 0.101302 -0.262061 -0.057738
v -0.241302 -0.262061 0.055421
v -0.241302 -0.262061 -0.057738
v 0.101302 -0.262061 0.055421
v -0.113635 -0.383791 0.043348
v -0.025139 -0.391646 0.057723
v -0.025593 -0.383791 0.043348
v -0.114089 -0.391646 0.057723
v -0.025139 -0.391646 -0.048125
v -0.114089 -0.391646 -0.048125
v -0.113635 -0.383791 -0.033749
v -0.025593 -0.383791 -0.033749
v 0.027778 -0.282445 -0.033752
v 0.027778 -0.282445 0.043348
v 0.042748 -0.282499 -0.033748
v 0.042748 -0.282499 0.043344
v -0.025025 -0.335343 -0.033750
v -0.025025 -0.335343 0.043348
v -0.024947 -0.383532 -0.033749
v -0.024947 -0.383532 0.043347
v -0.181976 -0.282499 0.043344
v -0.167006 -0.282445 -0.033752
v -0.181976 -0.282499 -0.033747
v -0.167006 -0.282445 0.043349
v -0.114203 -0.335343 0.043348
v -0.114203 -0.335343 -0.033750
v -0.114281 -0.383532 0.043347
v -0.114281 -0.383532 -0.033749
v -0.025139 -0.391646 0.057723
v -0.024947 -0.383532 0.043347
v -0.025593 -0.383791 0.043348
v -0.017111 -0.384076 0.057738
v -0.114089 -0.391646 0.057723
v -0.113635 -0.383791 0.043348
v -0.114281 -0.383532 0.043347
v -0.122117 -0.384076 0.057738
v -0.114089 -0.391646 -0.048125
v -0.114281 -0.383532 -0.033749
v -0.113635 -0.383791 -0.033749
v -0.122117 -0.384076 -0.048141
v -0.025139 -0.391646 -0.048125
v -0.024947 -0.383532 -0.033749
v -0.017111 -0.384076 -0.048141
v -0.025593 -0.383791 -0.033749
v -0.113635 -0.383791 -0.033749
v -0.113635 -0.383791 0.043348
v -0.025593 -0.383791 -0.033749
v -0.025593 -0.383791 0.043348
v -0.181854 -0.250453 0.043348
v -0.189679 -0.283119 0.057729
v -0.181834 -0.282626 0.043351
v -0.189687 -0.249920 0.057733
v 0.042627 -0.250453 0.043348
v 0.042606 -0.282626 0.043351
v 0.050452 -0.283119 0.057729
v 0.050459 -0.249920 0.057733
v -0.189679 -0.283119 -0.048132
v -0.189687 -0.249920 -0.048135
v -0.181854 -0.250453 -0.033749
v -0.181834 -0.282626 -0.033753
v 0.050452 -0.283119 -0.048132
v 0.042627 -0.250453 -0.033749
v 0.050459 -0.249920 -0.048135
v 0.042606 -0.282626 -0.033753
v -0.113635 -0.383791 0.043348
v -0.113635 -0.383791 -0.033749
v -0.114281 -0.383532 -0.033749
v -0.114281 -0.383532 0.043347
v -0.025593 -0.383791 -0.033749
v -0.024947 -0.383532 0.043347
v -0.024947 -0.383532 -0.033749
v -0.025593 -0.383791 0.043348
v -0.181854 -0.250453 0.043348
v -0.181834 -0.282626 -0.033753
v -0.181854 -0.250453 -0.033749
v -0.181834 -0.282626 0.043351
v 0.042606 -0.282626 -0.033753
v 0.042606 -0.282626 0.043351
v 0.042627 -0.250453 -0.033749
v 0.042627 -0.250453 0.043348
vn 0.0005 1.0000 0.0005
vn -1.0000 0.0005 0.0005
vn 1.0000 0.0005 0.0005
vn -0.8782 -0.0000 0.4783
vn -0.8781 0.0005 0.4784
vn -0.8782 0.0003 0.4784
vn 0.8782 0.0004 0.4784
vn 0.8781 0.0005 0.4784
vn -0.8781 0.0005 -0.4784
vn -0.8782 0.0003 -0.4784
vn -0.8781 0.0006 -0.4784
vn 0.8782 -0.0000 -0.4783
vn 0.8781 0.0004 -0.4784
vn 0.8781 0.0005 -0.4784
vn -0.8945 0.4470 0.0005
vn -0.9284 0.3717 0.0005
vn 0.8945 0.4470 0.0005
vn 0.9284 0.3717 0.0005
vn 0.0003 -0.8782 0.4784
vn 0.0005 -0.8781 0.4784
vn -0.0000 -0.8782 0.4783
vn -0.0000 -0.8782 -0.4783
vn 0.0003 -0.8782 -0.4784
vn 0.0005 -0.8781 -0.4784
vn -0.6551 -0.6610 0.3659
vn -0.6552 -0.6610 0.3659
vn -0.6551 -0.6610 0.3660
vn 0.0005 -1.0000 0.0005
vn 0.6551 -0.6610 0.3659
vn -0.6551 -0.6610 -0.3659
vn -0.6551 -0.6610 -0.3660
vn 0.6551 -0.6610 -0.3660
vn 0.6551 -0.6610 -0.3659
vn -0.7042 -0.7100 0.0003
vn -0.7042 -0.7100 0.0005
vn -0.7042 -0.7100 -0.0000
vn 0.7042 -0.7100 0.0006
vn 0.7042 -0.7100 -0.0000
vn 0.7042 -0.7100 0.0005
vn -0.3111 -0.8291 0.4646
vn 0.0035 -0.8782 0.4784
vn 0.0033 -0.8781 0.4785
vn -0.3200 -0.8262 0.4637
vn -0.8300 -0.3131 0.4616
vn -0.8308 -0.3111 0.4616
vn -0.8781 0.0015 0.4784
vn 0.8300 -0.3131 0.4616
vn 0.8781 0.0015 0.4784
vn 0.8781 0.0015 0.4785
vn 0.8308 -0.3111 0.4615
vn 0.3200 -0.8262 0.4636
vn 0.3111 -0.8291 0.4646
vn -0.0035 -0.8782 0.4784
vn 0.3200 -0.8262 0.4637
vn -0.8781 0.0015 -0.4784
vn -0.8300 -0.3131 -0.4616
vn -0.8308 -0.3111 -0.4615
vn -0.3200 -0.8262 -0.4637
vn 0.0034 -0.8781 -0.4784
vn -0.3111 -0.8291 -0.4646
vn 0.0034 -0.8781 -0.4785
vn 0.8781 0.0015 -0.4784
vn 0.8308 -0.3111 -0.4616
vn 0.8300 -0.3131 -0.4616
vn 0.3200 -0.8262 -0.4636
vn -0.0034 -0.8781 -0.4784
vn 0.3112 -0.8290 -0.4646
vn 0.3200 -0.8262 -0.4637
vn -0.0035 -0.8782 -0.4784
vn 0.9872 0.1597 0.0002
vn 0.0035 -1.0000 0.0004
vn 0.9872 0.1597 0.0005
vn -0.6513 0.7588 0.0005
vn -1.0000 0.0014 0.0004
vn -0.0034 -1.0000 0.0005
vn -0.9870 0.1606 0.0005
vn -0.9870 0.1607 0.0005
vn -0.0035 -1.0000 0.0004
vn 0.6513 0.7588 0.0005
vn 1.0000 0.0014 0.0004
vn -0.6583 -0.6579 0.3659
vn 0.6580 -0.6581 0.3659
vn 0.6583 -0.6579 0.3659
vn -0.6582 -0.6579 -0.3659
vn -0.6582 -0.6579 -0.3660
vn 0.6582 -0.6579 -0.3659
vn -0.7071 -0.7071 0.0004
vn -0.7071 -0.7071 0.0005
vn 0.7071 -0.7071 0.0004
vn 0.0003 0.1158 -0.9933
vn 0.0005 0.1158 -0.9933
vn 0.0005 0.0005 -1.0000
vn 0.0005 0.2145 -0.9767
vn -0.6659 -0.7460 0.0005
vn -0.6660 -0.7460 0.0005
vn 0.6654 -0.7465 0.0005
vn 0.6655 -0.7464 0.0005
vn 0.6654 -0.7464 0.0005
vn -0.0053 -0.0004 1.0000
vn -0.0054 -0.0004 1.0000
vn -0.0054 -0.0054 1.0000
vn -0.0053 -0.0053 1.0000
vn -0.0055 -0.0054 1.0000
vn -0.0053 -0.0054 1.0000
vn 0.0004 -0.0053 1.0000
vn 0.0053 -0.0004 1.0000
vn 0.0054 -0.0005 1.0000
vn 0.0054 -0.0004 1.0000
vn 0.0053 -0.0053 1.0000
vn 0.0054 -0.0054 1.0000
vn 0.0053 -0.0054 1.0000
vn 0.0055 -0.0054 1.0000
vn 0.0005 0.0005 1.0000
vn 0.0034 0.0034 1.0000
vn 0.0014 0.0015 1.0000
vn 0.0015 0.0015 1.0000
vn 0.0034 0.0035 1.0000
vn -0.0005 0.0005 1.0000
vn -0.0034 0.0035 1.0000
vn 0.0005 0.0006 1.0000
vn -0.0015 0.0015 1.0000
vn -0.0034 0.0034 1.0000
vn -0.0014 0.0015 1.0000
vn -0.0053 -0.0004 -1.0000
vn -0.0054 -0.0005 -1.0000
vn -0.0052 -0.0001 -1.0000
vn -0.0051 -0.0051 -1.0000
vn -0.0053 -0.0053 -1.0000
vn 0.0004 -0.0053 -1.0000
vn 0.0005 -0.0054 -1.0000
vn -0.0053 -0.0054 -1.0000
vn -0.0052 -0.0053 -1.0000
vn -0.0054 -0.0054 -1.0000
vn 0.0055 -0.0054 -1.0000
vn 0.0053 -0.0054 -1.0000
vn 0.0054 -0.0054 -1.0000
vn 0.0053 -0.0053 -1.0000
vn 0.0051 -0.0051 -1.0000
vn 0.0054 -0.0005 -1.0000
vn 0.0053 -0.0004 -1.0000
vn 0.0015 0.0015 -1.0000
vn -0.0005 0.0005 -1.0000
vn 0.0034 0.0034 -1.0000
vn -0.0034 0.0034 -1.0000
vn -0.0015 0.0015 -1.0000
vn 0.0003 0.1158 0.9933
vn 0.0005 0.1158 0.9933
vn 0.0005 0.2145 0.9767
vn -0.0036 0.8782 0.4783
vn 0.3755 0.8120 0.4468
vn 0.3121 0.8326 0.4576
vn -0.0034 0.8781 0.4784
vn 0.8330 0.3122 0.4568
vn 0.8121 0.3765 0.4458
vn 0.8781 -0.0015 0.4784
vn 0.8783 -0.0015 0.4782
vn -0.3120 0.8326 0.4576
vn -0.3755 0.8121 0.4467
vn 0.0034 0.8781 0.4785
vn 0.0034 0.8781 0.4784
vn -0.8330 0.3122 0.4568
vn -0.8121 0.3765 0.4458
vn -0.8783 -0.0015 0.4781
vn -0.8783 -0.0015 0.4782
vn 0.3121 0.8326 -0.4576
vn 0.8330 0.3122 -0.4568
vn 0.3755 0.8120 -0.4468
vn -0.0033 0.8781 -0.4785
vn -0.0034 0.8781 -0.4784
vn 0.8121 0.3765 -0.4458
vn 0.8781 -0.0015 -0.4784
vn 0.8783 -0.0015 -0.4781
vn -0.8121 0.3765 -0.4458
vn -0.8781 -0.0015 -0.4786
vn -0.8781 -0.0015 -0.4784
vn -0.8330 0.3122 -0.4568
vn -0.3755 0.8120 -0.4468
vn -0.3120 0.8326 -0.4576
vn 0.0036 0.8782 -0.4783
vn 0.0035 0.8781 -0.4784
vn 0.6561 0.6523 0.3796
vn -0.6561 0.6523 0.3796
vn 0.6561 0.6523 -0.3796
vn -0.6561 0.6523 -0.3796
vn 0.0004 0.8777 0.4792
vn 0.0005 0.8777 0.4791
vn 0.0005 0.8777 -0.4791
vn 0.0005 0.8777 -0.4792
vn 0.0004 0.8777 -0.4792
vn -0.3814 0.9244 0.0005
vn 0.0034 1.0000 0.0004
vn 0.0035 1.0000 0.0003
vn -0.9244 0.3814 0.0003
vn -0.9244 0.3814 0.0005
vn -1.0000 -0.0015 0.0005
vn -1.0000 -0.0014 0.0005
vn -0.0034 1.0000 0.0004
vn 0.3814 0.9244 0.0005
vn -0.0035 1.0000 0.0003
vn 0.9244 0.3814 0.0003
vn 0.9244 0.3814 0.0005
vn 1.0000 -0.0015 0.0005
vn 1.0000 -0.0014 0.0005
vn -0.6201 0.6865 0.3797
vn -0.6200 0.6866 0.3797
vn 0.6201 0.6865 0.3797
vn 0.6200 0.6866 0.3797
vn 0.6201 0.6866 0.3797
vn 0.6201 0.6865 -0.3797
vn 0.6201 0.6866 -0.3797
vn 0.6200 0.6866 -0.3797
vn -0.6201 0.6865 -0.3797
vn -0.6201 0.6866 -0.3797
vn -0.6200 0.6866 -0.3797
vn 0.8781 0.0003 0.4784
vn 0.8781 0.0005 0.4785
vn 0.8782 0.0002 0.4782
vn -0.8781 0.0003 0.4784
vn -0.8780 0.0005 0.4786
vn -0.8781 0.0005 0.4785
vn -0.8783 0.0001 0.4782
vn 0.8780 0.0005 -0.4787
vn 0.8782 0.0004 -0.4784
vn 0.8781 0.0003 -0.4784
vn 0.8781 0.0005 -0.4785
vn -0.8781 0.0005 -0.4785
vn -0.8782 0.0004 -0.4783
vn 0.3728 0.9279 0.0005
vn 0.3729 0.9279 0.0005
vn -0.3728 0.9279 0.0005
vn -0.3729 0.9279 0.0005
vn 1.0000 0.0005 0.0006
vt 0.000000 0.000000
s 1
f 1/1/1 2/1/1 3/1/1
f 4/1/1 3/1/1 2/1/1
f 5/1/2 6/1/2 7/1/2
f 6/1/2 5/1/2 8/1/2
f 9/1/3 10/1/3 11/1/3
f 11/1/3 10/1/3 12/1/3
f 13/1/4 14/1/5 15/1/5
f 14/1/5 13/1/4 16/1/6
f 17/1/7 18/1/8 19/1/7
f 17/1/7 19/1/7 20/1/8
f 21/1/9 22/1/10 23/1/10
f 22/1/10 21/1/9 24/1/11
f 25/1/12 26/1/13 27/1/14
f 25/1/12 27/1/14 28/1/14
f 29/1/15 30/1/15 31/1/16
f 29/1/15 32/1/2 30/1/15
f 33/1/2 30/1/15 32/1/2
f 31/1/16 34/1/16 29/1/15
f 35/1/2 34/1/16 31/1/16
f 34/1/16 35/1/2 36/1/2
f 37/1/17 38/1/18 39/1/18
f 39/1/18 38/1/18 40/1/3
f 40/1/3 41/1/3 39/1/18
f 38/1/18 37/1/17 42/1/17
f 43/1/3 42/1/17 37/1/17
f 42/1/17 43/1/3 44/1/3
f 45/1/19 46/1/20 47/1/21
f 45/1/19 47/1/21 48/1/19
f 49/1/22 50/1/23 51/1/24
f 50/1/23 49/1/22 52/1/23
f 53/1/25 54/1/26 55/1/27
f 55/1/27 54/1/26 56/1/25
f 57/1/28 58/1/28 59/1/28
f 58/1/28 57/1/28 60/1/28
f 61/1/29 62/1/29 63/1/29
f 62/1/29 61/1/29 64/1/29
f 65/1/30 66/1/31 67/1/30
f 66/1/31 65/1/30 68/1/30
f 69/1/32 70/1/32 71/1/33
f 72/1/33 71/1/33 70/1/32
f 73/1/34 74/1/35 75/1/34
f 74/1/35 73/1/34 76/1/36
f 77/1/37 78/1/38 79/1/39
f 78/1/38 80/1/39 79/1/39
f 81/1/40 82/1/41 83/1/42
f 82/1/41 81/1/40 84/1/43
f 85/1/44 86/1/45 84/1/43
f 85/1/44 87/1/46 86/1/45
f 85/1/44 88/1/46 87/1/46
f 89/1/47 90/1/48 91/1/49
f 90/1/48 89/1/47 92/1/50
f 92/1/50 89/1/47 93/1/51
f 94/1/52 95/1/53 93/1/54
f 96/1/53 95/1/53 94/1/52
f 97/1/55 98/1/56 99/1/57
f 98/1/56 97/1/55 100/1/55
f 99/1/57 98/1/56 101/1/58
f 102/1/59 101/1/58 103/1/60
f 102/1/59 103/1/60 104/1/61
f 105/1/62 106/1/63 107/1/64
f 105/1/62 107/1/64 108/1/62
f 107/1/64 106/1/63 109/1/65
f 110/1/66 111/1/67 109/1/68
f 111/1/67 110/1/66 112/1/69
f 113/1/70 114/1/71 115/1/72
f 114/1/71 113/1/70 116/1/71
f 117/1/73 113/1/70 115/1/72
f 113/1/70 117/1/73 118/1/73
f 117/1/73 119/1/74 118/1/73
f 119/1/74 117/1/73 120/1/74
f 121/1/75 122/1/76 123/1/77
f 122/1/76 121/1/75 124/1/78
f 122/1/76 125/1/79 123/1/77
f 125/1/79 122/1/76 126/1/79
f 127/1/80 125/1/79 126/1/79
f 125/1/79 127/1/80 128/1/80
f 129/1/81 130/1/81 131/1/81
f 130/1/81 129/1/81 132/1/81
f 133/1/82 134/1/83 135/1/82
f 136/1/83 135/1/82 134/1/83
f 137/1/84 138/1/85 139/1/85
f 138/1/85 137/1/84 140/1/84
f 141/1/86 142/1/86 143/1/86
f 142/1/86 141/1/86 144/1/86
f 145/1/87 146/1/87 147/1/87
f 146/1/87 145/1/87 148/1/88
f 149/1/89 150/1/89 151/1/89
f 150/1/89 152/1/89 151/1/89
f 153/1/90 154/1/91 155/1/92
f 153/1/90 155/1/92 156/1/92
f 154/1/91 153/1/90 157/1/93
f 154/1/91 157/1/93 158/1/93
f 159/1/92 158/1/93 157/1/93
f 159/1/92 160/1/92 158/1/93
f 161/1/94 162/1/94 163/1/95
f 163/1/95 164/1/94 161/1/94
f 165/1/96 166/1/97 167/1/96
f 166/1/97 165/1/96 168/1/98
f 169/1/99 170/1/99 171/1/99
f 170/1/99 169/1/99 172/1/100
f 173/1/101 174/1/102 175/1/102
f 174/1/102 173/1/101 176/1/102
f 177/1/103 178/1/104 179/1/104
f 179/1/104 178/1/104 180/1/101
f 181/1/105 182/1/105 183/1/105
f 182/1/105 181/1/105 184/1/105
f 185/1/106 186/1/106 187/1/107
f 186/1/106 185/1/106 188/1/108
f 189/1/109 190/1/110 191/1/109
f 192/1/109 190/1/110 189/1/109
f 193/1/111 194/1/111 195/1/112
f 194/1/111 193/1/111 196/1/111
f 197/1/113 198/1/113 199/1/114
f 199/1/114 200/1/115 197/1/113
f 199/1/114 201/1/116 200/1/115
f 201/1/116 199/1/114 202/1/117
f 202/1/117 203/1/118 201/1/116
f 203/1/118 202/1/117 204/1/118
f 205/1/113 206/1/119 207/1/120
f 207/1/120 206/1/119 208/1/121
f 209/1/122 208/1/121 206/1/119
f 210/1/123 208/1/121 209/1/122
f 209/1/122 211/1/113 210/1/123
f 211/1/113 209/1/122 212/1/113
f 213/1/124 214/1/125 215/1/125
f 214/1/125 213/1/124 216/1/126
f 217/1/127 218/1/128 219/1/128
f 220/1/128 218/1/128 217/1/127
f 221/1/129 222/1/129 223/1/130
f 222/1/129 221/1/129 224/1/129
f 225/1/131 226/1/131 227/1/132
f 226/1/131 225/1/131 228/1/133
f 229/1/134 230/1/135 231/1/135
f 231/1/135 230/1/135 232/1/136
f 233/1/137 234/1/137 235/1/137
f 234/1/137 233/1/137 236/1/138
f 237/1/139 238/1/139 239/1/140
f 239/1/140 238/1/139 240/1/140
f 241/1/141 242/1/142 243/1/143
f 243/1/143 242/1/142 244/1/142
f 245/1/143 241/1/141 243/1/143
f 245/1/143 246/1/141 241/1/141
f 245/1/143 247/1/92 246/1/141
f 247/1/92 245/1/143 248/1/92
f 249/1/144 250/1/92 251/1/145
f 250/1/92 249/1/144 252/1/92
f 251/1/145 253/1/144 249/1/144
f 253/1/144 251/1/145 254/1/145
f 255/1/92 253/1/144 254/1/145
f 253/1/144 255/1/92 256/1/92
f 257/1/113 258/1/113 259/1/146
f 257/1/113 259/1/146 260/1/147
f 259/1/146 261/1/148 260/1/147
f 261/1/148 259/1/146 262/1/148
f 262/1/148 263/1/113 261/1/148
f 261/1/148 263/1/113 264/1/113
f 265/1/149 266/1/150 267/1/151
f 266/1/150 265/1/149 268/1/152
f 266/1/150 269/1/153 267/1/151
f 269/1/153 266/1/150 270/1/154
f 271/1/155 269/1/153 270/1/154
f 271/1/155 270/1/154 272/1/156
f 273/1/157 274/1/158 275/1/159
f 275/1/159 274/1/158 276/1/160
f 273/1/157 277/1/161 274/1/158
f 274/1/158 277/1/161 278/1/162
f 279/1/163 278/1/162 277/1/161
f 278/1/162 279/1/163 280/1/164
f 281/1/165 282/1/166 283/1/167
f 283/1/167 284/1/168 281/1/165
f 283/1/167 285/1/169 284/1/168
f 286/1/170 283/1/167 282/1/166
f 287/1/171 286/1/170 282/1/166
f 286/1/170 287/1/171 288/1/172
f 289/1/173 290/1/174 291/1/175
f 289/1/173 291/1/175 292/1/176
f 292/1/176 293/1/177 289/1/173
f 293/1/177 292/1/176 294/1/178
f 295/1/179 293/1/177 294/1/178
f 293/1/177 295/1/179 296/1/180
f 297/1/181 298/1/181 299/1/181
f 300/1/182 301/1/182 302/1/182
f 303/1/183 304/1/183 305/1/183
f 306/1/184 307/1/184 308/1/184
f 309/1/28 310/1/28 311/1/28
f 310/1/28 309/1/28 312/1/28
f 313/1/185 314/1/186 315/1/185
f 314/1/186 313/1/185 316/1/185
f 317/1/187 318/1/188 319/1/189
f 317/1/187 319/1/189 320/1/188
f 321/1/190 322/1/190 323/1/191
f 323/1/191 322/1/190 324/1/192
f 325/1/193 322/1/190 321/1/190
f 322/1/190 325/1/193 326/1/194
f 327/1/195 326/1/194 325/1/193
f 326/1/194 327/1/195 328/1/196
f 329/1/197 330/1/198 331/1/199
f 330/1/198 329/1/197 332/1/198
f 330/1/198 332/1/198 333/1/200
f 334/1/201 330/1/198 333/1/200
f 335/1/202 334/1/201 333/1/200
f 334/1/201 335/1/202 336/1/203
f 337/1/204 338/1/205 339/1/205
f 338/1/205 337/1/204 340/1/204
f 341/1/206 342/1/207 343/1/208
f 343/1/208 344/1/206 341/1/206
f 345/1/209 346/1/210 347/1/211
f 346/1/210 345/1/209 348/1/209
f 349/1/212 350/1/213 351/1/212
f 350/1/213 349/1/212 352/1/214
f 353/1/1 354/1/1 355/1/1
f 355/1/1 354/1/1 356/1/1
f 357/1/215 358/1/216 359/1/216
f 358/1/216 357/1/215 360/1/217
f 361/1/218 362/1/219 363/1/220
f 361/1/218 363/1/220 364/1/221
f 365/1/222 366/1/223 367/1/224
f 365/1/222 367/1/224 368/1/225
f 369/1/226 370/1/11 371/1/227
f 370/1/11 369/1/226 372/1/9
f 373/1/228 374/1/229 375/1/229
f 375/1/229 376/1/228 373/1/228
f 377/1/230 378/1/231 379/1/230
f 378/1/231 377/1/230 380/1/231
f 381/1/232 382/1/232 383/1/232
f 382/1/232 381/1/232 384/1/3
f 385/1/2 386/1/2 387/1/2
f 387/1/2 386/1/2 388/1/2
