# Blender 5.1.2
# www.blender.org
mtllib 133473402749742.mtl
o 133473402749742
v 0.116851 0.352772 0.051150
v 0.130895 0.317142 0.051150
v 0.130850 0.356862 0.051150
v 0.088001 0.382159 0.051150
v 0.116851 0.319459 0.051150
v 0.088001 0.369429 0.051150
v 0.059151 0.352772 0.051150
v 0.043984 0.356035 0.051150
v 0.043984 0.318752 0.051150
v 0.059151 0.319459 0.051150
v 0.117978 0.298628 0.051150
v 0.058022 0.298628 0.051150
v 0.088001 0.302802 0.051150
v 0.088001 0.262287 0.051150
v 0.106001 0.250040 0.051150
v 0.070001 0.250040 0.051150
v 0.106001 0.168392 0.051150
v 0.070001 0.168392 0.051150
v 0.117978 0.116337 0.051150
v 0.058022 0.111440 0.051150
v 0.088001 0.156145 0.051150
v 0.067812 0.108083 0.051150
v 0.107979 0.100718 0.051150
v 0.090623 0.080180 0.051150
v 0.090623 0.051272 0.051150
v 0.101974 -0.060049 0.051150
v 0.076432 0.027915 0.051150
v 0.107979 -0.078763 0.051150
v 0.077411 -0.086757 0.051150
v 0.118070 -0.097167 0.051150
v 0.088001 -0.144968 0.051150
v 0.056122 -0.086745 0.051150
v 0.106001 -0.162464 0.051150
v 0.070001 -0.162464 0.051150
v 0.106001 -0.279104 0.051150
v 0.070001 -0.279104 0.051150
v 0.118202 -0.358829 0.051150
v 0.056122 -0.360325 0.051150
v 0.088001 -0.296600 0.051150
v 0.088001 -0.359246 0.051150
v 0.059151 -0.375903 0.051150
v 0.116851 -0.375903 0.051150
v 0.043160 -0.372590 0.051150
v 0.132842 -0.373572 0.051150
v 0.043160 -0.397753 0.051150
v 0.132842 -0.397753 0.051150
v 0.059151 -0.409216 0.051150
v 0.116851 -0.409216 0.051150
v 0.078568 -0.443601 0.051150
v 0.097434 -0.443601 0.051150
v 0.088001 -0.425873 0.051150
v 0.130895 0.317142 -0.051150
v 0.116851 0.352772 -0.051150
v 0.130850 0.356862 -0.051150
v 0.088001 0.382159 -0.051150
v 0.116851 0.319459 -0.051150
v 0.088001 0.369429 -0.051150
v 0.059151 0.352772 -0.051150
v 0.043984 0.356035 -0.051150
v 0.043984 0.318752 -0.051150
v 0.059151 0.319459 -0.051150
v 0.117978 0.298628 -0.051150
v 0.058022 0.298628 -0.051150
v 0.088001 0.302802 -0.051150
v 0.088001 0.262287 -0.051150
v 0.106001 0.250040 -0.051150
v 0.070001 0.250040 -0.051150
v 0.106001 0.168392 -0.051150
v 0.070001 0.168392 -0.051150
v 0.117978 0.116337 -0.051150
v 0.058022 0.111440 -0.051150
v 0.088001 0.156145 -0.051150
v 0.067812 0.108083 -0.051150
v 0.107979 0.100718 -0.051150
v 0.090623 0.080180 -0.051150
v 0.090623 0.051272 -0.051150
v 0.101974 -0.060049 -0.051150
v 0.076432 0.027915 -0.051150
v 0.107979 -0.078763 -0.051150
v 0.077411 -0.086757 -0.051150
v 0.118070 -0.097167 -0.051150
v 0.088001 -0.144968 -0.051150
v 0.056122 -0.086745 -0.051150
v 0.106001 -0.162464 -0.051150
v 0.070001 -0.162464 -0.051150
v 0.106001 -0.279104 -0.051150
v 0.070001 -0.279104 -0.051150
v 0.118202 -0.358829 -0.051150
v 0.056122 -0.360325 -0.051150
v 0.088001 -0.296600 -0.051150
v 0.088001 -0.359246 -0.051150
v 0.059151 -0.375903 -0.051150
v 0.043160 -0.372590 -0.051150
v 0.116851 -0.375903 -0.051150
v 0.043160 -0.397753 -0.051150
v 0.132842 -0.373572 -0.051150
v 0.059151 -0.409216 -0.051150
v 0.132842 -0.397753 -0.051150
v 0.078568 -0.443601 -0.051150
v 0.116851 -0.409216 -0.051150
v 0.088001 -0.425873 -0.051150
v 0.097434 -0.443601 -0.051150
v 0.043984 0.356035 0.051150
v 0.026703 0.313344 0.039549
v 0.043984 0.318752 0.051150
v 0.027587 0.364532 0.039522
v 0.040949 0.293260 0.039979
v 0.088001 0.400278 0.039430
v 0.058022 0.298628 0.051150
v 0.088001 0.382159 0.051150
v 0.058022 0.111440 0.051150
v 0.130850 0.356862 0.051150
v 0.042207 0.100263 0.039683
v 0.148412 0.364448 0.039653
v 0.057520 0.093479 0.039923
v 0.149276 0.313430 0.039686
v 0.067812 0.108083 0.051150
v 0.130895 0.317142 0.051150
v 0.073717 0.074152 0.040066
v 0.135044 0.293266 0.039996
v 0.090623 0.080180 0.051150
v 0.117978 0.298628 0.051150
v 0.090623 0.051272 0.051150
v 0.117978 0.116337 0.051150
v 0.073435 0.056076 0.039939
v 0.135307 0.111266 0.039562
v 0.076432 0.027915 0.051150
v 0.125114 0.095704 0.039972
v 0.058167 0.030308 0.039570
v 0.107979 0.100718 0.051150
v 0.084173 -0.056199 0.040340
v 0.107979 -0.078763 0.051150
v 0.101974 -0.060049 0.051150
v 0.125106 -0.073856 0.040062
v 0.077411 -0.086757 0.051150
v 0.118070 -0.097167 0.051150
v 0.070790 -0.069883 0.040117
v 0.135277 -0.089286 0.039627
v 0.056122 -0.086745 0.051150
v 0.134611 -0.350529 0.040297
v 0.043410 -0.071774 0.039670
v 0.118202 -0.358829 0.051150
v 0.041167 -0.350593 0.039885
v 0.132842 -0.373572 0.051150
v 0.056122 -0.360325 0.051150
v 0.149672 -0.364296 0.039692
v 0.043160 -0.372590 0.051150
v 0.150036 -0.403619 0.039550
v 0.026311 -0.364301 0.039649
v 0.132842 -0.397753 0.051150
v 0.025965 -0.403619 0.039550
v 0.097434 -0.443601 0.051150
v 0.043160 -0.397753 0.051150
v 0.105614 -0.460278 0.039579
v 0.078568 -0.443601 0.051150
v 0.070387 -0.460278 0.039579
v 0.026703 0.313344 -0.039549
v 0.043984 0.356035 -0.051150
v 0.043984 0.318752 -0.051150
v 0.027587 0.364532 -0.039522
v 0.040949 0.293260 -0.039979
v 0.088001 0.400278 -0.039430
v 0.058022 0.298628 -0.051150
v 0.088001 0.382159 -0.051150
v 0.058022 0.111440 -0.051150
v 0.130850 0.356862 -0.051150
v 0.042207 0.100263 -0.039683
v 0.148412 0.364448 -0.039653
v 0.057520 0.093479 -0.039923
v 0.149276 0.313430 -0.039686
v 0.067812 0.108083 -0.051150
v 0.130895 0.317142 -0.051150
v 0.073717 0.074152 -0.040066
v 0.135044 0.293266 -0.039996
v 0.090623 0.080180 -0.051150
v 0.117978 0.298628 -0.051150
v 0.090623 0.051272 -0.051150
v 0.117978 0.116337 -0.051150
v 0.073435 0.056076 -0.039939
v 0.135307 0.111266 -0.039562
v 0.076432 0.027915 -0.051150
v 0.125114 0.095704 -0.039972
v 0.058167 0.030308 -0.039570
v 0.107979 0.100718 -0.051150
v 0.084173 -0.056199 -0.040340
v 0.107979 -0.078763 -0.051150
v 0.101974 -0.060049 -0.051150
v 0.125106 -0.073856 -0.040062
v 0.077411 -0.086757 -0.051150
v 0.118070 -0.097167 -0.051150
v 0.070790 -0.069883 -0.040117
v 0.135277 -0.089286 -0.039627
v 0.056122 -0.086745 -0.051150
v 0.134611 -0.350529 -0.040297
v 0.043410 -0.071774 -0.039670
v 0.118202 -0.358829 -0.051150
v 0.041167 -0.350593 -0.039885
v 0.132842 -0.373572 -0.051150
v 0.056122 -0.360325 -0.051150
v 0.149672 -0.364296 -0.039692
v 0.043160 -0.372590 -0.051150
v 0.150036 -0.403619 -0.039550
v 0.026311 -0.364301 -0.039649
v 0.132842 -0.397753 -0.051150
v 0.025965 -0.403619 -0.039550
v 0.097434 -0.443601 -0.051150
v 0.043160 -0.397753 -0.051150
v 0.105614 -0.460278 -0.039579
v 0.078568 -0.443601 -0.051150
v 0.070387 -0.460278 -0.039579
v 0.149276 0.313430 0.014026
v 0.148412 0.364448 0.014059
v 0.149276 0.313430 0.039686
v 0.135044 0.293266 0.013717
v 0.148412 0.364448 0.039653
v 0.135044 0.293266 0.039996
v 0.088001 0.400278 0.014283
v 0.135307 0.111266 0.014151
v 0.088001 0.400278 0.039430
v 0.135307 0.111266 0.039562
v 0.027587 0.364532 0.014191
v 0.125114 0.095704 0.039972
v 0.027587 0.364532 0.039522
v 0.125114 0.095704 0.013740
v 0.026703 0.313344 0.039549
v 0.125106 -0.073856 0.013650
v 0.026703 0.313344 0.014163
v 0.125106 -0.073856 0.040062
v 0.040949 0.293260 0.013734
v 0.135277 -0.089286 0.014085
v 0.040949 0.293260 0.039979
v 0.135277 -0.089286 0.039627
v 0.042207 0.100263 0.014030
v 0.134611 -0.350527 0.013417
v 0.042207 0.100263 0.039683
v 0.134611 -0.350529 0.040297
v 0.057520 0.093479 0.039923
v 0.149672 -0.364296 0.039692
v 0.057521 0.093479 0.013790
v 0.149673 -0.364296 0.014021
v 0.073717 0.074152 0.040066
v 0.150036 -0.403619 0.039550
v 0.073717 0.074152 0.013646
v 0.150036 -0.403619 0.014162
v 0.073436 0.056076 0.013774
v 0.105614 -0.460278 0.014133
v 0.073435 0.056076 0.039939
v 0.105614 -0.460278 0.039579
v 0.058167 0.030308 0.039570
v 0.070387 -0.460278 0.014133
v 0.058167 0.030308 0.014143
v 0.070387 -0.460278 0.039579
v 0.084173 -0.056199 0.013373
v 0.025965 -0.403619 0.039550
v 0.084173 -0.056199 0.040340
v 0.025966 -0.403619 0.014162
v 0.070790 -0.069883 0.013596
v 0.026311 -0.364301 0.014064
v 0.070790 -0.069883 0.040117
v 0.026311 -0.364301 0.039649
v 0.043410 -0.071774 0.039670
v 0.041167 -0.350593 0.039885
v 0.043410 -0.071774 0.014042
v 0.041167 -0.350593 0.013828
v 0.148412 0.364448 -0.014059
v 0.149276 0.313430 -0.014026
v 0.149276 0.313430 -0.039686
v 0.135044 0.293266 -0.013717
v 0.148412 0.364448 -0.039653
v 0.135044 0.293266 -0.039996
v 0.088001 0.400278 -0.014283
v 0.135307 0.111266 -0.014151
v 0.088001 0.400278 -0.039430
v 0.135307 0.111266 -0.039562
v 0.027587 0.364532 -0.014191
v 0.125114 0.095704 -0.039972
v 0.027587 0.364532 -0.039522
v 0.125114 0.095704 -0.013740
v 0.026703 0.313344 -0.039549
v 0.125106 -0.073856 -0.013650
v 0.026703 0.313344 -0.014163
v 0.125106 -0.073856 -0.040062
v 0.040949 0.293260 -0.013734
v 0.135277 -0.089286 -0.014085
v 0.040949 0.293260 -0.039979
v 0.135277 -0.089286 -0.039627
v 0.042207 0.100263 -0.014030
v 0.134611 -0.350527 -0.013417
v 0.042207 0.100263 -0.039683
v 0.134611 -0.350529 -0.040297
v 0.057520 0.093479 -0.039923
v 0.149672 -0.364296 -0.039692
v 0.057521 0.093479 -0.013790
v 0.149673 -0.364296 -0.014021
v 0.073717 0.074152 -0.040066
v 0.150036 -0.403619 -0.039550
v 0.073717 0.074152 -0.013646
v 0.150036 -0.403619 -0.014162
v 0.073436 0.056076 -0.013774
v 0.105614 -0.460278 -0.014133
v 0.073435 0.056076 -0.039939
v 0.105614 -0.460278 -0.039579
v 0.058167 0.030308 -0.039570
v 0.070387 -0.460278 -0.014133
v 0.058167 0.030308 -0.014143
v 0.070387 -0.460278 -0.039579
v 0.084173 -0.056199 -0.013373
v 0.025965 -0.403619 -0.039550
v 0.084173 -0.056199 -0.040340
v 0.025966 -0.403619 -0.014162
v 0.070790 -0.069883 -0.013596
v 0.026311 -0.364301 -0.014064
v 0.070790 -0.069883 -0.040117
v 0.026311 -0.364301 -0.039649
v 0.043410 -0.071774 -0.039670
v 0.041167 -0.350593 -0.039885
v 0.043410 -0.071774 -0.014042
v 0.041167 -0.350593 -0.013828
v 0.088001 0.369429 0.051150
v 0.088001 0.369429 0.002563
v 0.116851 0.352772 0.051150
v 0.116851 0.352772 0.002563
v 0.059151 0.352772 0.002563
v 0.116851 0.319459 0.002563
v 0.059151 0.352772 0.051150
v 0.116851 0.319459 0.051150
v 0.059151 0.319459 0.002563
v 0.088001 0.302802 0.002563
v 0.059151 0.319459 0.051150
v 0.088001 0.302802 0.051150
v 0.088001 -0.359246 0.051150
v 0.116851 -0.375903 0.002563
v 0.116851 -0.375903 0.051150
v 0.116851 -0.409216 0.002563
v 0.088001 -0.359246 0.002563
v 0.059151 -0.375903 0.051150
v 0.059151 -0.375903 0.002563
v 0.116851 -0.409216 0.051150
v 0.088001 -0.425873 0.002563
v 0.088001 -0.425873 0.051150
v 0.059151 -0.409216 0.002563
v 0.059151 -0.409216 0.051150
v 0.059151 -0.375903 0.002563
v 0.059151 -0.375903 0.051150
v 0.088001 0.369429 -0.002563
v 0.116851 0.352772 -0.051150
v 0.116851 0.352772 -0.002563
v 0.116851 0.319459 -0.002563
v 0.088001 0.369429 -0.051150
v 0.116851 0.319459 -0.051150
v 0.059151 0.352772 -0.002563
v 0.088001 0.302802 -0.002563
v 0.059151 0.352772 -0.051150
v 0.088001 0.302802 -0.051150
v 0.059151 0.319459 -0.002563
v 0.059151 0.319459 -0.051150
v 0.070001 -0.279104 0.002563
v 0.070001 -0.162464 0.051150
v 0.070001 -0.279104 0.051150
v 0.088001 -0.296600 0.051150
v 0.070001 -0.162464 0.002563
v 0.088001 -0.296600 0.002563
v 0.088001 -0.144968 0.051150
v 0.106001 -0.279104 0.051150
v 0.088001 -0.144968 0.002563
v 0.106001 -0.279104 0.002563
v 0.106001 -0.162464 0.051150
v 0.106001 -0.162464 0.002563
v 0.070001 -0.279104 -0.002563
v 0.070001 -0.162464 -0.051150
v 0.070001 -0.162464 -0.002563
v 0.088001 -0.144968 -0.051150
v 0.070001 -0.279104 -0.051150
v 0.088001 -0.144968 -0.002563
v 0.088001 -0.296600 -0.051150
v 0.106001 -0.162464 -0.051150
v 0.088001 -0.296600 -0.002563
v 0.106001 -0.162464 -0.002563
v 0.106001 -0.279104 -0.051150
v 0.106001 -0.279104 -0.002563
v 0.088001 -0.359246 -0.002563
v 0.088001 -0.359246 -0.051150
v 0.116851 -0.375903 -0.002563
v 0.059151 -0.375903 -0.051150
v 0.059151 -0.375903 -0.002563
v 0.116851 -0.375903 -0.051150
v 0.116851 -0.409216 -0.002563
v 0.116851 -0.409216 -0.051150
v 0.088001 -0.425873 -0.002563
v 0.088001 -0.425873 -0.051150
v 0.059151 -0.409216 -0.002563
v 0.059151 -0.409216 -0.051150
v 0.059151 -0.375903 -0.002563
v 0.059151 -0.375903 -0.051150
v 0.070001 0.168392 0.051150
v 0.070001 0.168392 0.002563
v 0.070001 0.250040 0.051150
v 0.088001 0.156145 0.051150
v 0.070001 0.250040 0.002563
v 0.088001 0.156145 0.002563
v 0.088001 0.262287 0.051150
v 0.106001 0.168392 0.051150
v 0.088001 0.262287 0.002563
v 0.106001 0.168392 0.002563
v 0.106001 0.250040 0.051150
v 0.106001 0.250040 0.002563
v 0.070001 0.168392 -0.002563
v 0.070001 0.250040 -0.051150
v 0.070001 0.250040 -0.002563
v 0.088001 0.262287 -0.051150
v 0.070001 0.168392 -0.051150
v 0.088001 0.262287 -0.002563
v 0.088001 0.156145 -0.051150
v 0.106001 0.250040 -0.051150
v 0.088001 0.156145 -0.002563
v 0.106001 0.250040 -0.002563
v 0.106001 0.168392 -0.051150
v 0.106001 0.168392 -0.002563
v 0.088001 0.382159 0.002563
v 0.116851 0.352772 0.002563
v 0.088001 0.369429 0.002563
v 0.059151 0.352772 0.002563
v 0.130850 0.356862 0.002563
v 0.043984 0.356035 0.002563
v 0.130895 0.317142 0.002563
v 0.043984 0.318752 0.002563
v 0.116851 0.319459 0.002563
v 0.059151 0.319459 0.002563
v 0.117978 0.298628 0.002563
v 0.058022 0.298628 0.002563
v 0.088001 0.302802 0.002563
v 0.088001 0.262287 0.002563
v 0.106001 0.250040 0.002563
v 0.070001 0.250040 0.002563
v 0.106001 0.168392 0.002563
v 0.070001 0.168392 0.002563
v 0.117978 0.116337 0.002563
v 0.058022 0.111440 0.002563
v 0.088001 0.156145 0.002563
v 0.067812 0.108083 0.002563
v 0.107979 0.100718 0.002563
v 0.090623 0.080180 0.002563
v 0.090623 0.051272 0.002563
v 0.101974 -0.060049 0.002563
v 0.076432 0.027915 0.002563
v 0.107979 -0.078763 0.002563
v 0.077411 -0.086757 0.002563
v 0.118070 -0.097167 0.002563
v 0.088001 -0.144968 0.002563
v 0.056122 -0.086745 0.002563
v 0.106001 -0.162464 0.002563
v 0.070001 -0.162464 0.002563
v 0.106001 -0.279104 0.002563
v 0.070001 -0.279104 0.002563
v 0.118202 -0.358829 0.002563
v 0.056122 -0.360325 0.002563
v 0.088001 -0.296600 0.002563
v 0.088001 -0.359246 0.002563
v 0.116851 -0.375903 0.002563
v 0.059151 -0.375903 0.002563
v 0.132842 -0.373538 0.002563
v 0.043160 -0.372590 0.002563
v 0.132842 -0.397753 0.002563
v 0.043160 -0.397753 0.002563
v 0.116851 -0.409216 0.002563
v 0.059151 -0.409216 0.002563
v 0.097434 -0.443601 0.002563
v 0.078568 -0.443601 0.002563
v 0.088001 -0.425873 0.002563
v 0.116851 0.352772 -0.002563
v 0.088001 0.382159 -0.002563
v 0.088001 0.369429 -0.002563
v 0.059151 0.352772 -0.002563
v 0.130850 0.356862 -0.002563
v 0.043984 0.356035 -0.002563
v 0.130895 0.317142 -0.002563
v 0.043984 0.318752 -0.002563
v 0.116851 0.319459 -0.002563
v 0.059151 0.319459 -0.002563
v 0.117978 0.298628 -0.002563
v 0.058022 0.298628 -0.002563
v 0.088001 0.302802 -0.002563
v 0.088001 0.262287 -0.002563
v 0.106001 0.250040 -0.002563
v 0.070001 0.250040 -0.002563
v 0.106001 0.168392 -0.002563
v 0.070001 0.168392 -0.002563
v 0.117978 0.116337 -0.002563
v 0.058022 0.111440 -0.002563
v 0.088001 0.156145 -0.002563
v 0.067812 0.108083 -0.002563
v 0.107979 0.100718 -0.002563
v 0.090623 0.080180 -0.002563
v 0.090623 0.051272 -0.002563
v 0.101974 -0.060049 -0.002563
v 0.076432 0.027915 -0.002563
v 0.107979 -0.078763 -0.002563
v 0.077411 -0.086757 -0.002563
v 0.118070 -0.097167 -0.002563
v 0.088001 -0.144968 -0.002563
v 0.056122 -0.086745 -0.002563
v 0.106001 -0.162464 -0.002563
v 0.070001 -0.162464 -0.002563
v 0.106001 -0.279104 -0.002563
v 0.070001 -0.279104 -0.002563
v 0.118202 -0.358829 -0.002563
v 0.056122 -0.360325 -0.002563
v 0.088001 -0.296600 -0.002563
v 0.088001 -0.359246 -0.002563
v 0.116851 -0.375903 -0.002563
v 0.059151 -0.375903 -0.002563
v 0.132842 -0.373538 -0.002563
v 0.043160 -0.372590 -0.002563
v 0.132842 -0.397753 -0.002563
v 0.043160 -0.397753 -0.002563
v 0.116851 -0.409216 -0.002563
v 0.059151 -0.409216 -0.002563
v 0.097434 -0.443601 -0.002563
v 0.078568 -0.443601 -0.002563
v 0.088001 -0.425873 -0.002563
v 0.149276 0.313430 0.014026
v 0.130850 0.356862 0.002563
v 0.148412 0.364448 0.014059
v 0.088001 0.400278 0.014283
v 0.130895 0.317142 0.002563
v 0.088001 0.382159 0.002563
v 0.135044 0.293266 0.013717
v 0.043984 0.356035 0.002563
v 0.117978 0.298628 0.002563
v 0.027587 0.364532 0.014191
v 0.117978 0.116337 0.002563
v 0.026703 0.313344 0.014163
v 0.135307 0.111266 0.014151
v 0.043984 0.318752 0.002563
v 0.125114 0.095704 0.013740
v 0.040949 0.293260 0.013734
v 0.107979 0.100718 0.002563
v 0.058022 0.298628 0.002563
v 0.107979 -0.078763 0.002563
v 0.058022 0.111440 0.002563
v 0.125106 -0.073856 0.013650
v 0.042207 0.100263 0.014030
v 0.118070 -0.097167 0.002563
v 0.057521 0.093479 0.013790
v 0.135277 -0.089286 0.014085
v 0.067812 0.108083 0.002563
v 0.134611 -0.350527 0.013417
v 0.073717 0.074152 0.013646
v 0.118202 -0.358829 0.002563
v 0.090623 0.080180 0.002563
v 0.132842 -0.373538 0.002563
v 0.090623 0.051272 0.002563
v 0.149673 -0.364296 0.014021
v 0.073436 0.056076 0.013774
v 0.150036 -0.403619 0.014162
v 0.076432 0.027915 0.002563
v 0.132842 -0.397753 0.002563
v 0.058167 0.030308 0.014143
v 0.097434 -0.443601 0.002563
v 0.084173 -0.056199 0.013373
v 0.105614 -0.460278 0.014133
v 0.101974 -0.060049 0.002563
v 0.078568 -0.443601 0.002563
v 0.077411 -0.086757 0.002563
v 0.070387 -0.460278 0.014133
v 0.070790 -0.069883 0.013596
v 0.025966 -0.403619 0.014162
v 0.056122 -0.086745 0.002563
v 0.043160 -0.397753 0.002563
v 0.043410 -0.071774 0.014042
v 0.043160 -0.372590 0.002563
v 0.041167 -0.350593 0.013828
v 0.026311 -0.364301 0.014064
v 0.056122 -0.360325 0.002563
v 0.130850 0.356862 -0.002563
v 0.149276 0.313430 -0.014026
v 0.148412 0.364448 -0.014059
v 0.088001 0.400278 -0.014283
v 0.130895 0.317142 -0.002563
v 0.088001 0.382159 -0.002563
v 0.135044 0.293266 -0.013717
v 0.043984 0.356035 -0.002563
v 0.117978 0.298628 -0.002563
v 0.027587 0.364532 -0.014191
v 0.117978 0.116337 -0.002563
v 0.026703 0.313344 -0.014163
v 0.135307 0.111266 -0.014151
v 0.043984 0.318752 -0.002563
v 0.125114 0.095704 -0.013740
v 0.040949 0.293260 -0.013734
v 0.107979 0.100718 -0.002563
v 0.058022 0.298628 -0.002563
v 0.107979 -0.078763 -0.002563
v 0.058022 0.111440 -0.002563
v 0.125106 -0.073856 -0.013650
v 0.042207 0.100263 -0.014030
v 0.118070 -0.097167 -0.002563
v 0.057521 0.093479 -0.013790
v 0.135277 -0.089286 -0.014085
v 0.067812 0.108083 -0.002563
v 0.134611 -0.350527 -0.013417
v 0.073717 0.074152 -0.013646
v 0.118202 -0.358829 -0.002563
v 0.090623 0.080180 -0.002563
v 0.132842 -0.373538 -0.002563
v 0.090623 0.051272 -0.002563
v 0.149673 -0.364296 -0.014021
v 0.073436 0.056076 -0.013774
v 0.150036 -0.403619 -0.014162
v 0.076432 0.027915 -0.002563
v 0.132842 -0.397753 -0.002563
v 0.058167 0.030308 -0.014143
v 0.097434 -0.443601 -0.002563
v 0.084173 -0.056199 -0.013373
v 0.105614 -0.460278 -0.014133
v 0.101974 -0.060049 -0.002563
v 0.078568 -0.443601 -0.002563
v 0.077411 -0.086757 -0.002563
v 0.070387 -0.460278 -0.014133
v 0.070790 -0.069883 -0.013596
v 0.025966 -0.403619 -0.014162
v 0.056122 -0.086745 -0.002563
v 0.043160 -0.397753 -0.002563
v 0.043410 -0.071774 -0.014042
v 0.043160 -0.372590 -0.002563
v 0.041167 -0.350593 -0.013828
v 0.026311 -0.364301 -0.014064
v 0.056122 -0.360325 -0.002563
vn -0.0005 0.0005 1.0000
vn -0.0000 -0.0000 1.0000
vn -0.0005 0.0005 -1.0000
vn -0.0000 -0.0000 -1.0000
vn -0.4529 0.2761 0.8478
vn -0.5187 -0.1549 0.8408
vn -0.5184 -0.1549 0.8410
vn -0.4595 0.2632 0.8483
vn -0.5173 -0.1597 0.8408
vn -0.0005 0.5410 0.8410
vn -0.5174 -0.1588 0.8409
vn -0.4109 -0.2721 0.8701
vn 0.4333 0.2838 0.8554
vn -0.4069 -0.2780 0.8701
vn 0.4488 0.2496 0.8580
vn -0.3229 -0.4332 0.8415
vn 0.5055 -0.1442 0.8507
vn -0.3228 -0.4332 0.8415
vn 0.5006 -0.1626 0.8503
vn -0.4940 -0.1759 0.8515
vn 0.5088 -0.1589 0.8461
vn -0.4939 -0.1764 0.8514
vn 0.5096 -0.1578 0.8458
vn -0.5182 0.1421 0.8434
vn 0.5153 -0.1480 0.8441
vn -0.5180 0.1431 0.8433
vn 0.5153 -0.1460 0.8445
vn -0.5222 0.0640 0.8504
vn 0.5114 -0.1480 0.8465
vn -0.5222 0.0650 0.8504
vn 0.5115 -0.1470 0.8466
vn -0.4955 0.1216 0.8600
vn 0.5065 0.1363 0.8514
vn -0.4973 0.1149 0.8599
vn 0.5066 0.1344 0.8516
vn -0.2212 0.4879 0.8444
vn 0.5163 0.1226 0.8476
vn -0.2311 0.4831 0.8445
vn 0.5075 0.1451 0.8494
vn -0.3736 0.3033 0.8766
vn 0.4764 0.1861 0.8593
vn -0.3345 0.3384 0.8795
vn 0.4692 0.1998 0.8602
vn -0.5282 0.1911 0.8273
vn 0.4821 0.1812 0.8572
vn -0.5045 0.2281 0.8327
vn 0.4732 0.1997 0.8580
vn -0.4824 0.1990 0.8530
vn 0.5116 -0.1764 0.8409
vn -0.4781 0.2085 0.8532
vn 0.5117 -0.1755 0.8411
vn -0.5124 -0.1753 0.8407
vn 0.2301 -0.4733 0.8503
vn 0.2310 -0.4733 0.8501
vn -0.2301 -0.4733 0.8503
vn -0.2310 -0.4732 0.8502
vn -0.5187 -0.1549 -0.8408
vn -0.4530 0.2761 -0.8477
vn -0.5184 -0.1549 -0.8410
vn -0.4595 0.2632 -0.8483
vn -0.5174 -0.1597 -0.8407
vn -0.0005 0.5411 -0.8410
vn -0.5174 -0.1588 -0.8409
vn -0.0005 0.5410 -0.8410
vn -0.4109 -0.2721 -0.8701
vn 0.4334 0.2839 -0.8554
vn -0.4069 -0.2780 -0.8701
vn 0.4488 0.2496 -0.8581
vn -0.3229 -0.4332 -0.8415
vn 0.5055 -0.1442 -0.8507
vn -0.3228 -0.4332 -0.8415
vn 0.5006 -0.1626 -0.8503
vn -0.4940 -0.1759 -0.8515
vn 0.5088 -0.1588 -0.8461
vn -0.4939 -0.1764 -0.8515
vn 0.5096 -0.1578 -0.8458
vn -0.5182 0.1421 -0.8434
vn 0.5153 -0.1480 -0.8441
vn -0.5180 0.1431 -0.8433
vn 0.5153 -0.1460 -0.8445
vn -0.5222 0.0640 -0.8504
vn 0.5114 -0.1480 -0.8465
vn -0.5222 0.0650 -0.8504
vn 0.5115 -0.1470 -0.8466
vn -0.4955 0.1216 -0.8601
vn 0.5065 0.1363 -0.8514
vn -0.4973 0.1149 -0.8599
vn 0.5066 0.1344 -0.8516
vn -0.2212 0.4879 -0.8444
vn 0.5163 0.1226 -0.8476
vn -0.2311 0.4831 -0.8445
vn 0.5075 0.1451 -0.8494
vn -0.3736 0.3033 -0.8766
vn 0.4763 0.1861 -0.8594
vn -0.3345 0.3384 -0.8795
vn 0.4693 0.1998 -0.8601
vn -0.5282 0.1911 -0.8273
vn 0.4823 0.1812 -0.8571
vn -0.5045 0.2281 -0.8327
vn 0.4732 0.1998 -0.8580
vn -0.4824 0.1990 -0.8530
vn 0.5116 -0.1764 -0.8409
vn -0.4781 0.2085 -0.8532
vn 0.5117 -0.1754 -0.8411
vn -0.5123 -0.1753 -0.8407
vn 0.2301 -0.4734 -0.8503
vn -0.5124 -0.1753 -0.8407
vn 0.2310 -0.4732 -0.8501
vn -0.2301 -0.4733 -0.8503
vn -0.2310 -0.4732 -0.8501
vn 0.9553 -0.2956 -0.0003
vn 0.8651 0.5017 -0.0005
vn 0.9553 -0.2957 -0.0003
vn 0.9538 -0.3004 -0.0004
vn 0.9538 -0.3005 -0.0004
vn 0.0005 1.0000 -0.0005
vn 0.9580 -0.2868 -0.0003
vn 0.9579 -0.2870 -0.0000
vn -0.8645 0.5026 -0.0000
vn 0.9589 -0.2838 -0.0006
vn -0.8645 0.5027 -0.0003
vn 0.9589 -0.2838 -0.0003
vn -0.9548 -0.2973 -0.0003
vn 0.9586 0.2848 -0.0004
vn 0.9585 0.2852 -0.0000
vn -0.9522 -0.3054 -0.0005
vn 0.9576 0.2880 -0.0000
vn -0.9522 -0.3054 -0.0006
vn 0.9577 0.2877 -0.0005
vn -0.8348 -0.5505 -0.0003
vn 0.9171 0.3986 -0.0000
vn -0.8350 -0.5503 -0.0000
vn 0.9172 0.3984 -0.0004
vn -0.6025 -0.7981 -0.0000
vn 0.9113 0.4117 -0.0000
vn -0.9424 -0.3346 -0.0000
vn 0.9468 -0.3217 -0.0003
vn 0.9468 -0.3218 -0.0005
vn -0.9628 0.2701 -0.0006
vn 0.4375 -0.8992 -0.0000
vn -0.9628 0.2701 -0.0008
vn 0.4374 -0.8993 -0.0003
vn -0.9926 0.1217 -0.0000
vn -0.4372 -0.8994 -0.0006
vn -0.9926 0.1217 -0.0003
vn -0.4373 -0.8993 -0.0004
vn -0.9713 0.2380 -0.0003
vn -0.9467 -0.3220 -0.0000
vn -0.9712 0.2382 -0.0000
vn -0.9467 -0.3221 -0.0005
vn -0.4226 0.9063 -0.0007
vn -0.9134 0.4071 -0.0007
vn -0.4227 0.9063 -0.0006
vn -0.9134 0.4071 -0.0006
vn -0.7252 0.6886 -0.0000
vn -0.9152 0.4031 -0.0005
vn -0.7252 0.6885 -0.0000
vn -0.9150 0.4035 -0.0000
vn 0.9553 -0.2956 -0.0005
vn 0.9553 -0.2957 -0.0000
vn 0.9538 -0.3003 -0.0005
vn 0.8651 0.5016 -0.0000
vn 0.9538 -0.3005 -0.0003
vn -0.8644 0.5027 -0.0003
vn 0.9589 -0.2838 -0.0000
vn -0.9548 -0.2974 -0.0005
vn 0.9586 0.2846 -0.0006
vn -0.9548 -0.2974 -0.0004
vn 0.9586 0.2849 -0.0002
vn 0.9577 0.2876 -0.0006
vn -0.9523 -0.3052 -0.0000
vn 0.9577 0.2877 -0.0004
vn -0.8349 -0.5503 -0.0000
vn 0.9172 0.3984 -0.0003
vn -0.8348 -0.5506 -0.0007
vn 0.9113 0.4118 -0.0003
vn 0.9112 0.4119 -0.0005
vn -0.9628 0.2701 -0.0003
vn 0.4373 -0.8993 -0.0004
vn -0.9467 -0.3221 -0.0004
vn -0.4226 0.9063 -0.0004
vn -0.4226 0.9063 -0.0006
vn -0.9134 0.4070 -0.0003
vn -0.7254 0.6883 -0.0004
vn -0.0005 -1.0000 -0.0005
vn -0.8661 -0.4998 -0.0004
vn -0.8662 -0.4997 -0.0005
vn 0.8660 -0.5000 -0.0000
vn -0.8660 0.5000 -0.0000
vn 0.8661 -0.4999 -0.0003
vn 0.8661 0.4999 -0.0003
vn -0.0005 1.0000 -0.0005
vn 0.8663 0.4996 -0.0006
vn -0.8660 -0.5000 -0.0000
vn 0.4999 -0.8661 -0.0003
vn 0.5000 -0.8660 -0.0000
vn 0.8660 0.5000 -0.0000
vn 1.0000 0.0005 -0.0005
vn -0.8661 -0.4999 -0.0003
vn 0.9211 0.3894 -0.0003
vn 0.9211 -0.3894 -0.0003
vn 0.9211 -0.3892 -0.0000
vn -0.9211 0.3892 -0.0000
vn -0.9210 0.3895 -0.0004
vn -0.9211 -0.3894 -0.0003
vn -0.9210 -0.3894 -0.0004
vn -0.9211 0.3894 -0.0003
vn 0.8839 0.4676 -0.0005
vn 0.8839 -0.4677 -0.0000
vn -0.8839 0.4676 -0.0003
vn -0.8839 0.4677 -0.0000
vn -0.8839 -0.4676 -0.0005
vn -0.8839 -0.4677 -0.0000
vn 0.5056 -0.1442 -0.8506
vn 0.4333 0.2838 -0.8554
vn -0.4529 0.2761 -0.8477
vn -0.5186 -0.1549 -0.8409
vn 0.5115 -0.1480 -0.8465
vn -0.5173 -0.1597 -0.8408
vn 0.5066 0.1363 -0.8514
vn 0.5065 0.1344 -0.8517
vn -0.4070 -0.2780 -0.8701
vn 0.5165 0.1226 -0.8474
vn 0.4764 0.1861 -0.8593
vn 0.4693 0.1998 -0.8602
vn -0.4938 -0.1764 -0.8515
vn 0.4821 0.1812 -0.8572
vn -0.5181 0.1421 -0.8434
vn -0.5181 0.1431 -0.8433
vn 0.2301 -0.4733 -0.8503
vn -0.2300 -0.4733 -0.8503
vn -0.5124 -0.1754 -0.8407
vn -0.4780 0.2085 -0.8533
vn 0.5056 -0.1442 0.8506
vn 0.4488 0.2496 0.8581
vn 0.5088 -0.1588 0.8461
vn -0.5186 -0.1549 0.8409
vn 0.5115 -0.1480 0.8464
vn -0.4070 -0.2780 0.8701
vn 0.5165 0.1226 0.8474
vn 0.4693 0.1998 0.8602
vn -0.4938 -0.1763 0.8515
vn 0.4822 0.1813 0.8571
vn -0.5181 0.1421 0.8434
vn 0.4733 0.2001 0.8579
vn -0.5181 0.1431 0.8433
vn 0.5116 -0.1763 0.8409
vn 0.5117 -0.1754 0.8411
vn 0.2310 -0.4732 0.8501
vn -0.2300 -0.4733 0.8503
vn -0.2310 -0.4732 0.8501
vn -0.5124 -0.1754 0.8406
vn -0.5123 -0.1754 0.8407
vn -0.4780 0.2085 0.8533
vt 0.000000 0.000000
s 1
f 1/1/1 2/1/1 3/1/1
f 3/1/1 4/1/1 1/1/1
f 2/1/1 1/1/1 5/1/1
f 1/1/1 4/1/1 6/1/1
f 4/1/1 7/1/1 6/1/1
f 7/1/1 4/1/1 8/1/1
f 9/1/1 7/1/1 8/1/1
f 7/1/1 9/1/1 10/1/1
f 11/1/2 2/1/1 5/1/1
f 10/1/1 9/1/1 12/1/2
f 13/1/1 11/1/2 5/1/1
f 10/1/1 12/1/2 13/1/1
f 14/1/1 11/1/2 13/1/1
f 14/1/1 13/1/1 12/1/2
f 11/1/2 14/1/1 15/1/1
f 14/1/1 12/1/2 16/1/1
f 17/1/1 11/1/2 15/1/1
f 12/1/2 18/1/1 16/1/1
f 11/1/2 17/1/1 19/1/1
f 18/1/1 12/1/2 20/1/1
f 20/1/1 21/1/1 18/1/1
f 21/1/1 19/1/1 17/1/1
f 22/1/1 21/1/1 20/1/1
f 22/1/1 19/1/1 21/1/1
f 19/1/1 22/1/1 23/1/2
f 23/1/2 22/1/1 24/1/1
f 25/1/1 23/1/2 24/1/1
f 26/1/1 23/1/2 25/1/1
f 25/1/1 27/1/1 26/1/1
f 23/1/2 26/1/1 28/1/1
f 26/1/1 29/1/1 28/1/1
f 29/1/1 30/1/2 28/1/1
f 30/1/2 29/1/1 31/1/1
f 32/1/1 31/1/1 29/1/1
f 30/1/2 31/1/1 33/1/1
f 31/1/1 32/1/1 34/1/1
f 35/1/1 30/1/2 33/1/1
f 32/1/1 36/1/1 34/1/1
f 30/1/2 35/1/1 37/1/1
f 32/1/1 38/1/2 36/1/1
f 38/1/2 39/1/1 36/1/1
f 40/1/2 35/1/1 39/1/1
f 40/1/2 39/1/1 38/1/2
f 35/1/1 40/1/2 37/1/1
f 41/1/1 40/1/2 38/1/2
f 37/1/1 40/1/2 42/1/1
f 41/1/1 38/1/2 43/1/1
f 42/1/1 44/1/1 37/1/1
f 45/1/1 41/1/1 43/1/1
f 42/1/1 46/1/1 44/1/1
f 47/1/1 41/1/1 45/1/1
f 46/1/1 42/1/1 48/1/1
f 45/1/1 49/1/1 47/1/1
f 50/1/1 46/1/1 48/1/1
f 49/1/1 51/1/1 47/1/1
f 51/1/1 50/1/1 48/1/1
f 50/1/1 51/1/1 49/1/1
f 52/1/3 53/1/3 54/1/3
f 55/1/3 54/1/3 53/1/3
f 53/1/3 52/1/3 56/1/3
f 55/1/3 53/1/3 57/1/3
f 58/1/3 55/1/3 57/1/3
f 55/1/3 58/1/3 59/1/3
f 58/1/3 60/1/3 59/1/3
f 60/1/3 58/1/3 61/1/3
f 62/1/4 56/1/3 52/1/3
f 60/1/3 61/1/3 63/1/4
f 56/1/3 62/1/4 64/1/3
f 64/1/3 63/1/4 61/1/3
f 62/1/4 65/1/3 64/1/3
f 65/1/3 63/1/4 64/1/3
f 65/1/3 62/1/4 66/1/3
f 63/1/4 65/1/3 67/1/3
f 62/1/4 68/1/3 66/1/3
f 69/1/3 63/1/4 67/1/3
f 62/1/4 70/1/3 68/1/3
f 63/1/4 69/1/3 71/1/3
f 72/1/3 71/1/3 69/1/3
f 70/1/3 72/1/3 68/1/3
f 71/1/3 72/1/3 73/1/3
f 70/1/3 73/1/3 72/1/3
f 73/1/3 70/1/3 74/1/4
f 73/1/3 74/1/4 75/1/3
f 76/1/3 75/1/3 74/1/4
f 74/1/4 77/1/3 76/1/3
f 77/1/3 78/1/3 76/1/3
f 77/1/3 74/1/4 79/1/3
f 79/1/3 80/1/3 77/1/3
f 79/1/3 81/1/4 80/1/3
f 82/1/3 80/1/3 81/1/4
f 80/1/3 82/1/3 83/1/3
f 82/1/3 81/1/4 84/1/3
f 82/1/3 85/1/3 83/1/3
f 81/1/4 86/1/3 84/1/3
f 87/1/3 83/1/3 85/1/3
f 86/1/3 81/1/4 88/1/3
f 89/1/4 83/1/3 87/1/3
f 90/1/3 89/1/4 87/1/3
f 86/1/3 91/1/4 90/1/3
f 89/1/4 90/1/3 91/1/4
f 91/1/4 86/1/3 88/1/3
f 91/1/4 92/1/3 89/1/4
f 89/1/4 92/1/3 93/1/3
f 91/1/4 88/1/3 94/1/3
f 92/1/3 95/1/3 93/1/3
f 88/1/3 96/1/3 94/1/3
f 92/1/3 97/1/3 95/1/3
f 98/1/3 94/1/3 96/1/3
f 99/1/3 95/1/3 97/1/3
f 94/1/3 98/1/3 100/1/3
f 101/1/3 99/1/3 97/1/3
f 98/1/3 102/1/3 100/1/3
f 99/1/3 101/1/3 102/1/3
f 101/1/3 100/1/3 102/1/3
f 103/1/5 104/1/6 105/1/7
f 104/1/6 103/1/5 106/1/8
f 107/1/9 105/1/7 104/1/6
f 108/1/10 106/1/8 103/1/5
f 105/1/7 107/1/9 109/1/11
f 108/1/10 103/1/5 110/1/10
f 111/1/12 109/1/11 107/1/9
f 112/1/13 108/1/10 110/1/10
f 107/1/9 113/1/14 111/1/12
f 108/1/10 112/1/13 114/1/15
f 115/1/16 111/1/12 113/1/14
f 112/1/13 116/1/17 114/1/15
f 111/1/12 115/1/16 117/1/18
f 116/1/17 112/1/13 118/1/19
f 119/1/20 117/1/18 115/1/16
f 116/1/17 118/1/19 120/1/21
f 117/1/18 119/1/20 121/1/22
f 120/1/21 118/1/19 122/1/23
f 119/1/20 123/1/24 121/1/22
f 124/1/25 120/1/21 122/1/23
f 123/1/24 119/1/20 125/1/26
f 120/1/21 124/1/25 126/1/27
f 123/1/24 125/1/26 127/1/28
f 128/1/29 126/1/27 124/1/25
f 127/1/28 125/1/26 129/1/30
f 124/1/25 130/1/31 128/1/29
f 131/1/32 127/1/28 129/1/30
f 132/1/33 128/1/29 130/1/31
f 127/1/28 131/1/32 133/1/34
f 128/1/29 132/1/33 134/1/35
f 135/1/36 133/1/34 131/1/32
f 136/1/37 134/1/35 132/1/33
f 135/1/36 131/1/32 137/1/38
f 134/1/35 136/1/37 138/1/39
f 139/1/40 135/1/36 137/1/38
f 136/1/37 140/1/41 138/1/39
f 137/1/38 141/1/42 139/1/40
f 136/1/37 142/1/43 140/1/41
f 143/1/44 139/1/40 141/1/42
f 144/1/45 140/1/41 142/1/43
f 139/1/40 143/1/44 145/1/46
f 140/1/41 144/1/45 146/1/47
f 147/1/48 145/1/46 143/1/44
f 148/1/49 146/1/47 144/1/45
f 147/1/48 143/1/44 149/1/50
f 144/1/45 150/1/51 148/1/49
f 151/1/52 147/1/48 149/1/50
f 152/1/53 148/1/49 150/1/51
f 147/1/48 151/1/52 153/1/52
f 148/1/49 152/1/53 154/1/54
f 151/1/52 155/1/55 153/1/52
f 155/1/55 154/1/54 152/1/53
f 155/1/55 151/1/52 156/1/56
f 154/1/54 155/1/55 156/1/56
f 157/1/57 158/1/58 159/1/59
f 158/1/58 157/1/57 160/1/60
f 159/1/59 161/1/61 157/1/57
f 162/1/62 158/1/58 160/1/60
f 161/1/61 159/1/59 163/1/63
f 164/1/64 158/1/58 162/1/62
f 165/1/65 161/1/61 163/1/63
f 162/1/62 166/1/66 164/1/64
f 167/1/67 161/1/61 165/1/65
f 166/1/66 162/1/62 168/1/68
f 165/1/65 169/1/69 167/1/67
f 168/1/68 170/1/70 166/1/66
f 169/1/69 165/1/65 171/1/71
f 166/1/66 170/1/70 172/1/72
f 171/1/71 173/1/73 169/1/69
f 174/1/74 172/1/72 170/1/70
f 173/1/73 171/1/71 175/1/75
f 172/1/72 174/1/74 176/1/76
f 177/1/77 173/1/73 175/1/75
f 174/1/74 178/1/78 176/1/76
f 173/1/73 177/1/77 179/1/79
f 178/1/78 174/1/74 180/1/80
f 181/1/81 179/1/79 177/1/77
f 178/1/78 180/1/80 182/1/82
f 179/1/79 181/1/81 183/1/83
f 184/1/84 178/1/78 182/1/82
f 181/1/81 185/1/85 183/1/83
f 182/1/82 186/1/86 184/1/84
f 185/1/85 181/1/81 187/1/87
f 186/1/86 182/1/82 188/1/88
f 189/1/89 185/1/85 187/1/87
f 188/1/88 190/1/90 186/1/86
f 185/1/85 189/1/89 191/1/91
f 190/1/90 188/1/88 192/1/92
f 189/1/89 193/1/93 191/1/91
f 192/1/92 194/1/94 190/1/90
f 193/1/93 195/1/95 191/1/91
f 196/1/96 190/1/90 194/1/94
f 193/1/93 197/1/97 195/1/95
f 194/1/94 198/1/98 196/1/96
f 197/1/97 193/1/93 199/1/99
f 198/1/98 194/1/94 200/1/100
f 197/1/97 199/1/99 201/1/101
f 202/1/102 198/1/98 200/1/100
f 203/1/103 197/1/97 201/1/101
f 202/1/102 204/1/104 198/1/98
f 201/1/101 205/1/105 203/1/103
f 202/1/102 206/1/106 204/1/104
f 205/1/105 201/1/101 207/1/107
f 206/1/106 202/1/102 208/1/108
f 209/1/109 205/1/105 207/1/107
f 208/1/108 209/1/109 206/1/106
f 205/1/105 209/1/109 210/1/110
f 209/1/109 208/1/108 210/1/110
f 211/1/111 212/1/112 213/1/113
f 213/1/113 214/1/114 211/1/111
f 215/1/112 213/1/113 212/1/112
f 214/1/114 213/1/113 216/1/115
f 217/1/116 215/1/112 212/1/112
f 216/1/115 218/1/117 214/1/114
f 215/1/112 217/1/116 219/1/116
f 216/1/115 220/1/118 218/1/117
f 221/1/119 219/1/116 217/1/116
f 222/1/120 218/1/117 220/1/118
f 219/1/116 221/1/119 223/1/121
f 218/1/117 222/1/120 224/1/122
f 221/1/119 225/1/123 223/1/121
f 222/1/120 226/1/124 224/1/122
f 225/1/123 221/1/119 227/1/123
f 222/1/120 228/1/125 226/1/124
f 229/1/126 225/1/123 227/1/123
f 228/1/125 230/1/127 226/1/124
f 225/1/123 229/1/126 231/1/128
f 228/1/125 232/1/129 230/1/127
f 233/1/130 231/1/128 229/1/126
f 232/1/129 234/1/131 230/1/127
f 231/1/128 233/1/130 235/1/132
f 232/1/129 236/1/133 234/1/131
f 237/1/134 235/1/132 233/1/130
f 238/1/135 234/1/131 236/1/133
f 237/1/134 233/1/130 239/1/134
f 234/1/131 238/1/135 240/1/135
f 239/1/134 241/1/136 237/1/134
f 242/1/137 240/1/135 238/1/135
f 241/1/136 239/1/134 243/1/136
f 240/1/135 242/1/137 244/1/138
f 241/1/136 243/1/136 245/1/139
f 242/1/137 246/1/140 244/1/138
f 247/1/141 241/1/136 245/1/139
f 246/1/140 242/1/137 248/1/142
f 245/1/139 249/1/143 247/1/141
f 248/1/142 250/1/144 246/1/140
f 249/1/143 245/1/139 251/1/145
f 248/1/142 252/1/146 250/1/144
f 251/1/145 253/1/147 249/1/143
f 252/1/146 254/1/148 250/1/144
f 255/1/149 249/1/143 253/1/147
f 256/1/150 250/1/144 254/1/148
f 257/1/151 255/1/149 253/1/147
f 254/1/148 258/1/152 256/1/150
f 255/1/149 257/1/151 259/1/153
f 258/1/152 254/1/148 260/1/154
f 257/1/151 261/1/155 259/1/153
f 260/1/154 262/1/156 258/1/152
f 261/1/155 257/1/151 263/1/157
f 262/1/156 264/1/158 258/1/152
f 264/1/158 261/1/155 263/1/157
f 261/1/155 264/1/158 262/1/156
f 265/1/112 266/1/159 267/1/160
f 268/1/161 267/1/160 266/1/159
f 265/1/112 267/1/160 269/1/162
f 267/1/160 268/1/161 270/1/163
f 269/1/162 271/1/116 265/1/112
f 268/1/161 272/1/117 270/1/163
f 271/1/116 269/1/162 273/1/116
f 274/1/117 270/1/163 272/1/117
f 273/1/116 275/1/119 271/1/116
f 272/1/117 276/1/122 274/1/117
f 275/1/119 273/1/116 277/1/164
f 276/1/122 272/1/117 278/1/165
f 279/1/166 275/1/119 277/1/164
f 278/1/165 280/1/167 276/1/122
f 275/1/119 279/1/166 281/1/168
f 282/1/169 276/1/122 280/1/167
f 279/1/166 283/1/126 281/1/168
f 280/1/167 284/1/170 282/1/169
f 283/1/126 279/1/166 285/1/171
f 284/1/170 286/1/172 282/1/169
f 285/1/171 287/1/173 283/1/126
f 284/1/170 288/1/174 286/1/172
f 287/1/173 285/1/171 289/1/175
f 290/1/131 286/1/172 288/1/174
f 287/1/173 289/1/175 291/1/134
f 288/1/174 292/1/176 290/1/131
f 293/1/134 287/1/173 291/1/134
f 292/1/176 288/1/174 294/1/177
f 295/1/136 293/1/134 291/1/134
f 294/1/177 296/1/137 292/1/176
f 293/1/134 295/1/136 297/1/136
f 296/1/137 294/1/177 298/1/138
f 299/1/178 297/1/136 295/1/136
f 300/1/142 296/1/137 298/1/138
f 299/1/178 295/1/136 301/1/178
f 296/1/137 300/1/142 302/1/179
f 303/1/143 299/1/178 301/1/178
f 300/1/142 304/1/144 302/1/179
f 299/1/178 303/1/143 305/1/145
f 304/1/144 306/1/146 302/1/179
f 307/1/147 305/1/145 303/1/143
f 304/1/144 308/1/148 306/1/146
f 307/1/147 303/1/143 309/1/149
f 304/1/144 310/1/180 308/1/148
f 307/1/147 309/1/149 311/1/181
f 312/1/152 308/1/148 310/1/180
f 311/1/181 309/1/149 313/1/182
f 308/1/148 312/1/152 314/1/183
f 315/1/184 311/1/181 313/1/182
f 312/1/152 316/1/156 314/1/183
f 311/1/181 315/1/184 317/1/157
f 318/1/158 316/1/156 312/1/152
f 318/1/158 315/1/184 316/1/156
f 315/1/184 318/1/158 317/1/157
f 319/1/185 320/1/185 321/1/186
f 321/1/186 320/1/185 322/1/187
f 319/1/185 323/1/188 320/1/185
f 321/1/186 322/1/187 324/1/189
f 325/1/190 323/1/188 319/1/185
f 326/1/189 321/1/186 324/1/189
f 325/1/190 327/1/191 323/1/188
f 328/1/192 326/1/189 324/1/189
f 329/1/193 327/1/191 325/1/190
f 326/1/189 328/1/192 330/1/192
f 330/1/192 327/1/191 329/1/193
f 327/1/191 330/1/192 328/1/192
f 331/1/185 332/1/194 333/1/194
f 333/1/194 332/1/194 334/1/189
f 332/1/194 331/1/185 335/1/185
f 331/1/185 336/1/195 335/1/185
f 336/1/195 337/1/196 335/1/185
f 338/1/189 333/1/194 334/1/189
f 339/1/192 338/1/189 334/1/189
f 338/1/189 339/1/192 340/1/192
f 341/1/197 340/1/192 339/1/192
f 340/1/192 341/1/197 342/1/197
f 343/1/198 342/1/197 341/1/197
f 342/1/197 343/1/198 344/1/198
f 345/1/185 346/1/199 347/1/187
f 348/1/189 347/1/187 346/1/199
f 346/1/199 345/1/185 349/1/185
f 348/1/189 346/1/199 350/1/189
f 351/1/188 349/1/185 345/1/185
f 350/1/189 352/1/192 348/1/189
f 349/1/185 351/1/188 353/1/190
f 352/1/192 350/1/189 354/1/192
f 355/1/191 353/1/190 351/1/188
f 354/1/192 355/1/191 352/1/192
f 353/1/190 355/1/191 356/1/193
f 355/1/191 354/1/192 356/1/193
f 357/1/200 358/1/201 359/1/200
f 360/1/192 357/1/200 359/1/200
f 358/1/201 357/1/200 361/1/202
f 357/1/200 360/1/192 362/1/192
f 358/1/201 361/1/202 363/1/185
f 364/1/203 362/1/192 360/1/192
f 363/1/185 361/1/202 365/1/185
f 362/1/192 364/1/203 366/1/204
f 363/1/185 365/1/185 367/1/205
f 367/1/205 366/1/204 364/1/203
f 367/1/205 365/1/185 368/1/206
f 366/1/204 367/1/205 368/1/206
f 369/1/200 370/1/202 371/1/202
f 372/1/185 371/1/202 370/1/202
f 370/1/202 369/1/200 373/1/200
f 371/1/202 372/1/185 374/1/185
f 369/1/200 375/1/192 373/1/200
f 376/1/205 374/1/185 372/1/185
f 377/1/192 375/1/192 369/1/200
f 374/1/185 376/1/205 378/1/206
f 377/1/192 379/1/203 375/1/192
f 380/1/207 378/1/206 376/1/205
f 380/1/207 379/1/203 377/1/192
f 380/1/207 376/1/205 379/1/203
f 381/1/185 382/1/185 383/1/194
f 381/1/185 384/1/195 382/1/185
f 381/1/185 385/1/196 384/1/195
f 383/1/194 382/1/185 386/1/194
f 387/1/189 383/1/194 386/1/194
f 387/1/189 386/1/194 388/1/189
f 388/1/189 389/1/192 387/1/189
f 389/1/192 388/1/189 390/1/192
f 390/1/192 391/1/197 389/1/192
f 391/1/197 390/1/192 392/1/197
f 391/1/197 392/1/197 393/1/198
f 393/1/198 392/1/197 394/1/198
f 395/1/208 396/1/208 397/1/209
f 398/1/192 396/1/208 395/1/208
f 397/1/209 396/1/208 399/1/209
f 396/1/208 398/1/192 400/1/192
f 397/1/209 399/1/209 401/1/185
f 402/1/210 400/1/192 398/1/192
f 401/1/185 399/1/209 403/1/185
f 400/1/192 402/1/210 404/1/211
f 401/1/185 403/1/185 405/1/212
f 405/1/212 404/1/211 402/1/210
f 405/1/212 403/1/185 406/1/213
f 404/1/211 405/1/212 406/1/213
f 407/1/208 408/1/209 409/1/209
f 410/1/185 409/1/209 408/1/209
f 408/1/209 407/1/208 411/1/208
f 409/1/209 410/1/185 412/1/185
f 407/1/208 413/1/192 411/1/208
f 414/1/212 412/1/185 410/1/185
f 415/1/192 413/1/192 407/1/208
f 412/1/185 414/1/212 416/1/213
f 415/1/192 417/1/210 413/1/192
f 414/1/212 418/1/211 416/1/213
f 418/1/211 417/1/210 415/1/192
f 418/1/211 414/1/212 417/1/210
f 419/1/3 420/1/3 421/1/3
f 422/1/3 419/1/3 421/1/3
f 420/1/3 419/1/3 423/1/3
f 419/1/3 422/1/3 424/1/3
f 425/1/3 420/1/3 423/1/3
f 422/1/3 426/1/3 424/1/3
f 420/1/3 425/1/3 427/1/3
f 428/1/3 426/1/3 422/1/3
f 427/1/3 425/1/3 429/1/4
f 426/1/3 428/1/3 430/1/4
f 429/1/4 431/1/3 427/1/3
f 430/1/4 428/1/3 431/1/3
f 431/1/3 429/1/4 432/1/3
f 431/1/3 432/1/3 430/1/4
f 432/1/3 429/1/4 433/1/3
f 430/1/4 432/1/3 434/1/3
f 429/1/4 435/1/3 433/1/3
f 436/1/3 430/1/4 434/1/3
f 435/1/3 429/1/4 437/1/3
f 430/1/4 436/1/3 438/1/3
f 439/1/3 438/1/3 436/1/3
f 437/1/3 439/1/3 435/1/3
f 438/1/3 439/1/3 440/1/3
f 440/1/3 439/1/3 437/1/3
f 440/1/3 437/1/3 441/1/4
f 440/1/3 441/1/4 442/1/3
f 441/1/4 443/1/3 442/1/3
f 441/1/4 444/1/3 443/1/3
f 444/1/3 445/1/3 443/1/3
f 444/1/3 441/1/4 446/1/3
f 446/1/3 447/1/3 444/1/3
f 448/1/4 447/1/3 446/1/3
f 447/1/3 448/1/4 449/1/3
f 449/1/3 450/1/3 447/1/3
f 449/1/3 448/1/4 451/1/3
f 450/1/3 449/1/3 452/1/3
f 453/1/3 451/1/3 448/1/4
f 454/1/3 450/1/3 452/1/3
f 448/1/4 455/1/4 453/1/3
f 450/1/3 454/1/3 456/1/4
f 455/1/4 457/1/3 453/1/3
f 457/1/3 456/1/4 454/1/3
f 457/1/3 455/1/4 458/1/3
f 456/1/4 457/1/3 458/1/3
f 458/1/3 455/1/4 459/1/3
f 456/1/4 458/1/3 460/1/3
f 455/1/4 461/1/3 459/1/3
f 460/1/3 462/1/3 456/1/4
f 463/1/3 459/1/3 461/1/3
f 460/1/3 464/1/3 462/1/3
f 465/1/3 459/1/3 463/1/3
f 464/1/3 460/1/3 466/1/3
f 463/1/3 467/1/3 465/1/3
f 468/1/3 464/1/3 466/1/3
f 467/1/3 469/1/3 465/1/3
f 469/1/3 468/1/3 466/1/3
f 468/1/3 469/1/3 467/1/3
f 470/1/1 471/1/1 472/1/1
f 471/1/1 473/1/1 472/1/1
f 471/1/1 470/1/1 474/1/1
f 471/1/1 475/1/1 473/1/1
f 470/1/1 476/1/1 474/1/1
f 477/1/1 473/1/1 475/1/1
f 476/1/1 470/1/1 478/1/1
f 473/1/1 477/1/1 479/1/1
f 478/1/1 480/1/2 476/1/1
f 479/1/1 477/1/1 481/1/2
f 480/1/2 478/1/1 482/1/1
f 481/1/2 482/1/1 479/1/1
f 483/1/1 480/1/2 482/1/1
f 481/1/2 483/1/1 482/1/1
f 480/1/2 483/1/1 484/1/1
f 483/1/1 481/1/2 485/1/1
f 486/1/1 480/1/2 484/1/1
f 481/1/2 487/1/1 485/1/1
f 480/1/2 486/1/1 488/1/1
f 487/1/1 481/1/2 489/1/1
f 489/1/1 490/1/1 487/1/1
f 490/1/1 488/1/1 486/1/1
f 490/1/1 489/1/1 491/1/1
f 491/1/1 488/1/1 490/1/1
f 488/1/1 491/1/1 492/1/2
f 492/1/2 491/1/1 493/1/1
f 492/1/2 493/1/1 494/1/1
f 495/1/1 492/1/2 494/1/1
f 496/1/1 495/1/1 494/1/1
f 492/1/2 495/1/1 497/1/1
f 495/1/1 498/1/1 497/1/1
f 498/1/1 499/1/2 497/1/1
f 499/1/2 498/1/1 500/1/1
f 501/1/1 500/1/1 498/1/1
f 499/1/2 500/1/1 502/1/1
f 500/1/1 501/1/1 503/1/1
f 504/1/1 499/1/2 502/1/1
f 501/1/1 505/1/1 503/1/1
f 499/1/2 504/1/1 506/1/2
f 505/1/1 501/1/1 507/1/2
f 508/1/1 506/1/2 504/1/1
f 507/1/2 508/1/1 505/1/1
f 509/1/1 506/1/2 508/1/1
f 508/1/1 507/1/2 509/1/1
f 506/1/2 509/1/1 510/1/1
f 511/1/1 509/1/1 507/1/2
f 506/1/2 510/1/1 512/1/1
f 513/1/1 511/1/1 507/1/2
f 512/1/1 510/1/1 514/1/1
f 515/1/1 511/1/1 513/1/1
f 510/1/1 516/1/1 514/1/1
f 511/1/1 515/1/1 517/1/1
f 518/1/1 514/1/1 516/1/1
f 515/1/1 519/1/1 517/1/1
f 520/1/1 518/1/1 516/1/1
f 518/1/1 520/1/1 519/1/1
f 517/1/1 519/1/1 520/1/1
f 521/1/214 522/1/215 523/1/68
f 524/1/62 523/1/68 522/1/215
f 522/1/215 521/1/214 525/1/72
f 524/1/62 522/1/215 526/1/64
f 527/1/74 525/1/72 521/1/214
f 528/1/216 524/1/62 526/1/64
f 525/1/72 527/1/74 529/1/76
f 524/1/62 528/1/216 530/1/60
f 531/1/78 529/1/76 527/1/74
f 532/1/217 530/1/60 528/1/216
f 531/1/78 527/1/74 533/1/80
f 528/1/216 534/1/59 532/1/217
f 535/1/218 531/1/78 533/1/80
f 536/1/219 532/1/217 534/1/59
f 531/1/78 535/1/218 537/1/84
f 534/1/59 538/1/63 536/1/219
f 535/1/218 539/1/220 537/1/84
f 540/1/65 536/1/219 538/1/63
f 539/1/220 535/1/218 541/1/221
f 536/1/219 540/1/65 542/1/222
f 543/1/223 539/1/220 541/1/221
f 542/1/222 540/1/65 544/1/69
f 541/1/221 545/1/92 543/1/223
f 540/1/65 546/1/71 544/1/69
f 547/1/224 543/1/223 545/1/92
f 546/1/71 548/1/73 544/1/69
f 543/1/223 547/1/224 549/1/225
f 546/1/71 550/1/226 548/1/73
f 547/1/224 551/1/227 549/1/225
f 552/1/228 548/1/73 550/1/226
f 553/1/100 551/1/227 547/1/224
f 548/1/73 552/1/228 554/1/229
f 555/1/102 551/1/227 553/1/100
f 556/1/81 554/1/229 552/1/228
f 551/1/227 555/1/102 557/1/104
f 554/1/229 556/1/81 558/1/83
f 559/1/230 557/1/104 555/1/102
f 556/1/81 560/1/85 558/1/83
f 555/1/102 561/1/108 559/1/230
f 560/1/85 556/1/81 562/1/87
f 561/1/108 563/1/231 559/1/230
f 564/1/89 560/1/85 562/1/87
f 561/1/108 565/1/110 563/1/231
f 560/1/85 564/1/89 566/1/91
f 567/1/105 563/1/231 565/1/110
f 568/1/93 566/1/91 564/1/89
f 563/1/231 567/1/105 569/1/232
f 566/1/91 568/1/93 570/1/95
f 567/1/105 571/1/101 569/1/232
f 572/1/97 570/1/95 568/1/93
f 567/1/105 573/1/233 571/1/101
f 572/1/97 571/1/101 573/1/233
f 571/1/101 572/1/97 574/1/99
f 568/1/93 574/1/99 572/1/97
f 575/1/13 576/1/234 577/1/235
f 577/1/235 578/1/10 575/1/13
f 576/1/234 575/1/13 579/1/19
f 575/1/13 578/1/10 580/1/10
f 579/1/19 581/1/236 576/1/234
f 578/1/10 582/1/5 580/1/10
f 581/1/236 579/1/19 583/1/23
f 582/1/5 578/1/10 584/1/8
f 583/1/23 585/1/25 581/1/236
f 584/1/8 586/1/237 582/1/5
f 581/1/236 585/1/25 587/1/27
f 582/1/5 586/1/237 588/1/7
f 585/1/25 589/1/238 587/1/27
f 586/1/237 590/1/9 588/1/7
f 589/1/238 585/1/25 591/1/31
f 590/1/9 592/1/11 588/1/7
f 591/1/31 593/1/33 589/1/238
f 590/1/9 594/1/12 592/1/11
f 589/1/238 593/1/33 595/1/35
f 594/1/12 590/1/9 596/1/239
f 593/1/33 597/1/240 595/1/35
f 598/1/16 594/1/12 596/1/239
f 597/1/240 599/1/39 595/1/35
f 598/1/16 600/1/18 594/1/12
f 597/1/240 601/1/41 599/1/39
f 602/1/20 600/1/18 598/1/16
f 601/1/41 597/1/240 603/1/241
f 600/1/18 602/1/20 604/1/242
f 605/1/243 601/1/41 603/1/241
f 602/1/20 606/1/244 604/1/242
f 601/1/41 605/1/243 607/1/245
f 606/1/244 602/1/20 608/1/246
f 605/1/243 609/1/247 607/1/245
f 608/1/246 610/1/28 606/1/244
f 609/1/247 605/1/243 611/1/248
f 610/1/28 608/1/246 612/1/30
f 611/1/248 613/1/53 609/1/247
f 612/1/30 614/1/32 610/1/28
f 615/1/249 609/1/247 613/1/53
f 610/1/28 614/1/32 616/1/34
f 617/1/250 615/1/249 613/1/53
f 614/1/32 618/1/36 616/1/34
f 617/1/250 619/1/251 615/1/249
f 618/1/36 614/1/32 620/1/38
f 617/1/250 621/1/252 619/1/251
f 620/1/38 622/1/40 618/1/36
f 621/1/252 617/1/250 623/1/253
f 622/1/40 620/1/38 624/1/42
f 625/1/48 621/1/252 623/1/253
f 624/1/42 626/1/44 622/1/40
f 627/1/254 621/1/252 625/1/48
f 625/1/48 626/1/44 627/1/254
f 626/1/44 625/1/48 628/1/46
f 622/1/40 626/1/44 628/1/46
