# Blender 5.1.2
# www.blender.org
mtllib 18600048536.mtl
o left_fist
v -1.600000 -0.357594 -0.357594
v -1.600000 0.357594 0.357594
v -1.600000 0.357594 -0.357594
v -1.600000 -0.357594 0.357594
v 1.600000 0.357594 -0.357594
v 1.600000 -0.357594 0.357594
v 1.600000 -0.357594 -0.357594
v 1.600000 0.357594 0.357594
v 1.557594 -0.357594 0.400000
v 1.557594 -0.400000 0.357594
v 1.600000 -0.357594 0.357594
v 1.600000 -0.357594 -0.357594
v 1.557594 -0.400000 -0.357594
v 1.557594 -0.357594 -0.400000
v 1.557594 0.357594 0.400000
v 1.600000 0.357594 0.357594
v 1.557594 0.400000 0.357594
v 1.557594 0.400000 -0.357594
v 1.600000 0.357594 -0.357594
v 1.557594 0.357594 -0.400000
v -1.557594 -0.357594 0.400000
v -1.600000 -0.357594 0.357594
v -1.557594 -0.400000 0.357594
v -1.557594 -0.400000 -0.357594
v -1.600000 -0.357594 -0.357594
v -1.557594 -0.357594 -0.400000
v -1.557594 0.357594 0.400000
v -1.557594 0.400000 0.357594
v -1.600000 0.357594 0.357594
v -1.600000 0.357594 -0.357594
v -1.557594 0.400000 -0.357594
v -1.557594 0.357594 -0.400000
v 1.600000 -0.357594 0.357594
v 1.600000 0.357594 0.357594
v 1.557594 0.357594 0.400000
v 1.557594 -0.357594 0.400000
v 1.600000 0.357594 -0.357594
v 1.557594 -0.357594 -0.400000
v 1.557594 0.357594 -0.400000
v 1.600000 -0.357594 -0.357594
v -1.600000 0.357594 0.357594
v -1.600000 -0.357594 0.357594
v -1.557594 -0.357594 0.400000
v -1.557594 0.357594 0.400000
v -1.600000 -0.357594 -0.357594
v -1.600000 0.357594 -0.357594
v -1.557594 0.357594 -0.400000
v -1.557594 -0.357594 -0.400000
v 1.557594 0.400000 0.357594
v -1.557594 0.400000 0.357594
v -1.557594 0.357594 0.400000
v 1.557594 0.357594 0.400000
v 1.557594 0.357594 -0.400000
v -1.557594 0.357594 -0.400000
v -1.557594 0.400000 -0.357594
v 1.557594 0.400000 -0.357594
v -1.557594 -0.400000 0.357594
v 1.557594 -0.400000 0.357594
v 1.557594 -0.357594 0.400000
v -1.557594 -0.357594 0.400000
v -1.557594 -0.357594 -0.400000
v 1.557594 -0.357594 -0.400000
v 1.557594 -0.400000 -0.357594
v -1.557594 -0.400000 -0.357594
v 1.557594 -0.400000 -0.357594
v -1.557594 -0.400000 0.357594
v -1.557594 -0.400000 -0.357594
v 1.557594 -0.400000 0.357594
v -1.557594 0.357594 -0.400000
v 1.557594 0.357594 -0.400000
v 1.557594 -0.357594 -0.400000
v -1.557594 -0.357594 -0.400000
v -1.557594 0.400000 -0.357594
v 1.557594 0.400000 0.357594
v 1.557594 0.400000 -0.357594
v -1.557594 0.400000 0.357594
v -1.557594 -0.357594 0.400000
v 1.557594 -0.357594 0.400000
v 1.557594 0.357594 0.400000
v -1.557594 0.357594 0.400000
vn -0.8755 -0.3417 -0.3417
vn -0.8755 0.3417 0.3417
vn -0.8755 0.3417 -0.3417
vn -0.8755 -0.3417 0.3417
vn 0.8755 0.3417 -0.3417
vn 0.8755 -0.3417 0.3417
vn 0.8755 -0.3417 -0.3417
vn 0.8755 0.3417 0.3417
vn 0.3417 -0.3418 0.8755
vn 0.3417 -0.8755 0.3417
vn 0.8755 -0.3418 0.3417
vn 0.3418 -0.8755 -0.3417
vn 0.3418 -0.3417 -0.8755
vn 0.3418 0.3417 0.8755
vn 0.3418 0.8755 0.3417
vn 0.3417 0.8755 -0.3417
vn 0.8755 0.3418 -0.3417
vn 0.3417 0.3418 -0.8755
vn -0.3418 -0.3417 0.8755
vn -0.3418 -0.8755 0.3417
vn -0.3417 -0.8755 -0.3417
vn -0.8755 -0.3418 -0.3417
vn -0.3417 -0.3418 -0.8755
vn -0.3417 0.3418 0.8755
vn -0.3417 0.8755 0.3417
vn -0.8755 0.3418 0.3417
vn -0.3418 0.8755 -0.3417
vn -0.3418 0.3417 -0.8755
vn 0.3417 0.3417 0.8755
vn 0.3417 -0.3417 0.8755
vn 0.3417 -0.3417 -0.8755
vn 0.3417 0.3417 -0.8755
vn -0.3417 -0.3417 0.8755
vn -0.3417 0.3417 0.8755
vn -0.3417 0.3417 -0.8755
vn -0.3417 -0.3417 -0.8755
vn 0.3417 0.8755 0.3417
vn -0.3417 0.8755 -0.3417
vn -0.3417 -0.8755 0.3417
vn 0.3417 -0.8755 -0.3417
vt 0.528205 0.019678
vt 0.634188 0.130590
vt 0.528205 0.130590
vt 0.634188 0.019678
vt 0.634188 0.481216
vt 0.528205 0.370304
vt 0.634188 0.370304
vt 0.528205 0.481216
vt 0.634188 0.363148
vt 0.634188 0.137746
vt 0.972650 0.363148
vt 0.972650 0.137746
vt 0.747009 0.137746
vt 0.747009 0.363148
vt 0.859829 0.137746
vt 0.859829 0.363148
vt 0.753846 0.137746
vt 0.753846 0.363148
vt 0.866667 0.363148
vt 0.866667 0.137746
vt 0.528205 0.137746
vt 0.528205 0.363148
vt 0.641026 0.363148
vt 0.641026 0.137746
s 1
f 1/1/1 2/2/2 3/3/3
f 2/2/2 1/1/1 4/4/4
f 5/5/5 6/6/6 7/7/7
f 6/6/6 5/5/5 8/8/8
f 9/6/9 10/6/10 11/6/11
f 10/6/10 12/7/7 11/6/11
f 12/7/7 10/6/10 13/7/12
f 13/7/12 14/7/13 12/7/7
f 15/8/14 16/8/8 17/8/15
f 18/5/16 17/8/15 16/8/8
f 16/8/8 19/5/17 18/5/16
f 20/5/18 18/5/16 19/5/17
f 21/4/19 22/4/4 23/4/20
f 24/1/21 23/4/20 22/4/4
f 22/4/4 25/1/22 24/1/21
f 26/1/23 24/1/21 25/1/22
f 27/2/24 28/2/25 29/2/26
f 30/3/3 29/2/26 28/2/25
f 28/2/25 31/3/27 30/3/3
f 32/3/28 30/3/3 31/3/27
f 33/6/6 34/8/8 35/8/29
f 33/6/6 35/8/29 36/6/30
f 37/5/5 38/7/31 39/5/32
f 38/7/31 37/5/5 40/7/7
f 41/2/2 42/4/4 43/4/33
f 41/2/2 43/4/33 44/2/34
f 45/1/1 46/3/3 47/3/35
f 47/3/35 48/1/36 45/1/1
f 49/9/37 50/10/25 51/10/34
f 49/9/37 51/10/34 52/9/29
f 53/11/32 54/12/35 55/12/38
f 53/11/32 55/12/38 56/11/16
f 57/13/39 58/14/10 59/14/30
f 57/13/39 59/14/30 60/13/33
f 61/15/36 62/16/31 63/16/40
f 61/15/36 63/16/40 64/15/21
f 65/16/40 66/17/39 67/15/21
f 66/17/39 65/16/40 68/18/10
f 69/12/35 70/11/32 71/19/31
f 69/12/35 71/19/31 72/20/36
f 73/21/38 74/9/37 75/22/16
f 74/9/37 73/21/38 76/10/25
f 77/13/33 78/14/30 79/23/29
f 77/13/33 79/23/29 80/24/34
o 18600048536
v -1.683666 0.546355 0.066169
v -1.683666 0.546355 -0.066169
v -1.738321 0.568943 0.066169
v -1.738321 0.568943 -0.066169
v -1.802449 0.583517 0.066169
v -1.802449 0.583517 -0.066169
v -1.860747 0.581333 0.066169
v -1.860747 0.581333 -0.066169
v -1.886255 0.568943 0.066169
v -1.886255 0.568943 -0.066169
v -1.958396 0.453078 0.066169
v -1.958396 0.453078 -0.066169
v -1.945282 0.410811 0.066169
v -1.945282 0.410811 -0.066169
v -1.943821 0.374376 0.066169
v -1.943821 0.374376 -0.066169
v -1.950380 0.336482 0.066169
v -1.950380 0.336482 -0.066169
v -1.962769 0.305876 0.066169
v -1.962769 0.305876 -0.066169
v -1.983173 0.289115 0.066169
v -1.983173 0.289115 -0.066169
v -2.010865 0.270167 0.066169
v -2.010865 0.270167 -0.066169
v -2.028356 0.246850 0.066169
v -2.028356 0.246850 -0.066169
v -2.063332 0.118594 0.066169
v -2.063332 0.118594 -0.066169
v -2.040741 0.088716 0.066169
v -2.040741 0.088716 -0.066169
v -2.012322 0.049365 0.066169
v -2.012322 0.049365 -0.066169
v -1.738321 -0.568943 -0.066169
v -1.738321 -0.568943 0.066169
v -1.802449 -0.583517 0.066169
v -1.683666 -0.546355 -0.066169
v -1.683666 -0.546355 0.066169
v -1.626827 -0.498256 -0.066169
v -1.626827 -0.498256 0.066169
v -1.538508 -0.498256 -0.066169
v -1.538508 -0.498256 0.066169
v -1.450185 -0.498256 -0.066169
v -1.450185 -0.498256 0.066169
v -1.396530 -0.498256 -0.066169
v -1.396530 -0.498256 0.066169
v -1.361865 -0.463593 -0.066169
v -1.361865 -0.463593 0.066169
v -1.361865 0.000000 -0.066169
v -1.361865 -0.000000 0.066169
v -1.361865 0.463591 0.066169
v -1.361865 0.463591 -0.066169
v -1.396530 0.498259 -0.066169
v -1.396530 0.498259 0.066169
v -1.450185 0.498259 0.066169
v -1.450185 0.498259 -0.066169
v -1.538508 0.498259 0.066169
v -1.538508 0.498259 -0.066169
v -1.626827 0.498259 0.066169
v -1.626827 0.498259 -0.066169
v -2.012322 -0.049364 0.066169
v -2.012322 -0.049364 -0.066169
v -2.040741 -0.088716 -0.066169
v -2.040741 -0.088716 0.066169
v -2.063332 -0.118595 -0.066169
v -2.063332 -0.118595 0.066169
v -2.028356 -0.246850 -0.066169
v -2.028356 -0.246850 0.066169
v -2.010865 -0.270168 -0.066169
v -2.010865 -0.270168 0.066169
v -1.983173 -0.289115 -0.066169
v -1.983173 -0.289115 0.066169
v -1.962769 -0.305876 -0.066169
v -1.962769 -0.305876 0.066169
v -1.950380 -0.336482 -0.066169
v -1.950380 -0.336482 0.066169
v -1.943822 -0.374374 -0.066169
v -1.943822 -0.374374 0.066169
v -1.945282 -0.410811 -0.066169
v -1.945282 -0.410811 0.066169
v -1.958396 -0.453078 -0.066169
v -1.958396 -0.453078 0.066169
v -1.886255 -0.568943 -0.066169
v -1.886255 -0.568943 0.066169
v -1.860747 -0.581333 -0.066169
v -1.860747 -0.581333 0.066169
v -1.802449 -0.583517 -0.066169
v -1.881303 -0.321633 0.066169
v -1.881303 -0.321633 -0.066169
v -1.816691 -0.298983 0.066169
v -1.773745 -0.283931 -0.066169
v -1.773745 -0.283931 0.066169
v -1.881303 0.321633 0.066169
v -1.816691 0.298985 -0.066169
v -1.881303 0.321633 -0.066169
v -1.773745 0.283933 0.066169
v -1.773745 0.283933 -0.066169
v -2.012322 0.049365 -0.066169
v -2.000664 -0.000000 0.066169
v -2.012322 0.049365 0.066169
v -2.000664 0.000000 -0.066169
v -2.012322 -0.049364 -0.066169
v -2.000664 -0.000000 0.066169
v -2.000664 0.000000 -0.066169
v -2.012322 -0.049364 0.066169
v -1.663978 0.178442 0.066169
v -1.663978 -0.178442 0.066169
v -1.663978 0.178442 -0.066169
v -1.624715 0.287969 0.066169
v -1.663978 -0.178442 -0.066169
v -1.613187 0.320122 -0.066169
v -1.597762 0.363156 0.066169
v -1.597762 0.363156 -0.066169
v -1.624715 -0.287968 -0.066169
v -1.597762 -0.363155 0.066169
v -1.597762 -0.363155 -0.066169
v -1.666186 -0.321633 -0.066169
v -1.666186 -0.321633 0.066169
v -1.773745 -0.283931 -0.066169
v -1.773745 -0.283931 0.066169
v -1.621630 -0.412651 0.066169
v -1.621630 -0.412651 -0.066169
v -1.666186 -0.503665 -0.066169
v -1.666186 -0.503665 0.066169
v -1.773745 0.283933 -0.066169
v -1.773745 0.283933 0.066169
v -1.666186 0.321633 -0.066169
v -1.666186 0.321633 0.066169
v -1.621630 0.412650 0.066169
v -1.621630 0.412650 -0.066169
v -1.647458 0.465412 0.066169
v -1.621630 0.412650 -0.066169
v -1.666186 0.503666 -0.066169
v -1.666186 0.503666 0.066169
v -1.773745 -0.541365 -0.066169
v -1.683666 -0.546355 -0.066169
v -1.738321 -0.568943 -0.066169
v -1.802449 -0.583517 -0.066169
v -1.860747 -0.581333 -0.066169
v -1.666186 -0.503665 -0.066169
v -1.626827 -0.498256 -0.066169
v -1.881303 -0.503665 -0.066169
v -1.886255 -0.568943 -0.066169
v -1.958396 -0.453078 -0.066169
v -1.925857 -0.412651 -0.066169
v -1.945282 -0.410811 -0.066169
v -1.923937 -0.408722 -0.066169
v -1.943822 -0.374374 -0.066169
v -1.621630 -0.412651 -0.066169
v -1.626827 -0.498256 -0.066169
v -1.666186 -0.321633 -0.066169
v -1.597762 -0.363155 -0.066169
v -1.624715 -0.287968 -0.066169
v -1.555492 -0.411788 -0.066169
v -1.538508 -0.498256 -0.066169
v -1.450185 -0.498256 -0.066169
v -1.426709 -0.411788 -0.066169
v -1.396530 -0.498256 -0.066169
v -1.361865 -0.463593 -0.066169
v -1.405051 -0.381178 -0.066169
v -1.405051 -0.193106 -0.066169
v -1.361865 0.000000 -0.066169
v -1.405050 0.193106 -0.066169
v -1.361865 0.463591 -0.066169
v -1.405050 0.381178 -0.066169
v -1.426709 0.411788 -0.066169
v -1.396530 0.498259 -0.066169
v -1.450185 0.498259 -0.066169
v -1.555492 0.411788 -0.066169
v -1.538508 0.498259 -0.066169
v -1.626827 0.498259 -0.066169
v -1.621630 0.412650 -0.066169
v -1.597762 0.363156 -0.066169
v -1.666186 0.321633 -0.066169
v -1.613187 0.320122 -0.066169
v -1.666186 0.503666 -0.066169
v -1.683666 0.546355 -0.066169
v -1.773745 0.541366 -0.066169
v -1.738321 0.568943 -0.066169
v -1.802449 0.583517 -0.066169
v -1.860747 0.581333 -0.066169
v -1.881303 0.503666 -0.066169
v -1.886255 0.568943 -0.066169
v -1.958396 0.453078 -0.066169
v -1.925857 0.412650 -0.066169
v -1.945282 0.410811 -0.066169
v -1.943821 0.374376 -0.066169
v -1.881303 0.321633 -0.066169
v -1.950380 0.336482 -0.066169
v -1.962769 0.305876 -0.066169
v -1.868798 0.275210 -0.066169
v -1.816691 0.298985 -0.066169
v -1.818759 0.257672 -0.066169
v -1.773745 0.283933 -0.066169
v -1.761237 0.237510 -0.066169
v -1.666186 0.321633 -0.066169
v -1.976359 0.237510 -0.066169
v -1.983173 0.289115 -0.066169
v -2.010865 0.270167 -0.066169
v -2.028356 0.246850 -0.066169
v -2.020915 0.146495 -0.066169
v -2.063332 0.118594 -0.066169
v -2.040741 0.088716 -0.066169
v -1.976359 0.055480 -0.066169
v -2.012322 0.049365 -0.066169
v -2.000664 0.000000 -0.066169
v -1.868798 0.017780 -0.066169
v -1.868798 -0.017780 -0.066169
v -1.976359 -0.055480 -0.066169
v -2.012322 -0.049364 -0.066169
v -1.663978 0.178442 -0.066169
v -1.716685 0.146495 -0.066169
v -1.761237 0.055480 -0.066169
v -1.761237 -0.055480 -0.066169
v -1.868798 -0.017780 -0.066169
v -1.868798 0.017780 -0.066169
v -1.663978 -0.178442 -0.066169
v -1.716685 -0.146495 -0.066169
v -1.761237 -0.237510 -0.066169
v -1.666186 -0.321633 -0.066169
v -1.773745 -0.283931 -0.066169
v -1.868798 -0.275210 -0.066169
v -1.881303 -0.321633 -0.066169
v -1.962769 -0.305876 -0.066169
v -1.950380 -0.336482 -0.066169
v -1.943822 -0.374374 -0.066169
v -1.923937 -0.408722 -0.066169
v -1.976359 -0.237510 -0.066169
v -1.983173 -0.289115 -0.066169
v -2.010865 -0.270168 -0.066169
v -2.028356 -0.246850 -0.066169
v -2.020915 -0.146495 -0.066169
v -2.063332 -0.118595 -0.066169
v -2.040741 -0.088716 -0.066169
v -1.976359 -0.055480 -0.066169
v -2.012322 -0.049364 -0.066169
v -1.626827 -0.498256 -0.066169
v -1.621630 -0.412651 -0.066169
v -1.555492 -0.411788 -0.066169
v -1.597762 -0.363155 -0.066169
v -1.958396 -0.453078 0.066169
v -1.925857 -0.412651 0.066169
v -1.945282 -0.410811 0.066169
v -1.943822 -0.374374 0.066169
v -1.881303 -0.503665 0.066169
v -1.886255 -0.568943 0.066169
v -1.881303 -0.321633 0.066169
v -1.860747 -0.581333 0.066169
v -1.950380 -0.336482 0.066169
v -1.773745 -0.541365 0.066169
v -1.802449 -0.583517 0.066169
v -1.738321 -0.568943 0.066169
v -1.683666 -0.546355 0.066169
v -1.666186 -0.503665 0.066169
v -1.626827 -0.498256 0.066169
v -1.962769 -0.305876 0.066169
v -1.621630 -0.412651 0.066169
v -1.868798 -0.275210 0.066169
v -1.816691 -0.298983 0.066169
v -1.823588 -0.259366 0.066169
v -1.773745 -0.283931 0.066169
v -1.761237 -0.237510 0.066169
v -1.976359 -0.237510 0.066169
v -1.983173 -0.289115 0.066169
v -2.010865 -0.270168 0.066169
v -2.028356 -0.246850 0.066169
v -2.020915 -0.146495 0.066169
v -2.063332 -0.118595 0.066169
v -2.040741 -0.088716 0.066169
v -1.976359 -0.055480 0.066169
v -2.012322 -0.049364 0.066169
v -2.000664 -0.000000 0.066169
v -1.868798 -0.017780 0.066169
v -1.868798 0.017780 0.066169
v -1.976359 0.055480 0.066169
v -2.012322 0.049365 0.066169
v -1.976359 0.055480 0.066169
v -2.040741 0.088716 0.066169
v -2.012322 0.049365 0.066169
v -2.020915 0.146495 0.066169
v -2.063332 0.118594 0.066169
v -2.028356 0.246850 0.066169
v -1.976359 0.237510 0.066169
v -2.010865 0.270167 0.066169
v -1.983173 0.289115 0.066169
v -1.962769 0.305876 0.066169
v -1.868798 0.275210 0.066169
v -1.881303 0.321633 0.066169
v -1.950380 0.336482 0.066169
v -1.943821 0.374376 0.066169
v -1.923937 0.408725 0.066169
v -1.773745 0.283933 0.066169
v -1.761237 0.237510 0.066169
v -1.666186 0.321633 0.066169
v -1.624715 0.287969 0.066169
v -1.663978 0.178442 0.066169
v -1.716685 0.146495 0.066169
v -1.761237 0.055480 0.066169
v -1.761237 -0.055480 0.066169
v -1.868798 0.017780 0.066169
v -1.868798 -0.017780 0.066169
v -1.663978 -0.178442 0.066169
v -1.716685 -0.146495 0.066169
v -1.666186 -0.321633 0.066169
v -1.597762 -0.363155 0.066169
v -1.555492 -0.411788 0.066169
v -1.538508 -0.498256 0.066169
v -1.450185 -0.498256 0.066169
v -1.426709 -0.411788 0.066169
v -1.396530 -0.498256 0.066169
v -1.361865 -0.463593 0.066169
v -1.405051 -0.381178 0.066169
v -1.405051 -0.193106 0.066169
v -1.361865 -0.000000 0.066169
v -1.405051 -0.017831 0.066169
v -1.621630 0.412650 0.066169
v -1.626827 0.498259 0.066169
v -1.647458 0.465412 0.066169
v -1.626827 0.498259 0.066169
v -1.666186 0.503666 0.066169
v -1.683666 0.546355 0.066169
v -1.773745 0.541366 0.066169
v -1.738321 0.568943 0.066169
v -1.802449 0.583517 0.066169
v -1.860747 0.581333 0.066169
v -1.881303 0.503666 0.066169
v -1.886255 0.568943 0.066169
v -1.958396 0.453078 0.066169
v -1.925857 0.412650 0.066169
v -1.945282 0.410811 0.066169
v -1.923937 0.408725 0.066169
v -1.943821 0.374376 0.066169
v -1.597762 0.363156 0.066169
v -1.666186 0.321633 0.066169
v -1.555492 0.411788 0.066169
v -1.538508 0.498259 0.066169
v -1.450185 0.498259 0.066169
v -1.426709 0.411788 0.066169
v -1.396530 0.498259 0.066169
v -1.361865 0.463591 0.066169
v -1.405050 0.381178 0.066169
v -1.405050 0.193106 0.066169
v -1.361865 -0.000000 0.066169
v -1.405051 -0.017831 0.066169
v -1.923937 -0.408722 -0.066169
v -1.925857 -0.412651 0.066169
v -1.925857 -0.412651 -0.066169
v -1.881303 -0.321633 0.066169
v -1.881303 -0.321633 -0.066169
v -1.925857 0.412650 -0.066169
v -1.923937 0.408725 0.066169
v -1.881303 0.321633 -0.066169
v -1.881303 0.321633 0.066169
v -1.925857 0.412650 0.066169
v -1.716685 0.146495 0.066169
v -1.716685 0.146495 -0.066169
v -1.761237 0.055480 0.066169
v -1.761237 0.237510 0.066169
v -1.761237 0.237510 -0.066169
v -1.761237 0.055480 -0.066169
v -1.868798 0.017780 -0.066169
v -1.868798 0.017780 0.066169
v -1.976359 0.055480 0.066169
v -1.976359 0.055480 -0.066169
v -1.761237 0.237510 0.066169
v -1.818759 0.257672 -0.066169
v -1.868798 0.275210 0.066169
v -1.868798 0.275210 -0.066169
v -1.868798 0.275210 0.066169
v -1.976359 0.237510 -0.066169
v -1.976359 0.237510 0.066169
v -2.020915 0.146495 -0.066169
v -2.020915 0.146495 0.066169
v -1.716685 -0.146495 0.066169
v -1.716685 -0.146495 -0.066169
v -1.761237 -0.237510 -0.066169
v -1.761237 -0.237510 0.066169
v -1.761237 -0.055480 -0.066169
v -1.761237 -0.055480 0.066169
v -1.868798 -0.017780 0.066169
v -1.868798 -0.017780 -0.066169
v -1.976359 -0.055480 -0.066169
v -1.976359 -0.055480 0.066169
v -1.761237 -0.237510 -0.066169
v -1.823588 -0.259366 0.066169
v -1.868798 -0.275210 -0.066169
v -1.868798 -0.275210 0.066169
v -1.976359 -0.237510 0.066169
v -1.868798 -0.275210 -0.066169
v -1.976359 -0.237510 -0.066169
v -2.020915 -0.146495 0.066169
v -2.020915 -0.146495 -0.066169
v -1.976359 -0.055480 0.066169
v -2.020915 -0.146495 0.066169
v -1.976359 -0.055480 -0.066169
v -2.020915 -0.146495 -0.066169
v -2.020915 0.146495 0.066169
v -1.976359 0.055480 0.066169
v -2.020915 0.146495 -0.066169
v -1.976359 0.055480 -0.066169
v -1.555492 0.411788 -0.066169
v -1.555492 0.411788 0.066169
v -1.597762 0.363156 0.066169
v -1.597762 0.363156 -0.066169
v -1.426709 0.411788 -0.066169
v -1.426709 0.411788 0.066169
v -1.426709 -0.411788 0.066169
v -1.555492 -0.411788 -0.066169
v -1.555492 -0.411788 0.066169
v -1.426709 -0.411788 -0.066169
v -1.597762 -0.363155 -0.066169
v -1.597762 -0.363155 0.066169
v -1.405051 -0.193106 -0.066169
v -1.405051 -0.381178 0.066169
v -1.405051 -0.193106 0.066169
v -1.405051 -0.017831 0.066169
v -1.405051 -0.381178 -0.066169
v -1.426709 -0.411788 0.066169
v -1.426709 -0.411788 -0.066169
v -1.405050 0.193106 -0.066169
v -1.405050 0.193106 0.066169
v -1.405050 0.381178 0.066169
v -1.405050 0.381178 -0.066169
v -1.426709 0.411788 -0.066169
v -1.426709 0.411788 0.066169
v -1.881303 0.503666 0.066169
v -1.925857 0.412650 0.066169
v -1.881303 0.503666 -0.066169
v -1.925857 0.412650 -0.066169
v -1.773745 0.541366 0.066169
v -1.773745 0.541366 -0.066169
v -1.881303 -0.503665 0.066169
v -1.773745 -0.541365 -0.066169
v -1.881303 -0.503665 -0.066169
v -1.773745 -0.541365 0.066169
v -1.925857 -0.412651 -0.066169
v -1.925857 -0.412651 0.066169
v -1.666186 0.503666 0.066169
v -1.773745 0.541366 0.066169
v -1.666186 0.503666 -0.066169
v -1.773745 0.541366 -0.066169
v -1.666186 -0.503665 0.066169
v -1.773745 -0.541365 -0.066169
v -1.773745 -0.541365 0.066169
v -1.666186 -0.503665 -0.066169
vn 0.5202 0.8540 -0.0000
vn 0.3031 0.9530 0.0003
vn 0.0932 0.9956 0.0005
vn 0.0932 0.9957 0.0004
vn -0.2428 0.9701 0.0004
vn -0.2427 0.9701 0.0003
vn -0.6691 0.7431 -0.0000
vn -0.6690 0.7433 0.0005
vn -0.9918 0.1275 0.0005
vn -0.9855 -0.1696 -0.0000
vn -0.9978 0.0658 0.0003
vn -0.9617 0.2739 0.0006
vn -0.9617 0.2741 0.0004
vn -0.8057 0.5923 -0.0000
vn -0.8056 0.5924 0.0003
vn -0.6003 0.7998 -0.0000
vn -0.6913 0.7226 0.0005
vn -0.6914 0.7225 0.0004
vn -0.8983 0.4394 -0.0000
vn -0.9819 -0.1893 0.0003
vn -0.9819 -0.1894 -0.0000
vn -0.8042 -0.5943 -0.0000
vn -0.9094 -0.4159 -0.0000
vn -0.9094 -0.4159 0.0005
vn 0.3031 -0.9530 0.0003
vn 0.0932 -0.9956 0.0005
vn 0.5202 -0.8540 -0.0000
vn 0.3440 -0.9390 -0.0000
vn -0.0005 -1.0000 0.0005
vn 0.3827 -0.9239 -0.0000
vn 0.9239 -0.3826 0.0006
vn 0.9239 -0.3827 -0.0000
vn 1.0000 -0.0005 0.0005
vn 0.9239 0.3826 0.0007
vn 0.9239 0.3826 0.0005
vn 0.3826 0.9239 0.0005
vn -0.0005 1.0000 0.0005
vn 0.3440 0.9390 -0.0000
vn -0.9094 0.4160 0.0005
vn -0.9094 0.4160 -0.0000
vn -0.8042 0.5943 -0.0000
vn -0.9819 0.1893 0.0003
vn -0.9819 0.1892 0.0005
vn -0.8983 -0.4394 -0.0000
vn -0.8984 -0.4392 0.0003
vn -0.6913 -0.7225 0.0004
vn -0.6916 -0.7223 -0.0000
vn -0.6003 -0.7998 -0.0000
vn -0.6004 -0.7997 0.0003
vn -0.8056 -0.5924 0.0003
vn -0.8056 -0.5925 0.0004
vn -0.9617 -0.2740 0.0005
vn -0.9617 -0.2739 0.0006
vn -0.9978 -0.0659 0.0004
vn -0.9855 0.1696 -0.0000
vn -0.9918 -0.1275 0.0005
vn -0.6691 -0.7431 -0.0000
vn -0.2427 -0.9701 0.0003
vn -0.2428 -0.9701 0.0004
vn 0.0932 -0.9957 0.0004
vn 0.6638 -0.7479 0.0005
vn 0.6638 -0.7479 -0.0000
vn 0.3308 -0.9437 0.0005
vn -0.0004 -1.0000 0.0005
vn -0.0005 -1.0000 -0.0000
vn 0.6638 0.7479 -0.0000
vn 0.3308 0.9437 0.0005
vn 0.6638 0.7479 0.0005
vn -0.0005 1.0000 -0.0000
vn -0.9095 -0.4158 -0.0000
vn -1.0000 -0.0006 -0.0000
vn -0.9095 -0.4158 0.0005
vn -1.0000 -0.0006 0.0005
vn -0.9095 0.4158 0.0005
vn -1.0000 -0.0004 0.0005
vn -1.0000 -0.0004 -0.0000
vn -0.9095 0.4158 -0.0000
vn 0.9852 -0.1714 0.0003
vn 0.9852 0.1714 0.0003
vn 0.9852 -0.1715 0.0006
vn 0.9413 -0.3375 0.0003
vn 0.9852 0.1715 0.0004
vn 0.9413 -0.3376 0.0005
vn 0.8629 -0.5054 -0.0000
vn 0.8629 -0.5053 0.0005
vn 0.9413 0.3375 0.0005
vn 0.8629 0.5053 0.0005
vn 0.8629 0.5053 -0.0000
vn -0.6642 -0.7476 -0.0000
vn -0.6640 -0.7478 0.0003
vn -0.0006 -1.0000 -0.0000
vn -0.0006 -1.0000 0.0005
vn -1.0000 -0.0005 0.0005
vn -0.6639 0.7478 0.0005
vn -0.6639 0.7478 -0.0000
vn -0.0006 1.0000 0.0005
vn -0.0006 1.0000 -0.0000
vn -0.6641 0.7476 -0.0000
vn -1.0000 -0.0005 -0.0000
vn -0.8980 -0.4399 0.0004
vn -0.6639 -0.7478 -0.0000
vn -0.6639 -0.7478 0.0005
vn -0.0002 -0.0002 -1.0000
vn -0.0005 -0.0005 -1.0000
vn -0.0005 -0.0005 1.0000
vn -0.0002 -0.0002 1.0000
vn 0.8980 -0.4399 0.0004
vn 1.0000 -0.0005 -0.0000
vn 0.6639 -0.7478 -0.0000
vn 0.6639 -0.7478 0.0005
vn 0.8981 0.4398 0.0003
vn 0.6639 0.7478 -0.0000
vn 0.6639 0.7478 0.0005
vn -0.6640 0.7478 0.0003
vn -0.6639 0.7478 0.0004
vn -0.6638 -0.7479 0.0005
vn -0.6638 -0.7479 -0.0000
vn -0.3308 -0.9437 0.0005
vn 0.6641 -0.7476 -0.0000
vn 0.6640 -0.7478 0.0003
vn -0.6639 -0.7478 0.0004
vn -0.6638 0.7479 0.0005
vn -0.6638 0.7479 -0.0000
vn -0.3308 0.9437 0.0005
vn 0.6641 0.7476 -0.0000
vn 0.6640 0.7478 0.0003
vn 0.4147 -0.9100 -0.0000
vn 0.8628 -0.5055 0.0005
vn 0.8628 -0.5055 -0.0000
vn -0.4599 -0.8880 0.0005
vn -0.4599 -0.8880 -0.0000
vn -0.4599 0.8880 0.0005
vn 0.4147 0.9100 -0.0000
vn 0.4147 0.9099 -0.0000
vn -0.4599 0.8880 -0.0000
vn 0.8629 0.5054 0.0005
vn 0.8629 0.5054 -0.0000
vn -0.9529 0.3033 0.0004
vn -0.9530 0.3030 -0.0000
vn -0.9529 -0.3033 0.0004
vn 0.6639 -0.7478 0.0004
vn 0.6639 0.7478 0.0004
vt 0.000000 1.000000
vt 1.000000 1.000000
vt 0.000000 0.997457
vt 1.000000 0.997457
vt 0.000000 0.994733
vt 1.000000 0.993508
vt 0.000000 0.993508
vt 1.000000 0.994733
vt 0.000000 0.500000
vt 1.000000 0.500000
vt 0.773242 0.666667
vt 0.773242 0.583333
vt 0.726758 0.666667
vt 0.773242 0.705782
vt 0.726758 0.583333
vt 0.726757 0.717264
vt 0.773242 0.732631
vt 0.726758 0.732631
vt 0.726758 0.544218
vt 0.773242 0.517369
vt 0.726758 0.517369
vt 1.000000 0.995527
vt 0.000000 0.995527
vt 0.000000 0.998081
vt 1.000000 0.998081
vt 1.000000 0.999611
vt 0.000000 0.999612
vt 0.000000 0.999071
vt 1.000000 0.999612
vt 0.000000 0.999611
vt 1.000000 0.999601
vt 1.000000 0.999656
vt 1.000000 0.999717
vt 1.000000 0.999683
vt 1.000000 0.997666
vt 1.000000 0.995969
vt 0.999999 0.998925
vt 1.000000 0.999492
vt 1.000000 0.999532
vt 1.000000 0.999000
vt 1.000000 0.998928
vt 1.000000 0.999459
vt 1.000000 0.999400
vt 1.000000 0.998732
vt 1.000000 0.997429
vt 1.000000 0.996373
vt 1.000000 0.995004
vt 1.000000 0.992380
vt 1.000000 0.990827
vt 1.000000 0.998805
vt 1.000000 1.000998
vt 1.000000 0.908813
vt 1.000000 0.935649
vt 1.000000 0.990747
vt 1.000000 0.986114
vt 1.000000 0.974913
vt 1.000000 0.991330
vt 1.000000 0.990826
vt 0.000000 0.999717
vt 0.000000 0.999656
vt 0.000000 0.999601
vt 0.000000 0.995004
vt 0.000000 0.992587
vt 0.000000 0.990827
vt 0.000000 0.998805
vt 0.000000 1.000998
vt 0.000000 0.908813
vt 0.000000 0.935649
vt 0.000000 0.999683
vt 0.000000 0.990826
vt 0.000000 0.995967
vt 0.000000 0.991331
vt 0.000000 0.986114
vt 0.000000 0.974913
vt 0.000000 0.990749
vt 0.000000 0.997430
vt 0.000000 0.998732
vt 0.000000 0.999400
vt 0.000000 0.999459
vt 0.000000 0.998928
vt 0.000000 0.998663
vt 0.000000 0.997665
vt 0.000000 0.998935
vt 0.000000 0.999495
vt 0.000000 0.999533
vt 0.000000 0.998999
vt 0.589578 0.851758
vt 0.589578 0.898242
vt 0.625000 0.898242
vt 0.625000 0.851758
vt 0.405889 0.851758
vt 0.405889 0.898242
vt 0.405889 0.351758
vt 0.589578 0.398242
vt 0.589578 0.351758
vt 0.405889 0.398242
vt 0.625000 0.398242
vt 0.625000 0.351758
vt 0.273242 0.583333
vt 0.226758 0.521268
vt 0.226758 0.583333
vt 0.226758 0.621153
vt 0.273242 0.521268
vt 0.226758 0.500000
vt 0.273242 0.500000
vt 0.273242 0.666667
vt 0.226758 0.666667
vt 0.226758 0.728732
vt 0.273242 0.728732
vt 0.273242 0.750000
vt 0.226758 0.750000
s 1
f 81/25/41 82/26/41 83/25/42
f 84/26/42 83/25/42 82/26/41
f 83/25/42 84/26/42 85/25/43
f 86/26/44 85/25/43 84/26/42
f 85/25/43 86/26/44 87/25/45
f 88/26/46 87/25/45 86/26/44
f 87/25/45 88/26/46 89/25/47
f 90/26/48 89/25/47 88/26/46
f 90/26/48 91/25/49 89/25/47
f 91/25/49 90/26/48 92/26/49
f 92/26/49 93/25/50 91/25/49
f 93/25/50 92/26/49 94/26/50
f 94/26/50 95/25/51 93/25/50
f 95/25/51 94/26/50 96/26/51
f 96/26/51 97/25/52 95/25/51
f 97/25/52 96/26/51 98/26/53
f 98/26/53 99/25/54 97/25/52
f 99/25/54 98/26/53 100/26/55
f 99/25/54 100/26/55 101/25/56
f 102/26/56 101/25/56 100/26/55
f 101/25/56 102/26/56 103/25/57
f 104/26/58 103/25/57 102/26/56
f 104/26/58 105/25/59 103/25/57
f 105/25/59 104/26/58 106/26/59
f 106/26/59 107/25/60 105/25/59
f 107/25/60 106/26/59 108/26/61
f 108/26/61 109/25/62 107/25/60
f 109/25/62 108/26/61 110/26/62
f 110/26/62 111/25/63 109/25/62
f 111/25/63 110/26/62 112/26/64
f 113/26/65 114/25/65 115/25/66
f 116/26/67 114/25/65 113/26/65
f 116/26/67 117/25/67 114/25/65
f 118/26/68 117/25/67 116/26/67
f 118/26/68 119/25/68 117/25/67
f 120/26/69 119/25/68 118/26/68
f 120/26/69 121/25/69 119/25/68
f 122/26/69 121/25/69 120/26/69
f 122/26/69 123/25/69 121/25/69
f 124/26/70 123/25/69 122/26/69
f 124/26/70 125/25/70 123/25/69
f 126/26/71 125/25/70 124/26/70
f 125/25/70 126/26/71 127/25/72
f 128/26/73 127/25/72 126/26/71
f 129/25/73 127/25/72 128/26/73
f 130/25/74 129/25/73 128/26/73
f 128/26/73 131/26/75 130/25/74
f 132/26/76 130/25/74 131/26/75
f 130/25/74 132/26/76 133/25/76
f 133/25/76 132/26/76 134/25/77
f 135/26/77 134/25/77 132/26/76
f 136/25/77 134/25/77 135/26/77
f 137/26/77 136/25/77 135/26/77
f 138/25/78 136/25/77 137/26/77
f 139/26/78 138/25/78 137/26/77
f 138/25/78 139/26/78 81/25/41
f 82/26/41 81/25/41 139/26/78
f 140/25/79 141/26/80 142/26/81
f 140/25/79 142/26/81 143/25/81
f 144/26/82 143/25/81 142/26/81
f 143/25/81 144/26/82 145/25/83
f 146/26/84 145/25/83 144/26/82
f 145/25/83 146/26/84 147/25/85
f 147/25/85 146/26/84 148/26/86
f 147/25/85 148/26/86 149/25/87
f 150/26/88 149/25/87 148/26/86
f 150/26/88 151/25/89 149/25/87
f 152/26/90 151/25/89 150/26/88
f 152/26/90 153/25/91 151/25/89
f 153/25/91 152/26/90 154/26/92
f 153/25/91 154/26/92 155/25/93
f 155/25/93 154/26/92 156/26/94
f 155/25/93 156/26/94 157/25/94
f 157/25/94 156/26/94 158/26/95
f 157/25/94 158/26/95 159/25/95
f 159/25/95 158/26/95 160/26/96
f 159/25/95 160/26/96 161/25/96
f 160/26/96 162/26/97 161/25/96
f 161/25/96 162/26/97 163/25/97
f 164/26/98 163/25/97 162/26/97
f 164/26/98 165/25/99 163/25/97
f 166/26/100 165/25/99 164/26/98
f 166/26/100 115/25/66 165/25/99
f 113/26/65 115/25/66 166/26/100
f 167/27/101 168/28/102 169/29/103
f 170/30/104 169/29/103 168/28/102
f 170/30/104 171/31/105 169/29/103
f 172/27/106 173/32/107 174/28/108
f 173/32/107 172/27/106 175/31/77
f 173/32/107 175/31/77 176/30/109
f 177/26/110 178/33/111 179/25/112
f 178/33/111 177/26/110 180/34/113
f 181/26/114 182/33/115 183/34/116
f 182/33/115 181/26/114 184/25/117
f 185/35/118 186/36/119 187/37/120
f 187/37/120 188/38/121 185/35/118
f 187/37/120 186/36/119 189/39/122
f 188/38/121 187/37/120 190/40/123
f 190/40/123 191/41/124 188/38/121
f 191/41/124 190/40/123 192/42/125
f 186/36/119 193/43/126 189/39/122
f 193/43/126 186/36/119 194/44/127
f 193/43/126 194/44/127 195/45/128
f 196/46/129 197/47/130 198/30/131
f 197/47/130 199/31/132 198/30/131
f 197/47/130 196/46/129 200/48/133
f 196/46/129 201/49/133 200/48/133
f 200/48/133 201/49/133 202/50/134
f 200/48/133 202/50/134 203/51/135
f 204/30/136 205/31/137 206/46/138
f 205/31/137 207/47/138 206/46/138
f 208/48/133 206/46/138 207/47/138
f 208/48/133 209/49/139 206/46/138
f 210/52/140 211/49/133 208/48/139
f 210/52/140 212/53/141 211/49/133
f 212/53/141 210/52/140 213/54/142
f 214/55/143 215/26/144 216/26/144
f 214/55/143 216/26/144 217/26/144
f 218/26/144 214/55/143 217/26/144
f 215/26/144 214/55/143 219/50/144
f 215/26/144 219/50/144 220/26/144
f 218/26/144 221/56/144 214/55/143
f 221/56/144 218/26/144 222/26/144
f 223/26/144 221/56/144 222/26/144
f 221/56/144 223/26/144 224/57/144
f 225/26/144 224/57/144 223/26/144
f 224/57/144 225/26/144 226/58/144
f 225/26/144 227/26/144 226/58/144
f 228/49/144 229/26/144 219/50/144
f 230/46/144 231/59/144 228/49/144
f 231/59/144 230/46/144 232/60/144
f 233/61/144 234/26/144 229/26/144
f 233/61/144 235/26/144 234/26/144
f 236/62/144 235/26/144 233/61/144
f 236/62/144 237/26/144 235/26/144
f 237/26/144 236/62/144 238/26/144
f 238/26/144 236/62/144 239/63/144
f 240/64/144 238/26/144 239/63/144
f 238/26/144 240/64/144 241/26/144
f 240/64/144 242/65/144 241/26/144
f 242/65/144 243/26/144 241/26/144
f 243/26/144 242/65/144 244/66/144
f 245/67/144 243/26/144 244/66/144
f 243/26/144 245/67/144 246/26/144
f 246/26/144 245/67/144 247/26/144
f 248/68/143 247/26/144 245/67/144
f 247/26/144 248/68/143 249/26/144
f 248/68/143 250/26/144 249/26/144
f 248/68/143 251/49/144 250/26/144
f 251/49/144 248/68/143 252/69/144
f 252/69/144 253/46/144 251/49/144
f 253/46/144 252/69/144 254/70/144
f 255/53/144 250/26/144 251/49/144
f 250/26/144 255/53/144 256/26/144
f 257/55/143 256/26/144 255/53/144
f 256/26/144 257/55/143 258/26/144
f 257/55/143 259/26/144 258/26/144
f 257/55/143 260/26/144 259/26/144
f 260/26/144 257/55/143 261/56/144
f 261/56/144 262/26/144 260/26/144
f 262/26/144 261/56/144 263/26/144
f 264/57/144 263/26/144 261/56/144
f 263/26/144 264/57/144 265/26/144
f 264/57/144 266/26/144 265/26/144
f 267/28/143 266/26/144 264/57/144
f 267/28/143 268/26/144 266/26/144
f 267/28/143 269/26/144 268/26/144
f 269/26/144 267/28/143 270/71/144
f 271/32/144 270/71/144 267/28/143
f 272/72/144 270/71/144 271/32/144
f 273/30/144 272/72/144 271/32/144
f 274/73/144 272/72/144 273/30/144
f 275/46/144 274/73/144 273/30/144
f 276/74/143 269/26/144 270/71/144
f 269/26/144 276/74/143 277/26/144
f 276/74/143 278/26/144 277/26/144
f 278/26/144 276/74/143 279/26/144
f 280/75/144 279/26/144 276/74/143
f 279/26/144 280/75/144 281/26/144
f 282/26/144 281/26/144 280/75/144
f 280/75/144 283/76/144 282/26/144
f 282/26/144 283/76/144 284/26/144
f 284/26/144 283/76/144 285/34/143
f 286/77/144 285/34/143 283/76/144
f 285/34/143 286/77/144 287/77/144
f 288/76/144 285/34/143 287/77/144
f 285/34/143 288/76/144 289/26/144
f 290/78/143 275/46/144 254/70/144
f 290/78/143 274/73/144 275/46/144
f 274/73/144 290/78/143 291/79/144
f 290/78/143 292/80/144 291/79/144
f 290/78/143 293/80/144 292/80/144
f 292/80/144 293/80/144 294/77/144
f 295/77/144 292/80/144 294/77/144
f 296/81/144 293/80/144 290/78/143
f 293/80/144 296/81/144 297/79/144
f 296/81/144 298/82/143 297/79/144
f 298/82/143 296/81/144 232/60/144
f 299/46/144 298/82/143 232/60/144
f 298/82/143 299/46/144 300/30/144
f 300/30/144 301/71/144 298/82/143
f 301/71/144 300/30/144 302/28/143
f 303/26/144 301/71/144 302/28/143
f 302/28/143 304/26/144 303/26/144
f 302/28/143 305/26/144 304/26/144
f 305/26/144 302/28/143 306/58/144
f 301/71/144 303/26/144 307/74/143
f 307/74/143 303/26/144 308/26/144
f 309/26/144 307/74/143 308/26/144
f 310/26/144 307/74/143 309/26/144
f 307/74/143 310/26/144 311/75/144
f 312/26/144 311/75/144 310/26/144
f 311/75/144 312/26/144 313/26/144
f 313/26/144 314/76/144 311/75/144
f 314/76/144 313/26/144 315/26/144
f 316/26/144 317/49/144 318/61/144
f 318/61/144 317/49/144 319/59/144
f 320/25/145 321/83/145 322/25/145
f 321/83/145 323/25/145 322/25/145
f 321/83/145 320/25/145 324/84/145
f 325/25/145 324/84/145 320/25/145
f 321/83/145 326/27/146 323/25/145
f 327/25/145 324/84/145 325/25/145
f 328/25/145 323/25/145 326/27/146
f 327/25/145 329/85/146 324/84/145
f 329/85/146 327/25/145 330/25/145
f 329/85/146 330/25/145 331/25/145
f 332/25/145 329/85/146 331/25/145
f 329/85/146 332/25/145 333/51/145
f 334/25/145 333/51/145 332/25/145
f 326/27/146 335/25/145 328/25/145
f 333/51/145 334/25/145 336/48/145
f 335/25/145 326/27/146 337/86/145
f 338/29/145 337/86/145 326/27/146
f 337/86/145 338/29/145 339/87/145
f 340/31/145 339/87/145 338/29/145
f 339/87/145 340/31/145 341/88/145
f 342/89/146 335/25/145 337/86/145
f 335/25/145 342/89/146 343/25/145
f 342/89/146 344/25/145 343/25/145
f 344/25/145 342/89/146 345/25/145
f 346/90/145 345/25/145 342/89/146
f 345/25/145 346/90/145 347/25/145
f 348/25/145 347/25/145 346/90/145
f 346/90/145 349/91/145 348/25/145
f 349/91/145 350/25/145 348/25/145
f 349/91/145 351/33/146 350/25/145
f 352/92/145 351/33/146 349/91/145
f 353/92/145 351/33/146 352/92/145
f 351/33/146 353/92/145 354/91/145
f 351/33/146 354/91/145 355/25/145
f 356/91/145 357/25/145 358/25/145
f 357/25/145 356/91/145 359/90/145
f 359/90/145 360/25/145 357/25/145
f 360/25/145 359/90/145 361/25/145
f 362/89/146 361/25/145 359/90/145
f 361/25/145 362/89/146 363/25/145
f 363/25/145 362/89/146 364/25/145
f 362/89/146 365/25/145 364/25/145
f 366/86/145 365/25/145 362/89/146
f 365/25/145 366/86/145 367/27/146
f 367/27/146 368/25/145 365/25/145
f 367/27/146 369/25/145 368/25/145
f 369/25/145 367/27/146 370/93/145
f 366/86/145 371/31/145 367/27/146
f 371/31/145 366/86/145 372/94/146
f 372/94/146 373/47/145 371/31/145
f 373/47/145 372/94/146 374/95/145
f 374/95/145 372/94/146 375/96/146
f 375/96/146 372/94/146 376/97/145
f 377/98/145 375/96/146 376/97/145
f 378/98/146 375/96/146 377/98/145
f 378/98/146 377/98/145 379/92/145
f 380/92/145 378/98/146 379/92/145
f 375/96/146 378/98/146 381/99/146
f 381/99/146 378/98/146 382/97/145
f 341/88/145 381/99/146 382/97/145
f 383/47/145 381/99/146 341/88/145
f 341/88/145 340/31/145 383/47/145
f 381/99/146 383/47/145 384/100/145
f 384/100/145 383/47/145 336/48/145
f 336/48/145 385/101/146 384/100/145
f 385/101/146 336/48/145 334/25/145
f 385/101/146 334/25/145 386/25/145
f 387/25/145 385/101/146 386/25/145
f 385/101/146 387/25/145 388/102/145
f 389/25/145 388/102/145 387/25/145
f 390/25/145 388/102/145 389/25/145
f 388/102/145 390/25/145 391/103/145
f 390/25/145 392/104/145 391/103/145
f 390/25/145 393/25/145 392/104/145
f 394/105/145 392/104/145 393/25/145
f 395/48/145 396/25/145 397/52/145
f 398/25/145 399/54/145 397/52/145
f 399/54/145 398/25/145 400/25/145
f 400/25/145 401/85/146 399/54/145
f 401/85/146 400/25/145 402/25/145
f 403/25/145 401/85/146 402/25/145
f 404/25/145 401/85/146 403/25/145
f 401/85/146 404/25/145 405/84/145
f 405/84/145 404/25/145 406/25/145
f 407/25/145 405/84/145 406/25/145
f 405/84/145 407/25/145 408/83/145
f 409/25/145 408/83/145 407/25/145
f 408/83/145 409/25/145 410/93/145
f 409/25/145 411/25/145 410/93/145
f 412/106/145 395/48/145 413/47/145
f 412/106/145 413/47/145 374/95/145
f 414/107/146 395/48/145 412/106/145
f 414/107/146 396/25/145 395/48/145
f 396/25/145 414/107/146 415/25/145
f 416/25/145 415/25/145 414/107/146
f 417/108/145 416/25/145 414/107/146
f 417/108/145 418/25/145 416/25/145
f 418/25/145 417/108/145 419/25/145
f 419/25/145 417/108/145 420/109/145
f 421/110/145 419/25/145 420/109/145
f 419/25/145 421/110/145 422/25/145
f 421/110/145 423/105/145 422/25/145
f 424/58/147 425/83/73 426/57/148
f 425/83/73 424/58/147 427/27/149
f 428/28/150 427/27/149 424/58/147
f 429/57/73 430/93/151 431/28/152
f 430/93/151 432/27/153 431/28/152
f 429/57/73 433/83/148 430/93/151
f 434/97/133 435/79/133 436/98/154
f 437/94/142 435/79/133 434/97/133
f 437/94/142 438/73/141 435/79/133
f 435/79/133 439/80/155 436/98/154
f 440/77/77 436/98/154 439/80/155
f 441/92/77 436/98/154 440/77/77
f 440/77/77 442/91/106 441/92/77
f 442/91/106 440/77/77 443/76/108
f 438/73/156 444/94/157 445/72/158
f 446/86/132 445/72/158 444/94/157
f 445/72/158 446/86/132 447/71/105
f 448/86/105 449/74/159 447/71/69
f 449/74/159 448/86/105 450/89/160
f 450/89/160 451/75/148 449/74/159
f 451/75/148 450/89/160 452/90/73
f 453/97/133 454/79/133 455/82/134
f 453/97/133 455/82/134 456/88/135
f 453/97/133 457/80/130 454/79/133
f 457/80/130 453/97/133 458/98/161
f 457/80/130 458/98/161 459/92/69
f 457/80/130 459/92/69 460/77/69
f 459/92/69 461/76/102 460/77/69
f 461/76/102 459/92/69 462/91/101
f 456/88/162 463/82/163 464/87/164
f 465/71/77 464/87/164 463/82/163
f 465/71/77 466/86/109 464/87/164
f 467/89/165 466/86/77 468/71/109
f 469/74/166 467/89/165 468/71/109
f 469/74/166 470/90/148 467/89/165
f 470/90/148 469/74/166 471/75/73
f 472/91/149 473/90/73 474/76/150
f 474/76/150 473/90/73 475/75/148
f 476/90/148 477/91/153 478/75/73
f 478/75/73 477/91/153 479/76/152
f 480/111/167 481/112/167 482/113/168
f 480/111/167 482/113/168 483/114/169
f 484/115/170 481/112/167 480/111/167
f 484/115/170 485/116/171 481/112/167
f 486/117/172 487/118/173 488/119/174
f 487/118/173 486/117/172 489/120/175
f 490/121/176 488/119/174 487/118/173
f 490/121/176 491/122/177 488/119/174
f 492/123/133 493/124/178 494/125/133
f 495/126/133 492/123/133 494/125/133
f 493/124/178 492/123/133 496/127/179
f 496/127/179 497/128/175 493/124/178
f 497/128/175 496/127/179 498/129/172
f 495/126/133 499/130/133 492/123/133
f 499/130/133 495/126/133 500/131/133
f 501/132/180 499/130/133 500/131/133
f 501/132/180 502/133/180 499/130/133
f 501/132/180 503/134/171 502/133/180
f 503/134/171 501/132/180 504/135/170
f 505/84/160 506/83/73 507/56/181
f 507/56/181 506/83/73 508/57/148
f 507/56/181 509/85/105 505/84/160
f 509/85/105 507/56/181 510/55/69
f 511/84/182 512/55/109 513/56/108
f 512/55/109 511/84/182 514/85/77
f 515/57/73 511/84/182 513/56/108
f 515/57/73 516/83/148 511/84/182
f 517/54/157 518/85/132 519/53/156
f 519/53/156 518/85/132 520/55/131
f 521/51/162 522/55/136 523/85/137
f 522/55/136 521/51/162 524/50/163
