# Blender 5.1.2
# www.blender.org
mtllib 70664687899520.mtl
o 70664687899520
v 0.786329 0.301125 -0.016860
v 0.786329 0.288265 -0.029721
v 0.786329 0.317969 -0.023837
v 0.786329 0.317969 -0.042024
v 0.786329 0.275960 -0.000016
v 0.786329 0.334812 -0.016860
v 0.786329 0.294148 -0.000016
v 0.786329 0.347673 -0.029721
v 0.786329 0.288265 0.029688
v 0.786329 0.359978 -0.000016
v 0.786329 0.301125 0.016828
v 0.786329 0.341790 -0.000016
v 0.786329 0.317969 0.023805
v 0.786329 0.347673 0.029688
v 0.786329 0.317969 0.041992
v 0.786329 0.334812 0.016828
v 0.770349 0.317969 -0.049643
v 0.786329 0.288265 -0.029721
v 0.770349 0.282877 -0.035108
v 0.770349 0.268342 -0.000016
v 0.786329 0.317969 -0.042024
v 0.786329 0.275960 -0.000016
v 0.786329 0.347673 -0.029721
v 0.786329 0.288265 0.029688
v 0.770349 0.353061 -0.035108
v 0.770349 0.282877 0.035075
v 0.770349 0.367596 -0.000016
v 0.770349 0.317969 0.049611
v 0.786329 0.359978 -0.000016
v 0.786329 0.317969 0.041992
v 0.786329 0.347673 0.029688
v 0.770349 0.353061 0.035075
v 0.747820 0.158740 -0.015072
v 0.747820 0.284079 -0.015072
v 0.747820 0.284079 0.015044
v 0.747820 0.158740 0.015044
v 0.786329 0.317969 -0.023837
v 0.589975 0.317969 -0.023838
v 0.786329 0.301125 -0.016860
v 0.589975 0.334812 -0.016861
v 0.786329 0.334812 -0.016860
v 0.589975 0.341790 -0.000017
v 0.786329 0.341790 -0.000016
v 0.589975 0.334812 0.016827
v 0.786329 0.334812 0.016828
v 0.589975 0.317969 0.023804
v 0.786329 0.317969 0.023805
v 0.589975 0.301125 -0.016861
v 0.589975 0.301125 0.016827
v 0.786329 0.301125 0.016828
v 0.786329 0.294148 -0.000016
v 0.589975 0.294148 -0.000017
v 0.439201 0.118926 0.056515
v 0.439201 0.118926 -0.056541
v 0.469201 0.178925 -0.056541
v 0.469201 0.178925 0.056515
v -0.403219 -0.367988 -0.069343
v -0.403219 -0.367988 0.069343
v -0.457973 -0.447595 -0.069343
v -0.421317 -0.337051 -0.069343
v -0.457973 -0.447595 0.069343
v -0.421317 -0.337051 0.069343
v -0.763801 -0.447595 -0.069343
v -0.566049 -0.302051 0.069343
v -0.763801 -0.447595 0.069343
v -0.566049 -0.302051 -0.069343
v -0.783802 -0.427596 0.069343
v -0.748416 -0.304551 0.069343
v -0.783802 -0.427596 -0.069343
v -0.748416 -0.304551 -0.069343
v -0.838783 -0.427596 0.069343
v -0.785261 -0.276506 0.069343
v -0.838783 -0.427596 -0.069343
v -0.785261 -0.276506 -0.069343
v -0.882764 -0.330082 0.069343
v -0.856863 -0.276506 -0.069343
v -0.882764 -0.330082 -0.069343
v -0.856863 -0.276506 0.069343
v 0.439201 0.118926 -0.056541
v 0.451548 0.168790 -0.069642
v 0.469201 0.178925 -0.056541
v 0.430791 0.130138 -0.069936
v 0.439201 0.118926 0.056515
v 0.451548 0.168790 0.069617
v 0.430791 0.130138 0.069910
v 0.469201 0.178925 0.056515
v -0.382363 -0.065490 0.056515
v -0.202363 0.158925 0.056515
v -0.382363 -0.065490 -0.056541
v -0.202363 0.158925 -0.056541
v -0.931574 -0.410630 -0.022259
v -0.931574 -0.410630 0.022258
v -0.986329 -0.367988 -0.022259
v -0.785040 -0.410630 -0.022259
v -0.986329 -0.367988 0.022258
v -0.785040 -0.410630 0.022258
v -0.968230 -0.337051 0.022258
v -0.785040 -0.303301 -0.022259
v -0.968230 -0.337051 -0.022259
v -0.785040 -0.303301 0.022258
v -0.853497 -0.303301 -0.022259
v -0.853497 -0.303301 0.022258
v -0.202363 0.158925 -0.056541
v -0.362203 -0.055817 -0.069566
v -0.382363 -0.065490 -0.056541
v -0.196898 0.147537 -0.070019
v -0.202363 0.158925 0.056515
v -0.382363 -0.065490 0.056515
v -0.362203 -0.055817 0.069541
v -0.196898 0.147537 0.069993
v 0.237637 0.118926 -0.056541
v 0.237637 0.118926 0.056515
v 0.277638 0.178925 -0.056541
v 0.117637 0.118926 -0.056541
v 0.277638 0.178925 0.056515
v 0.469201 0.178925 0.056515
v 0.469201 0.178925 -0.056541
v 0.117637 0.118926 0.056515
v 0.077638 0.158925 -0.056541
v 0.077638 0.158925 0.056515
v -0.202363 0.158925 -0.056541
v -0.202363 0.158925 0.056515
v 0.277638 0.178925 -0.056541
v 0.469201 0.178925 -0.056541
v 0.451548 0.168790 -0.069642
v 0.284031 0.167599 -0.070004
v 0.237637 0.118926 -0.056541
v 0.243822 0.108088 -0.069676
v 0.111996 0.107969 -0.069690
v 0.117637 0.118926 -0.056541
v 0.071928 0.147526 -0.069958
v 0.077638 0.158925 -0.056541
v -0.202363 0.158925 -0.056541
v -0.196898 0.147537 -0.070019
v 0.277638 0.178925 0.056515
v 0.451548 0.168790 0.069617
v 0.469201 0.178925 0.056515
v 0.284031 0.167599 0.069978
v 0.237637 0.118926 0.056515
v 0.243822 0.108088 0.069651
v 0.111996 0.107969 0.069665
v 0.117637 0.118926 0.056515
v 0.071928 0.147526 0.069932
v 0.077638 0.158925 0.056515
v -0.202363 0.158925 0.056515
v -0.196898 0.147537 0.069993
v -0.209134 0.282877 0.035075
v -0.209134 0.317969 0.049611
v -0.209134 0.353061 0.035075
v -0.209134 0.367596 -0.000016
v -0.209134 0.268342 -0.000016
v -0.209134 0.317969 -0.049643
v -0.209134 0.282877 -0.035108
v -0.209134 0.353061 -0.035108
v -0.869521 -0.330258 -0.080619
v -0.789309 -0.288506 -0.080619
v -0.752390 -0.316607 -0.080619
v -0.849336 -0.288506 -0.080619
v -0.831030 -0.415595 -0.080619
v -0.778831 -0.415595 -0.080619
v -0.758831 -0.435596 -0.080619
v -0.567398 -0.314071 -0.080619
v -0.464284 -0.435596 -0.080619
v -0.429099 -0.347515 -0.080619
v -0.417427 -0.367468 -0.080619
v -0.752390 -0.316607 0.080619
v -0.758831 -0.435596 0.080619
v -0.567398 -0.314071 0.080619
v -0.464284 -0.435596 0.080619
v -0.429099 -0.347515 0.080619
v -0.417427 -0.367468 0.080619
v -0.778831 -0.415595 0.080619
v -0.831030 -0.415595 0.080619
v -0.869521 -0.330258 0.080619
v -0.789309 -0.288506 0.080619
v -0.849336 -0.288506 0.080619
v -0.785261 -0.276506 -0.069343
v -0.849336 -0.288506 -0.080619
v -0.856863 -0.276506 -0.069343
v -0.882764 -0.330082 -0.069343
v -0.789309 -0.288506 -0.080619
v -0.869521 -0.330258 -0.080619
v -0.748416 -0.304551 -0.069343
v -0.831030 -0.415595 -0.080619
v -0.752390 -0.316607 -0.080619
v -0.838783 -0.427596 -0.069343
v -0.567398 -0.314071 -0.080619
v -0.783802 -0.427596 -0.069343
v -0.566049 -0.302051 -0.069343
v -0.778831 -0.415595 -0.080619
v -0.429099 -0.347515 -0.080619
v -0.758831 -0.435596 -0.080619
v -0.421317 -0.337051 -0.069343
v -0.763801 -0.447595 -0.069343
v -0.417427 -0.367468 -0.080619
v -0.464284 -0.435596 -0.080619
v -0.403219 -0.367988 -0.069343
v -0.457973 -0.447595 -0.069343
v -0.785261 -0.276506 0.069343
v -0.856863 -0.276506 0.069343
v -0.849336 -0.288506 0.080619
v -0.882764 -0.330082 0.069343
v -0.789309 -0.288506 0.080619
v -0.869521 -0.330258 0.080619
v -0.748416 -0.304551 0.069343
v -0.831030 -0.415595 0.080619
v -0.752390 -0.316607 0.080619
v -0.838783 -0.427596 0.069343
v -0.567398 -0.314071 0.080619
v -0.783802 -0.427596 0.069343
v -0.566049 -0.302051 0.069343
v -0.778831 -0.415595 0.080619
v -0.429099 -0.347515 0.080619
v -0.758831 -0.435596 0.080619
v -0.421317 -0.337051 0.069343
v -0.763801 -0.447595 0.069343
v -0.417427 -0.367468 0.080619
v -0.464284 -0.435596 0.080619
v -0.403219 -0.367988 0.069343
v -0.457973 -0.447595 0.069343
v 0.243822 0.108088 -0.069676
v 0.330537 0.129684 -0.069636
v 0.290419 0.070226 -0.069958
v 0.151844 0.069829 -0.069688
v 0.284031 0.167599 -0.070004
v 0.451548 0.168790 -0.069642
v 0.430791 0.130138 -0.069936
v 0.111996 0.107969 -0.069690
v 0.111688 0.020294 -0.069991
v 0.071928 0.147526 -0.069958
v -0.196898 0.147537 -0.070019
v -0.237601 0.019877 -0.069711
v -0.362203 -0.055817 -0.069566
v -0.297810 -0.054102 -0.070018
v 0.151844 0.069829 0.069662
v 0.290419 0.070226 0.069932
v 0.243822 0.108088 0.069651
v 0.330537 0.129684 0.069610
v 0.111996 0.107969 0.069665
v 0.284031 0.167599 0.069978
v 0.451548 0.168790 0.069617
v 0.430791 0.130138 0.069910
v 0.111688 0.020294 0.069965
v 0.071928 0.147526 0.069932
v -0.196898 0.147537 0.069993
v -0.237601 0.019877 0.069686
v -0.362203 -0.055817 0.069541
v -0.297810 -0.054102 0.069992
v -0.763260 -0.060722 -0.064575
v -0.304886 -0.060722 -0.064575
v -0.377829 -0.123977 -0.064575
v -0.304535 -0.113954 -0.064575
v -0.293639 -0.086584 -0.064575
v -0.430905 -0.204650 -0.064575
v -0.814244 -0.352582 -0.064575
v -0.423983 -0.352582 -0.064575
v -0.409238 -0.277015 -0.064575
v -0.814244 -0.352582 0.064549
v -0.430905 -0.204650 0.064549
v -0.763260 -0.060722 0.064549
v -0.423983 -0.352582 0.064549
v -0.409238 -0.277015 0.064549
v -0.377829 -0.123977 0.064549
v -0.304886 -0.060722 0.064549
v -0.304535 -0.113954 0.064549
v -0.293639 -0.086584 0.064549
v -0.412362 -0.366881 -0.053134
v -0.835895 -0.366881 -0.053134
v -0.814244 -0.352582 -0.064575
v -0.777000 -0.046882 -0.053134
v -0.423983 -0.352582 -0.064575
v -0.763260 -0.060722 -0.064575
v -0.393265 -0.274881 -0.053134
v -0.298293 -0.046882 -0.053134
v -0.409238 -0.277015 -0.064575
v -0.304886 -0.060722 -0.064575
v -0.416052 -0.202881 -0.053134
v -0.280222 -0.085326 -0.053134
v -0.430905 -0.204650 -0.064575
v -0.293639 -0.086584 -0.064575
v -0.377829 -0.123977 -0.064575
v -0.304535 -0.113954 -0.064575
v -0.368176 -0.134882 -0.053134
v -0.295971 -0.124882 -0.053134
v -0.292363 -0.065490 -0.056541
v -0.382363 -0.065490 -0.056541
v -0.362203 -0.055817 -0.069566
v -0.297810 -0.054102 -0.070018
v -0.393265 -0.274881 0.053108
v -0.423983 -0.352582 0.064549
v -0.412362 -0.366881 0.053108
v -0.409238 -0.277015 0.064549
v -0.814244 -0.352582 0.064549
v -0.416052 -0.202881 0.053108
v -0.835895 -0.366881 0.053108
v -0.430905 -0.204650 0.064549
v -0.777000 -0.046882 0.053108
v -0.377829 -0.123977 0.064549
v -0.763260 -0.060722 0.064549
v -0.368176 -0.134882 0.053108
v -0.298293 -0.046882 0.053108
v -0.304535 -0.113954 0.064549
v -0.304886 -0.060722 0.064549
v -0.295971 -0.124882 0.053108
v -0.280222 -0.085326 0.053108
v -0.293639 -0.086584 0.064549
v -0.292363 -0.065490 0.056515
v -0.362203 -0.055817 0.069541
v -0.382363 -0.065490 0.056515
v -0.297810 -0.054102 0.069992
v -0.835895 -0.366881 0.053108
v -0.416052 -0.202881 0.053108
v -0.777000 -0.046882 0.053108
v -0.412362 -0.366881 0.053108
v -0.393265 -0.274881 0.053108
v -0.368176 -0.134882 0.053108
v -0.298293 -0.046882 0.053108
v -0.295971 -0.124882 0.053108
v -0.280222 -0.085326 0.053108
v -0.797039 -0.315301 -0.033254
v -0.797039 -0.398629 -0.033254
v -0.852118 -0.315301 -0.033254
v -0.925978 -0.398629 -0.033254
v -0.960478 -0.347565 -0.033254
v -0.971702 -0.366752 -0.033254
v -0.797039 -0.398629 0.033253
v -0.852118 -0.315301 0.033253
v -0.925978 -0.398629 0.033253
v -0.797039 -0.315301 0.033253
v -0.960478 -0.347565 0.033253
v -0.971702 -0.366752 0.033253
v -0.382363 -0.065490 -0.056541
v -0.292363 -0.065490 -0.056541
v -0.382363 -0.065490 0.056515
v -0.292363 -0.065490 0.056515
v -0.968230 -0.337051 -0.022259
v -0.971702 -0.366752 -0.033254
v -0.986329 -0.367988 -0.022259
v -0.931574 -0.410630 -0.022259
v -0.960478 -0.347565 -0.033254
v -0.925978 -0.398629 -0.033254
v -0.853497 -0.303301 -0.022259
v -0.797039 -0.398629 -0.033254
v -0.852118 -0.315301 -0.033254
v -0.785040 -0.410630 -0.022259
v -0.797039 -0.315301 -0.033254
v -0.785040 -0.303301 -0.022259
v -0.968230 -0.337051 0.022258
v -0.986329 -0.367988 0.022258
v -0.971702 -0.366752 0.033253
v -0.931574 -0.410630 0.022258
v -0.960478 -0.347565 0.033253
v -0.925978 -0.398629 0.033253
v -0.853497 -0.303301 0.022258
v -0.797039 -0.398629 0.033253
v -0.852118 -0.315301 0.033253
v -0.785040 -0.410630 0.022258
v -0.797039 -0.315301 0.033253
v -0.785040 -0.303301 0.022258
v 0.430791 0.130138 -0.069936
v 0.337638 0.118926 -0.056541
v 0.330537 0.129684 -0.069636
v 0.439201 0.118926 -0.056541
v 0.290419 0.070226 -0.069958
v 0.297637 0.058926 -0.056541
v 0.157638 0.058926 -0.056541
v 0.151844 0.069829 -0.069688
v 0.111688 0.020294 -0.069991
v 0.117637 0.008925 -0.056541
v -0.232363 0.008925 -0.056541
v -0.237601 0.019877 -0.069711
v -0.297810 -0.054102 -0.070018
v -0.292363 -0.065490 -0.056541
v 0.337638 0.118926 0.056515
v 0.439201 0.118926 0.056515
v 0.430791 0.130138 0.069910
v 0.330537 0.129684 0.069610
v 0.290419 0.070226 0.069932
v 0.297637 0.058926 0.056515
v 0.157638 0.058926 0.056515
v 0.151844 0.069829 0.069662
v 0.111688 0.020294 0.069965
v 0.117637 0.008925 0.056515
v -0.232363 0.008925 0.056515
v -0.237601 0.019877 0.069686
v -0.297810 -0.054102 0.069992
v -0.292363 -0.065490 0.056515
v 0.747820 0.158740 -0.015072
v 0.710968 0.232696 -0.015072
v 0.747820 0.284079 -0.015072
v 0.710968 0.158740 -0.015072
v 0.692540 0.241947 -0.015072
v 0.563554 0.284079 -0.015072
v 0.618834 0.241947 -0.015072
v 0.674113 0.232696 -0.015072
v 0.600407 0.232696 -0.015072
v 0.563554 0.181774 -0.015072
v 0.600407 0.181773 -0.015072
v 0.637261 0.232696 -0.015072
v 0.637261 0.189574 -0.015072
v 0.674113 0.189574 -0.015072
v 0.618834 0.241947 0.015044
v 0.674113 0.232696 0.015044
v 0.692540 0.241947 0.015044
v 0.637261 0.232696 0.015044
v 0.674113 0.189574 0.015044
v 0.637261 0.189574 0.015044
v 0.563554 0.284079 0.015044
v 0.600407 0.232696 0.015044
v 0.563554 0.181774 0.015044
v 0.600407 0.181773 0.015044
v 0.747820 0.284079 0.015044
v 0.710968 0.232696 0.015044
v 0.747820 0.158740 0.015044
v 0.710968 0.158740 0.015044
v 0.297637 0.058926 0.056515
v 0.297637 0.058926 -0.056541
v 0.337638 0.118926 -0.056541
v 0.157638 0.058926 0.056515
v 0.337638 0.118926 0.056515
v 0.439201 0.118926 -0.056541
v 0.439201 0.118926 0.056515
v 0.157638 0.058926 -0.056541
v 0.117637 0.008925 0.056515
v 0.117637 0.008925 -0.056541
v -0.232363 0.008925 0.056515
v -0.232363 0.008925 -0.056541
v -0.292363 -0.065490 0.056515
v -0.292363 -0.065490 -0.056541
v 0.637261 0.189574 -0.015072
v 0.637261 0.232696 0.015044
v 0.637261 0.232696 -0.015072
v 0.637261 0.189574 0.015044
v 0.618834 0.241947 -0.015072
v 0.618834 0.241947 0.015044
v 0.600407 0.232696 -0.015072
v 0.600407 0.232696 0.015044
v 0.600407 0.181773 0.015044
v 0.600407 0.181773 -0.015072
v 0.747820 0.158740 -0.015072
v 0.747820 0.158740 0.015044
v 0.710968 0.158740 -0.015072
v 0.710968 0.158740 0.015044
v 0.600407 0.181773 -0.015072
v 0.600407 0.181773 0.015044
v 0.563554 0.181774 -0.015072
v 0.563554 0.181774 0.015044
v 0.674113 0.189574 0.015044
v 0.637261 0.189574 -0.015072
v 0.674113 0.189574 -0.015072
v 0.637261 0.189574 0.015044
v -0.412362 -0.366881 -0.053134
v -0.393265 -0.274881 -0.053134
v -0.412362 -0.366881 0.053108
v -0.835895 -0.366881 -0.053134
v -0.393265 -0.274881 0.053108
v -0.835895 -0.366881 0.053108
v -0.416052 -0.202881 -0.053134
v -0.777000 -0.046882 0.053108
v -0.416052 -0.202881 0.053108
v -0.777000 -0.046882 -0.053134
v -0.368176 -0.134882 -0.053134
v -0.298293 -0.046882 -0.053134
v -0.368176 -0.134882 0.053108
v -0.298293 -0.046882 0.053108
v -0.295971 -0.124882 -0.053134
v -0.280222 -0.085326 0.053108
v -0.295971 -0.124882 0.053108
v -0.280222 -0.085326 -0.053134
v 0.770349 0.317969 -0.049643
v -0.209134 0.282877 -0.035108
v -0.209134 0.317969 -0.049643
v 0.770349 0.282877 -0.035108
v 0.770349 0.353061 -0.035108
v -0.209134 0.268342 -0.000016
v -0.209134 0.353061 -0.035108
v 0.770349 0.268342 -0.000016
v 0.770349 0.367596 -0.000016
v -0.209134 0.282877 0.035075
v -0.209134 0.367596 -0.000016
v 0.770349 0.282877 0.035075
v 0.770349 0.353061 0.035075
v 0.770349 0.317969 0.049611
v -0.209134 0.353061 0.035075
v -0.209134 0.317969 0.049611
v 0.563554 0.181774 0.015044
v 0.563554 0.284079 -0.015072
v 0.563554 0.181774 -0.015072
v 0.563554 0.284079 0.015044
v 0.710968 0.158740 -0.015072
v 0.710968 0.232696 0.015044
v 0.710968 0.232696 -0.015072
v 0.710968 0.158740 0.015044
v 0.692540 0.241947 -0.015072
v 0.692540 0.241947 0.015044
v 0.674113 0.232696 -0.015072
v 0.674113 0.232696 0.015044
v 0.674113 0.189574 0.015044
v 0.674113 0.189574 -0.015072
vn 1.0000 0.0005 0.0005
vn 0.4305 0.0003 -0.9026
vn 0.4304 -0.6383 -0.6383
vn 0.4305 -0.9026 0.0005
vn 0.4304 0.6383 -0.6383
vn 0.4304 -0.6383 0.6383
vn 0.4305 0.9026 0.0005
vn 0.4305 0.0006 0.9026
vn 0.4305 0.0005 0.9026
vn 0.4304 0.6383 0.6383
vn 0.0005 0.0005 1.0000
vn 0.6306 0.0005 0.7761
vn 0.0005 0.7071 0.7071
vn 0.6308 -0.5487 0.5487
vn -0.0000 -0.7071 0.7071
vn 0.6306 -0.7761 0.0005
vn 0.0005 -1.0000 0.0005
vn 0.6306 -0.5488 -0.5488
vn -0.0000 -0.7071 -0.7071
vn 0.6306 0.0005 -0.7761
vn 0.0005 0.0005 -1.0000
vn 0.6307 0.5487 0.5487
vn 0.6307 0.5487 -0.5487
vn 0.0005 0.7071 -0.7071
vn 0.0005 1.0000 0.0005
vn 0.6305 0.7762 0.0004
vn 0.8945 -0.4470 0.0004
vn 0.8945 -0.4470 0.0005
vn 0.8945 -0.4471 0.0003
vn 0.9993 -0.0366 0.0004
vn 0.9993 -0.0366 0.0005
vn 0.4656 -0.8850 0.0003
vn 0.5965 0.8026 0.0005
vn 0.4657 -0.8849 0.0005
vn 0.5964 0.8027 0.0007
vn -0.3826 -0.9239 0.0005
vn 0.1116 0.9938 -0.0000
vn -0.3826 -0.9239 0.0003
vn 0.1118 0.9937 0.0004
vn 0.3130 0.9497 0.0003
vn -0.3827 -0.9239 -0.0000
vn -0.5428 -0.8399 0.0004
vn 0.3199 0.9474 0.0003
vn -0.5427 -0.8399 0.0003
vn 0.3200 0.9474 0.0004
vn -0.9999 0.0132 0.0003
vn -0.5309 0.8474 0.0005
vn 0.6636 -0.3394 -0.6666
vn 0.6637 -0.3394 -0.6666
vn 0.6636 -0.3394 0.6666
vn 0.6637 -0.3394 0.6666
vn -0.7801 0.6257 0.0003
vn -0.7801 0.6257 0.0005
vn -0.3248 -0.9458 0.0003
vn -0.3247 -0.9458 0.0005
vn -0.9820 -0.1889 0.0003
vn 0.7071 -0.7071 -0.0000
vn -0.9820 -0.1890 0.0005
vn -0.6159 0.7878 0.0004
vn 0.7071 0.7071 -0.0000
vn -0.1420 0.9899 0.0006
vn -0.1421 0.9899 0.0005
vn -0.6098 0.4917 -0.6216
vn -0.6099 0.4917 -0.6215
vn -0.6098 0.4917 0.6216
vn -0.6099 0.4917 0.6215
vn -0.4715 0.8819 0.0005
vn -0.4715 0.8819 0.0004
vn 0.3826 0.9239 0.0003
vn 0.3827 0.9239 -0.0000
vn 0.3826 0.9239 0.0005
vn -0.3436 0.6417 -0.6857
vn -0.0024 0.7783 -0.6278
vn -0.3375 0.6453 -0.6854
vn -0.3357 0.6407 -0.6905
vn -0.3443 0.6354 -0.6911
vn 0.2868 0.6716 -0.6831
vn 0.2663 0.6815 -0.6816
vn 0.2672 0.6765 -0.6862
vn 0.2849 0.6690 -0.6865
vn 0.0005 0.7629 -0.6466
vn 0.0005 0.7628 -0.6466
vn -0.3436 0.6417 0.6857
vn -0.0024 0.7783 0.6278
vn -0.3375 0.6453 0.6854
vn -0.3357 0.6407 0.6905
vn -0.3443 0.6354 0.6911
vn 0.2867 0.6716 0.6832
vn 0.2663 0.6815 0.6816
vn 0.2672 0.6765 0.6863
vn 0.2849 0.6690 0.6865
vn 0.0005 0.7629 0.6466
vn 0.0005 0.7628 0.6466
vn -1.0000 0.0005 0.0005
vn 0.0004 0.0004 -1.0000
vn 0.0004 0.0004 1.0000
vn 0.2125 0.6301 -0.7469
vn -0.3310 0.5276 -0.7824
vn -0.3309 0.5276 -0.7824
vn -0.6482 0.0083 -0.7615
vn 0.2126 0.6297 -0.7472
vn -0.6481 0.0082 -0.7615
vn 0.2075 0.6306 -0.7479
vn -0.3362 -0.5204 -0.7850
vn -0.3365 -0.5202 -0.7849
vn 0.0756 0.6777 -0.7314
vn -0.2509 -0.6056 -0.7552
vn 0.0757 0.6777 -0.7314
vn 0.3903 0.5249 -0.7564
vn -0.2509 -0.6057 -0.7551
vn 0.6210 -0.0227 -0.7835
vn 0.2976 -0.5662 -0.7687
vn 0.6212 -0.0231 -0.7833
vn 0.2976 -0.5660 -0.7688
vn 0.2125 0.6298 0.7471
vn -0.3309 0.5276 0.7824
vn -0.3310 0.5276 0.7824
vn -0.6481 0.0081 0.7615
vn 0.2125 0.6301 0.7469
vn -0.6481 0.0080 0.7615
vn 0.2075 0.6306 0.7479
vn -0.3365 -0.5202 0.7849
vn 0.2076 0.6306 0.7478
vn 0.0756 0.6777 0.7314
vn -0.2509 -0.6056 0.7552
vn 0.0761 0.6776 0.7314
vn 0.3903 0.5249 0.7564
vn -0.2509 -0.6057 0.7551
vn 0.6211 -0.0230 0.7834
vn 0.2976 -0.5662 0.7687
vn 0.6212 -0.0231 0.7833
vn 0.2976 -0.5660 0.7688
vn -0.0005 -0.0005 -1.0000
vn -0.0005 -0.0004 -1.0000
vn -0.0005 -0.0005 1.0000
vn -0.0005 -0.0004 1.0000
vn 0.3268 -0.4060 -0.8534
vn -0.3375 -0.2486 -0.9079
vn -0.2907 -0.3122 -0.9044
vn -0.3131 0.3766 -0.8719
vn 0.3278 -0.4050 -0.8535
vn -0.2840 0.4062 -0.8686
vn 0.5927 0.0347 -0.8047
vn 0.3062 0.5075 -0.8054
vn 0.5935 0.0220 -0.8045
vn 0.3494 0.4832 -0.8028
vn 0.5849 -0.1344 -0.7999
vn 0.6553 0.0249 -0.7550
vn 0.5868 -0.0572 -0.8077
vn 0.6560 0.0063 -0.7547
vn 0.3602 -0.5341 -0.7648
vn 0.3914 -0.4999 -0.7726
vn 0.3199 -0.5612 -0.7634
vn 0.3922 -0.4997 -0.7723
vn 0.0073 -0.7848 -0.6197
vn 0.5927 0.0347 0.8047
vn 0.3278 -0.4050 0.8535
vn 0.3268 -0.4060 0.8534
vn 0.5935 0.0220 0.8045
vn -0.2907 -0.3122 0.9044
vn 0.5849 -0.1344 0.7999
vn -0.3375 -0.2486 0.9079
vn 0.5868 -0.0572 0.8077
vn -0.3131 0.3766 0.8719
vn 0.3602 -0.5341 0.7648
vn -0.2840 0.4062 0.8686
vn 0.3199 -0.5612 0.7634
vn 0.3062 0.5075 0.8054
vn 0.3914 -0.4999 0.7726
vn 0.3493 0.4832 0.8028
vn 0.3922 -0.4997 0.7723
vn 0.6553 0.0249 0.7550
vn 0.6560 0.0063 0.7547
vn 0.0073 -0.7848 0.6197
vn -0.3962 0.5114 -0.7626
vn -0.5571 -0.1440 -0.8178
vn -0.5682 -0.0855 -0.8184
vn -0.2253 -0.6289 -0.7442
vn -0.4019 0.5074 -0.7623
vn -0.2007 -0.6353 -0.7457
vn -0.0943 0.6638 -0.7419
vn 0.3845 -0.3845 -0.8393
vn -0.0972 0.6631 -0.7422
vn 0.3845 0.3845 -0.8392
vn 0.3847 0.3847 -0.8391
vn -0.3962 0.5115 0.7625
vn -0.5682 -0.0855 0.8184
vn -0.5571 -0.1440 0.8178
vn -0.2253 -0.6289 0.7442
vn -0.4019 0.5074 0.7623
vn -0.2007 -0.6353 0.7457
vn -0.0943 0.6638 0.7419
vn 0.3845 -0.3845 0.8393
vn -0.0972 0.6631 0.7422
vn 0.3845 0.3845 0.8392
vn 0.0005 -0.7695 -0.6386
vn 0.3191 -0.6377 -0.7011
vn 0.3454 -0.6218 -0.7029
vn 0.3199 -0.6354 -0.7028
vn 0.3425 -0.6220 -0.7041
vn 0.3082 -0.6589 -0.6862
vn 0.3189 -0.6529 -0.6870
vn 0.3082 -0.6579 -0.6872
vn 0.3171 -0.6533 -0.6875
vn 0.3161 -0.6610 -0.6805
vn 0.5965 -0.4812 -0.6424
vn 0.3191 -0.6376 0.7011
vn 0.0005 -0.7695 0.6386
vn 0.3453 -0.6218 0.7029
vn 0.3199 -0.6354 0.7028
vn 0.3425 -0.6220 0.7041
vn 0.3082 -0.6589 0.6862
vn 0.3189 -0.6529 0.6870
vn 0.3082 -0.6579 0.6872
vn 0.3171 -0.6533 0.6875
vn 0.3161 -0.6610 0.6805
vn 0.5965 -0.4812 0.6424
vn 0.4716 -0.8818 0.0004
vn 0.4715 -0.8819 0.0004
vn 0.4333 -0.9012 0.0007
vn 0.4715 -0.8819 0.0005
vn 0.4333 -0.9013 0.0003
vn 0.4333 -0.9012 0.0006
vn 0.4315 -0.9021 -0.0000
vn 0.4314 -0.9022 0.0003
vn 0.7784 -0.6278 0.0004
vn -0.8511 -0.5249 0.0005
vn -0.8511 -0.5250 0.0003
vn 0.8511 -0.5249 0.0005
vn 0.8511 -0.5249 0.0006
vn 0.6316 -0.7753 0.0004
vn 0.9987 0.0512 0.0004
vn 0.6316 -0.7753 0.0005
vn -0.7686 -0.6398 0.0003
vn 0.9987 0.0513 0.0005
vn -0.7686 -0.6397 0.0004
vn 0.9882 -0.1529 0.0003
vn -0.6397 0.7686 0.0004
vn 0.9882 -0.1529 0.0005
vn 0.5205 -0.8538 0.0004
vn 0.5357 0.8444 0.0005
vn 0.5205 -0.8538 0.0005
vn 0.5358 0.8444 0.0004
vn 0.6169 -0.7870 0.0003
vn 0.9995 0.0307 0.0004
vn 0.6170 -0.7870 0.0005
vn -0.0000 0.7071 -0.7071
vn 0.0005 -0.7071 0.7071
vn 0.0003 -0.7071 0.7071
vn 0.0006 0.7071 0.7071
vn 0.0003 0.7071 0.7071
vn -0.8512 -0.5249 0.0007
vt 0.000000 0.000000
s 1
f 1/1/1 2/1/1 3/1/1
f 2/1/1 4/1/1 3/1/1
f 5/1/1 2/1/1 1/1/1
f 4/1/1 6/1/1 3/1/1
f 5/1/1 1/1/1 7/1/1
f 6/1/1 4/1/1 8/1/1
f 7/1/1 9/1/1 5/1/1
f 10/1/1 6/1/1 8/1/1
f 9/1/1 7/1/1 11/1/1
f 6/1/1 10/1/1 12/1/1
f 13/1/1 9/1/1 11/1/1
f 14/1/1 12/1/1 10/1/1
f 9/1/1 13/1/1 15/1/1
f 12/1/1 14/1/1 16/1/1
f 16/1/1 15/1/1 13/1/1
f 15/1/1 16/1/1 14/1/1
f 17/1/2 18/1/3 19/1/3
f 18/1/3 20/1/4 19/1/3
f 18/1/3 17/1/2 21/1/2
f 20/1/4 18/1/3 22/1/4
f 17/1/2 23/1/5 21/1/2
f 24/1/6 20/1/4 22/1/4
f 23/1/5 17/1/2 25/1/5
f 20/1/4 24/1/6 26/1/6
f 27/1/7 23/1/5 25/1/5
f 24/1/6 28/1/8 26/1/6
f 23/1/5 27/1/7 29/1/7
f 28/1/8 24/1/6 30/1/9
f 29/1/7 27/1/7 31/1/10
f 31/1/10 28/1/8 30/1/9
f 27/1/7 32/1/10 31/1/10
f 28/1/8 31/1/10 32/1/10
f 33/1/1 34/1/1 35/1/1
f 33/1/1 35/1/1 36/1/1
f 37/1/11 38/1/12 39/1/13
f 38/1/12 37/1/11 40/1/14
f 41/1/15 40/1/14 37/1/11
f 40/1/14 41/1/15 42/1/16
f 42/1/16 38/1/12 40/1/14
f 43/1/17 42/1/16 41/1/15
f 42/1/16 43/1/17 44/1/18
f 45/1/19 44/1/18 43/1/17
f 46/1/20 42/1/16 44/1/18
f 44/1/18 45/1/19 46/1/20
f 46/1/20 38/1/12 42/1/16
f 47/1/21 46/1/20 45/1/19
f 48/1/22 39/1/13 38/1/12
f 46/1/20 47/1/21 49/1/23
f 50/1/24 49/1/23 47/1/21
f 51/1/25 49/1/23 50/1/24
f 52/1/26 46/1/20 49/1/23
f 49/1/23 51/1/25 52/1/26
f 38/1/12 46/1/20 52/1/26
f 39/1/13 52/1/26 51/1/25
f 38/1/12 52/1/26 48/1/22
f 52/1/26 39/1/13 48/1/22
f 53/1/27 54/1/28 55/1/29
f 55/1/29 56/1/27 53/1/27
f 57/1/30 58/1/31 59/1/32
f 60/1/33 58/1/31 57/1/30
f 59/1/32 58/1/31 61/1/34
f 58/1/31 60/1/33 62/1/35
f 63/1/36 59/1/32 61/1/34
f 60/1/33 64/1/37 62/1/35
f 63/1/36 61/1/34 65/1/38
f 66/1/39 64/1/37 60/1/33
f 67/1/38 63/1/36 65/1/38
f 66/1/39 68/1/40 64/1/37
f 63/1/36 67/1/38 69/1/41
f 70/1/40 68/1/40 66/1/39
f 69/1/41 67/1/38 71/1/42
f 70/1/40 72/1/43 68/1/40
f 71/1/42 73/1/44 69/1/41
f 74/1/45 72/1/43 70/1/40
f 75/1/46 73/1/44 71/1/42
f 76/1/47 72/1/43 74/1/45
f 73/1/44 75/1/46 77/1/46
f 77/1/46 75/1/46 76/1/47
f 72/1/43 76/1/47 78/1/47
f 76/1/47 75/1/46 78/1/47
f 79/1/48 80/1/49 81/1/49
f 80/1/49 79/1/48 82/1/49
f 83/1/50 84/1/51 85/1/51
f 83/1/50 86/1/51 84/1/51
f 87/1/52 88/1/53 89/1/52
f 90/1/53 89/1/52 88/1/53
f 91/1/54 92/1/55 93/1/56
f 94/1/57 92/1/55 91/1/54
f 93/1/56 92/1/55 95/1/58
f 92/1/55 94/1/57 96/1/57
f 93/1/56 95/1/58 97/1/59
f 94/1/57 98/1/60 96/1/57
f 99/1/59 93/1/56 97/1/59
f 100/1/60 96/1/57 98/1/60
f 101/1/61 99/1/59 97/1/59
f 101/1/61 100/1/60 98/1/60
f 101/1/61 97/1/59 102/1/62
f 100/1/60 101/1/61 102/1/62
f 103/1/63 104/1/64 105/1/63
f 104/1/64 103/1/63 106/1/63
f 107/1/65 108/1/66 109/1/65
f 107/1/65 109/1/65 110/1/65
f 111/1/67 112/1/67 113/1/68
f 111/1/67 114/1/69 112/1/67
f 113/1/68 112/1/67 115/1/68
f 116/1/25 113/1/68 115/1/68
f 113/1/68 116/1/25 117/1/25
f 114/1/69 118/1/70 112/1/67
f 118/1/70 114/1/69 119/1/69
f 119/1/69 120/1/71 118/1/70
f 119/1/69 121/1/25 120/1/71
f 122/1/25 120/1/71 121/1/25
f 123/1/72 124/1/73 125/1/73
f 125/1/73 126/1/74 123/1/72
f 126/1/74 127/1/75 123/1/72
f 127/1/75 126/1/74 128/1/76
f 129/1/77 127/1/75 128/1/76
f 127/1/75 129/1/77 130/1/78
f 131/1/79 130/1/78 129/1/77
f 130/1/78 131/1/79 132/1/80
f 131/1/79 133/1/81 132/1/80
f 131/1/79 134/1/82 133/1/81
f 135/1/83 136/1/84 137/1/84
f 136/1/84 135/1/83 138/1/85
f 139/1/86 138/1/85 135/1/83
f 138/1/85 139/1/86 140/1/87
f 141/1/88 140/1/87 139/1/86
f 141/1/88 139/1/86 142/1/89
f 143/1/90 141/1/88 142/1/89
f 142/1/89 144/1/91 143/1/90
f 145/1/92 143/1/90 144/1/91
f 143/1/90 145/1/92 146/1/93
f 147/1/94 148/1/94 149/1/94
f 150/1/94 147/1/94 149/1/94
f 147/1/94 150/1/94 151/1/94
f 150/1/94 152/1/94 151/1/94
f 151/1/94 152/1/94 153/1/94
f 152/1/94 150/1/94 154/1/94
f 155/1/21 156/1/21 157/1/95
f 156/1/21 155/1/21 158/1/21
f 155/1/21 157/1/95 159/1/21
f 157/1/95 160/1/21 159/1/21
f 157/1/95 161/1/21 160/1/21
f 162/1/21 161/1/21 157/1/95
f 162/1/21 163/1/21 161/1/21
f 164/1/21 163/1/21 162/1/21
f 163/1/21 164/1/21 165/1/21
f 166/1/96 167/1/11 168/1/11
f 167/1/11 169/1/11 168/1/11
f 169/1/11 170/1/11 168/1/11
f 170/1/11 169/1/11 171/1/11
f 167/1/11 166/1/96 172/1/11
f 166/1/96 173/1/11 172/1/11
f 173/1/11 166/1/96 174/1/11
f 174/1/11 166/1/96 175/1/11
f 174/1/11 175/1/11 176/1/11
f 177/1/97 178/1/98 179/1/99
f 180/1/100 179/1/99 178/1/98
f 178/1/98 177/1/97 181/1/101
f 180/1/100 178/1/98 182/1/102
f 183/1/103 181/1/101 177/1/97
f 184/1/104 180/1/100 182/1/102
f 181/1/101 183/1/103 185/1/103
f 180/1/100 184/1/104 186/1/105
f 183/1/103 187/1/106 185/1/103
f 188/1/107 186/1/105 184/1/104
f 183/1/103 189/1/108 187/1/106
f 184/1/104 190/1/107 188/1/107
f 189/1/108 191/1/109 187/1/106
f 192/1/110 188/1/107 190/1/107
f 191/1/109 189/1/108 193/1/109
f 188/1/107 192/1/110 194/1/110
f 193/1/109 195/1/111 191/1/109
f 196/1/112 194/1/110 192/1/110
f 193/1/109 197/1/113 195/1/111
f 194/1/110 196/1/112 198/1/114
f 198/1/114 195/1/111 197/1/113
f 195/1/111 198/1/114 196/1/112
f 199/1/115 200/1/116 201/1/117
f 202/1/118 201/1/117 200/1/116
f 199/1/115 201/1/117 203/1/119
f 201/1/117 202/1/118 204/1/120
f 203/1/119 205/1/121 199/1/115
f 202/1/118 206/1/122 204/1/120
f 205/1/121 203/1/119 207/1/123
f 202/1/118 208/1/122 206/1/122
f 209/1/124 205/1/121 207/1/123
f 210/1/125 206/1/122 208/1/122
f 205/1/121 209/1/124 211/1/126
f 206/1/122 210/1/125 212/1/125
f 213/1/127 211/1/126 209/1/124
f 214/1/128 212/1/125 210/1/125
f 211/1/126 213/1/127 215/1/127
f 210/1/125 216/1/128 214/1/128
f 217/1/129 215/1/127 213/1/127
f 216/1/128 218/1/130 214/1/128
f 215/1/127 217/1/129 219/1/131
f 216/1/128 220/1/132 218/1/130
f 220/1/132 219/1/131 217/1/129
f 220/1/132 217/1/129 218/1/130
f 221/1/133 222/1/133 223/1/133
f 221/1/133 223/1/133 224/1/133
f 222/1/133 221/1/133 225/1/133
f 226/1/133 222/1/133 225/1/133
f 222/1/133 226/1/133 227/1/133
f 228/1/133 221/1/133 224/1/133
f 224/1/133 229/1/133 228/1/133
f 229/1/133 230/1/133 228/1/133
f 230/1/133 229/1/133 231/1/133
f 231/1/133 229/1/133 232/1/134
f 233/1/133 231/1/133 232/1/134
f 232/1/134 234/1/133 233/1/133
f 235/1/135 236/1/135 237/1/135
f 237/1/135 236/1/135 238/1/135
f 237/1/135 239/1/135 235/1/135
f 240/1/135 237/1/135 238/1/135
f 238/1/135 241/1/135 240/1/135
f 238/1/135 242/1/135 241/1/135
f 239/1/135 243/1/135 235/1/135
f 244/1/135 243/1/135 239/1/135
f 245/1/135 243/1/135 244/1/135
f 243/1/135 245/1/135 246/1/136
f 245/1/135 247/1/135 246/1/136
f 246/1/136 247/1/135 248/1/135
f 249/1/21 250/1/21 251/1/21
f 250/1/21 252/1/21 251/1/21
f 252/1/21 250/1/21 253/1/21
f 254/1/21 249/1/21 251/1/21
f 249/1/21 254/1/21 255/1/21
f 254/1/21 256/1/21 255/1/21
f 256/1/21 254/1/21 257/1/21
f 258/1/11 259/1/11 260/1/11
f 261/1/11 259/1/11 258/1/11
f 259/1/11 261/1/11 262/1/11
f 260/1/11 259/1/11 263/1/11
f 264/1/11 260/1/11 263/1/11
f 263/1/11 265/1/11 264/1/11
f 264/1/11 265/1/11 266/1/11
f 267/1/137 268/1/138 269/1/139
f 270/1/140 269/1/139 268/1/138
f 267/1/137 269/1/139 271/1/141
f 269/1/139 270/1/140 272/1/142
f 273/1/143 267/1/137 271/1/141
f 274/1/144 272/1/142 270/1/140
f 271/1/141 275/1/145 273/1/143
f 272/1/142 274/1/144 276/1/146
f 277/1/147 273/1/143 275/1/145
f 278/1/148 276/1/146 274/1/144
f 275/1/145 279/1/149 277/1/147
f 276/1/146 278/1/148 280/1/150
f 281/1/151 277/1/147 279/1/149
f 278/1/148 282/1/152 280/1/150
f 277/1/147 281/1/151 283/1/153
f 282/1/152 283/1/153 281/1/151
f 278/1/148 284/1/154 282/1/152
f 283/1/153 282/1/152 284/1/154
f 285/1/155 286/1/155 287/1/155
f 287/1/155 288/1/155 285/1/155
f 289/1/156 290/1/157 291/1/158
f 290/1/157 289/1/156 292/1/159
f 293/1/160 291/1/158 290/1/157
f 294/1/161 292/1/159 289/1/156
f 291/1/158 293/1/160 295/1/162
f 292/1/159 294/1/161 296/1/163
f 293/1/160 297/1/164 295/1/162
f 298/1/165 296/1/163 294/1/161
f 297/1/164 293/1/160 299/1/166
f 298/1/165 294/1/161 300/1/167
f 301/1/168 297/1/164 299/1/166
f 300/1/167 302/1/169 298/1/165
f 301/1/168 299/1/166 303/1/170
f 302/1/169 300/1/167 304/1/171
f 305/1/172 301/1/168 303/1/170
f 305/1/172 302/1/169 304/1/171
f 305/1/172 303/1/170 306/1/173
f 302/1/169 305/1/172 306/1/173
f 307/1/174 308/1/174 309/1/174
f 308/1/174 307/1/174 310/1/174
f 311/1/11 312/1/11 313/1/11
f 314/1/11 312/1/11 311/1/11
f 312/1/11 314/1/11 315/1/11
f 313/1/11 312/1/11 316/1/11
f 317/1/11 313/1/11 316/1/11
f 318/1/11 317/1/11 316/1/11
f 317/1/11 318/1/11 319/1/11
f 320/1/21 321/1/21 322/1/21
f 323/1/21 322/1/21 321/1/21
f 322/1/21 323/1/21 324/1/21
f 324/1/21 323/1/21 325/1/21
f 326/1/11 327/1/11 328/1/11
f 327/1/11 326/1/11 329/1/11
f 328/1/11 327/1/11 330/1/11
f 331/1/11 328/1/11 330/1/11
f 332/1/17 333/1/17 334/1/17
f 333/1/17 335/1/17 334/1/17
f 336/1/175 337/1/176 338/1/177
f 339/1/178 338/1/177 337/1/176
f 337/1/176 336/1/175 340/1/179
f 337/1/176 341/1/180 339/1/178
f 342/1/181 340/1/179 336/1/175
f 343/1/182 339/1/178 341/1/180
f 340/1/179 342/1/181 344/1/183
f 339/1/178 343/1/182 345/1/182
f 342/1/181 346/1/184 344/1/183
f 346/1/184 345/1/182 343/1/182
f 342/1/181 347/1/185 346/1/184
f 345/1/182 346/1/184 347/1/185
f 348/1/186 349/1/187 350/1/188
f 351/1/189 350/1/188 349/1/187
f 348/1/186 350/1/188 352/1/190
f 350/1/188 351/1/189 353/1/191
f 354/1/192 348/1/186 352/1/190
f 351/1/189 355/1/193 353/1/191
f 352/1/190 356/1/194 354/1/192
f 351/1/189 357/1/193 355/1/193
f 358/1/195 354/1/192 356/1/194
f 357/1/193 358/1/195 355/1/193
f 354/1/192 358/1/195 359/1/195
f 357/1/193 359/1/195 358/1/195
f 360/1/196 361/1/197 362/1/198
f 361/1/197 360/1/196 363/1/196
f 364/1/199 362/1/198 361/1/197
f 361/1/197 365/1/200 364/1/199
f 366/1/201 364/1/199 365/1/200
f 364/1/199 366/1/201 367/1/202
f 368/1/203 367/1/202 366/1/201
f 366/1/201 369/1/204 368/1/203
f 370/1/205 368/1/203 369/1/204
f 368/1/203 370/1/205 371/1/205
f 372/1/206 371/1/205 370/1/205
f 370/1/205 373/1/206 372/1/206
f 374/1/207 375/1/208 376/1/208
f 376/1/208 377/1/209 374/1/207
f 378/1/210 374/1/207 377/1/209
f 374/1/207 378/1/210 379/1/211
f 380/1/212 379/1/211 378/1/210
f 378/1/210 381/1/213 380/1/212
f 382/1/214 380/1/212 381/1/213
f 380/1/212 382/1/214 383/1/215
f 384/1/216 383/1/215 382/1/214
f 382/1/214 385/1/216 384/1/216
f 386/1/217 384/1/216 385/1/216
f 384/1/216 386/1/217 387/1/217
f 388/1/21 389/1/21 390/1/21
f 389/1/21 388/1/21 391/1/21
f 390/1/21 389/1/21 392/1/21
f 393/1/21 390/1/21 392/1/21
f 392/1/21 394/1/21 393/1/21
f 395/1/21 394/1/21 392/1/21
f 393/1/21 394/1/21 396/1/21
f 397/1/21 393/1/21 396/1/21
f 396/1/21 398/1/21 397/1/21
f 394/1/21 395/1/21 399/1/21
f 395/1/21 400/1/21 399/1/21
f 400/1/21 395/1/21 401/1/21
f 402/1/11 403/1/11 404/1/11
f 403/1/11 402/1/11 405/1/11
f 405/1/11 406/1/11 403/1/11
f 406/1/11 405/1/11 407/1/11
f 402/1/11 404/1/11 408/1/11
f 408/1/11 409/1/11 402/1/11
f 410/1/11 409/1/11 408/1/11
f 409/1/11 410/1/11 411/1/11
f 408/1/11 404/1/11 412/1/11
f 413/1/11 412/1/11 404/1/11
f 414/1/11 412/1/11 413/1/11
f 414/1/11 413/1/11 415/1/11
f 416/1/218 417/1/219 418/1/218
f 417/1/219 416/1/218 419/1/220
f 418/1/218 420/1/221 416/1/218
f 418/1/218 421/1/17 420/1/221
f 421/1/17 422/1/17 420/1/221
f 423/1/222 417/1/219 419/1/220
f 423/1/222 419/1/220 424/1/222
f 424/1/222 425/1/223 423/1/222
f 424/1/222 426/1/224 425/1/223
f 427/1/225 425/1/223 426/1/224
f 427/1/225 426/1/224 428/1/226
f 429/1/226 427/1/225 428/1/226
f 430/1/94 431/1/227 432/1/228
f 431/1/227 430/1/94 433/1/94
f 432/1/228 431/1/227 434/1/17
f 434/1/17 431/1/227 435/1/17
f 434/1/17 435/1/17 436/1/229
f 436/1/229 435/1/17 437/1/230
f 436/1/229 437/1/230 438/1/1
f 439/1/1 436/1/229 438/1/1
f 440/1/17 441/1/17 442/1/17
f 442/1/17 441/1/17 443/1/17
f 444/1/17 445/1/17 446/1/17
f 446/1/17 445/1/17 447/1/17
f 448/1/17 449/1/17 450/1/17
f 449/1/17 448/1/17 451/1/17
f 452/1/231 453/1/232 454/1/233
f 455/1/234 452/1/231 454/1/233
f 453/1/232 456/1/235 454/1/233
f 455/1/234 454/1/233 457/1/236
f 453/1/232 458/1/237 456/1/235
f 457/1/236 459/1/238 455/1/234
f 458/1/237 460/1/239 456/1/235
f 461/1/238 455/1/234 459/1/238
f 458/1/237 462/1/240 460/1/239
f 463/1/241 461/1/238 459/1/238
f 462/1/240 464/1/242 460/1/239
f 463/1/241 459/1/238 465/1/243
f 462/1/240 466/1/244 464/1/242
f 467/1/245 463/1/241 465/1/243
f 466/1/244 468/1/246 464/1/242
f 463/1/241 467/1/245 469/1/245
f 468/1/246 466/1/244 469/1/245
f 469/1/245 467/1/245 468/1/246
f 470/1/21 471/1/19 472/1/21
f 471/1/19 470/1/21 473/1/19
f 472/1/21 474/1/24 470/1/21
f 473/1/19 475/1/17 471/1/19
f 474/1/24 472/1/21 476/1/247
f 475/1/17 473/1/19 477/1/17
f 474/1/24 476/1/247 478/1/25
f 477/1/17 479/1/248 475/1/17
f 480/1/25 478/1/25 476/1/247
f 479/1/248 477/1/17 481/1/249
f 478/1/25 480/1/25 482/1/250
f 483/1/11 479/1/248 481/1/249
f 484/1/251 482/1/250 480/1/25
f 479/1/248 483/1/11 485/1/11
f 485/1/11 482/1/250 484/1/251
f 482/1/250 485/1/11 483/1/11
f 486/1/94 487/1/94 488/1/94
f 487/1/94 486/1/94 489/1/94
f 490/1/94 491/1/252 492/1/227
f 491/1/252 490/1/94 493/1/94
f 492/1/227 491/1/252 494/1/17
f 494/1/17 491/1/252 495/1/17
f 494/1/17 495/1/17 496/1/229
f 496/1/229 495/1/17 497/1/230
f 496/1/229 497/1/230 498/1/1
f 499/1/1 496/1/229 498/1/1
