# Blender 5.1.2
# www.blender.org
mtllib 98527203675942.mtl
o 98527203675942
v -0.123851 0.402772 -0.051150
v -0.137895 0.367142 -0.051150
v -0.137850 0.406862 -0.051150
v -0.095001 0.432159 -0.051150
v -0.123851 0.369459 -0.051150
v -0.095001 0.419429 -0.051150
v -0.066151 0.402772 -0.051150
v -0.050984 0.406035 -0.051150
v -0.050984 0.368752 -0.051150
v -0.066151 0.369459 -0.051150
v -0.124978 0.348628 -0.051150
v -0.065022 0.348628 -0.051150
v -0.095001 0.352802 -0.051150
v -0.095001 0.312287 -0.051150
v -0.113001 0.300040 -0.051150
v -0.077001 0.300040 -0.051150
v -0.113001 0.218392 -0.051150
v -0.077001 0.218392 -0.051150
v -0.124978 0.166337 -0.051150
v -0.065022 0.161440 -0.051150
v -0.095001 0.206145 -0.051150
v -0.074812 0.158083 -0.051150
v -0.114979 0.150718 -0.051150
v -0.097623 0.130180 -0.051150
v -0.097623 0.101272 -0.051150
v -0.108974 -0.010049 -0.051150
v -0.083432 0.077915 -0.051150
v -0.114979 -0.028763 -0.051150
v -0.084411 -0.036757 -0.051150
v -0.125070 -0.047167 -0.051150
v -0.095001 -0.094968 -0.051150
v -0.063122 -0.036745 -0.051150
v -0.113001 -0.112464 -0.051150
v -0.077001 -0.112464 -0.051150
v -0.113001 -0.229104 -0.051150
v -0.077001 -0.229104 -0.051150
v -0.125202 -0.308829 -0.051150
v -0.063122 -0.310325 -0.051150
v -0.095001 -0.246600 -0.051150
v -0.095001 -0.309246 -0.051150
v -0.066151 -0.325903 -0.051150
v -0.123851 -0.325903 -0.051150
v -0.050160 -0.322590 -0.051150
v -0.139842 -0.323572 -0.051150
v -0.050160 -0.347753 -0.051150
v -0.139842 -0.347753 -0.051150
v -0.066151 -0.359216 -0.051150
v -0.123851 -0.359216 -0.051150
v -0.085568 -0.393601 -0.051150
v -0.104434 -0.393601 -0.051150
v -0.095001 -0.375873 -0.051150
v -0.137895 0.367142 0.051150
v -0.123851 0.402772 0.051150
v -0.137850 0.406862 0.051150
v -0.095001 0.432159 0.051150
v -0.123851 0.369459 0.051150
v -0.095001 0.419429 0.051150
v -0.066151 0.402772 0.051150
v -0.050984 0.406035 0.051150
v -0.050984 0.368752 0.051150
v -0.066151 0.369459 0.051150
v -0.124978 0.348628 0.051150
v -0.065022 0.348628 0.051150
v -0.095001 0.352802 0.051150
v -0.095001 0.312287 0.051150
v -0.113001 0.300040 0.051150
v -0.077001 0.300040 0.051150
v -0.113001 0.218392 0.051150
v -0.077001 0.218392 0.051150
v -0.124978 0.166337 0.051150
v -0.065022 0.161440 0.051150
v -0.095001 0.206145 0.051150
v -0.074812 0.158083 0.051150
v -0.114979 0.150718 0.051150
v -0.097623 0.130180 0.051150
v -0.097623 0.101272 0.051150
v -0.108974 -0.010049 0.051150
v -0.083432 0.077915 0.051150
v -0.114979 -0.028763 0.051150
v -0.084411 -0.036757 0.051150
v -0.125070 -0.047167 0.051150
v -0.095001 -0.094968 0.051150
v -0.063122 -0.036745 0.051150
v -0.113001 -0.112464 0.051150
v -0.077001 -0.112464 0.051150
v -0.113001 -0.229104 0.051150
v -0.077001 -0.229104 0.051150
v -0.125202 -0.308829 0.051150
v -0.063122 -0.310325 0.051150
v -0.095001 -0.246600 0.051150
v -0.095001 -0.309246 0.051150
v -0.066151 -0.325903 0.051150
v -0.050160 -0.322590 0.051150
v -0.123851 -0.325903 0.051150
v -0.050160 -0.347753 0.051150
v -0.139842 -0.323572 0.051150
v -0.066151 -0.359216 0.051150
v -0.139842 -0.347753 0.051150
v -0.085568 -0.393601 0.051150
v -0.123851 -0.359216 0.051150
v -0.095001 -0.375873 0.051150
v -0.104434 -0.393601 0.051150
v -0.050984 0.406035 -0.051150
v -0.033703 0.363344 -0.039549
v -0.050984 0.368752 -0.051150
v -0.034587 0.414532 -0.039522
v -0.047949 0.343260 -0.039979
v -0.095001 0.450278 -0.039430
v -0.065022 0.348628 -0.051150
v -0.095001 0.432159 -0.051150
v -0.065022 0.161440 -0.051150
v -0.137850 0.406862 -0.051150
v -0.049207 0.150263 -0.039683
v -0.155412 0.414448 -0.039653
v -0.064520 0.143479 -0.039923
v -0.156276 0.363430 -0.039686
v -0.074812 0.158083 -0.051150
v -0.137895 0.367142 -0.051150
v -0.080717 0.124152 -0.040066
v -0.142044 0.343266 -0.039996
v -0.097623 0.130180 -0.051150
v -0.124978 0.348628 -0.051150
v -0.097623 0.101272 -0.051150
v -0.124978 0.166337 -0.051150
v -0.080435 0.106076 -0.039939
v -0.142307 0.161266 -0.039562
v -0.083432 0.077915 -0.051150
v -0.132114 0.145704 -0.039972
v -0.065167 0.080308 -0.039570
v -0.114979 0.150718 -0.051150
v -0.091173 -0.006199 -0.040340
v -0.114979 -0.028763 -0.051150
v -0.108974 -0.010049 -0.051150
v -0.132106 -0.023856 -0.040062
v -0.084411 -0.036757 -0.051150
v -0.125070 -0.047167 -0.051150
v -0.077790 -0.019883 -0.040117
v -0.142277 -0.039286 -0.039627
v -0.063122 -0.036745 -0.051150
v -0.141611 -0.300529 -0.040297
v -0.050410 -0.021774 -0.039670
v -0.125202 -0.308829 -0.051150
v -0.048167 -0.300593 -0.039885
v -0.139842 -0.323572 -0.051150
v -0.063122 -0.310325 -0.051150
v -0.156672 -0.314296 -0.039692
v -0.050160 -0.322590 -0.051150
v -0.157036 -0.353619 -0.039550
v -0.033311 -0.314301 -0.039649
v -0.139842 -0.347753 -0.051150
v -0.032965 -0.353619 -0.039550
v -0.104434 -0.393601 -0.051150
v -0.050160 -0.347753 -0.051150
v -0.112614 -0.410278 -0.039579
v -0.085568 -0.393601 -0.051150
v -0.077387 -0.410278 -0.039579
v -0.033703 0.363344 0.039549
v -0.050984 0.406035 0.051150
v -0.050984 0.368752 0.051150
v -0.034587 0.414532 0.039522
v -0.047949 0.343260 0.039979
v -0.095001 0.450278 0.039430
v -0.065022 0.348628 0.051150
v -0.095001 0.432159 0.051150
v -0.065022 0.161440 0.051150
v -0.137850 0.406862 0.051150
v -0.049207 0.150263 0.039683
v -0.155412 0.414448 0.039653
v -0.064520 0.143479 0.039923
v -0.156276 0.363430 0.039686
v -0.074812 0.158083 0.051150
v -0.137895 0.367142 0.051150
v -0.080717 0.124152 0.040066
v -0.142044 0.343266 0.039996
v -0.097623 0.130180 0.051150
v -0.124978 0.348628 0.051150
v -0.097623 0.101272 0.051150
v -0.124978 0.166337 0.051150
v -0.080435 0.106076 0.039939
v -0.142307 0.161266 0.039562
v -0.083432 0.077915 0.051150
v -0.132114 0.145704 0.039972
v -0.065167 0.080308 0.039570
v -0.114979 0.150718 0.051150
v -0.091173 -0.006199 0.040340
v -0.114979 -0.028763 0.051150
v -0.108974 -0.010049 0.051150
v -0.132106 -0.023856 0.040062
v -0.084411 -0.036757 0.051150
v -0.125070 -0.047167 0.051150
v -0.077790 -0.019883 0.040117
v -0.142277 -0.039286 0.039627
v -0.063122 -0.036745 0.051150
v -0.141611 -0.300529 0.040297
v -0.050410 -0.021774 0.039670
v -0.125202 -0.308829 0.051150
v -0.048167 -0.300593 0.039885
v -0.139842 -0.323572 0.051150
v -0.063122 -0.310325 0.051150
v -0.156672 -0.314296 0.039692
v -0.050160 -0.322590 0.051150
v -0.157036 -0.353619 0.039550
v -0.033311 -0.314301 0.039649
v -0.139842 -0.347753 0.051150
v -0.032965 -0.353619 0.039550
v -0.104434 -0.393601 0.051150
v -0.050160 -0.347753 0.051150
v -0.112614 -0.410278 0.039579
v -0.085568 -0.393601 0.051150
v -0.077387 -0.410278 0.039579
v -0.156276 0.363430 -0.014026
v -0.155412 0.414448 -0.014059
v -0.156276 0.363430 -0.039686
v -0.142044 0.343266 -0.013717
v -0.155412 0.414448 -0.039653
v -0.142044 0.343266 -0.039996
v -0.095001 0.450278 -0.014283
v -0.142307 0.161266 -0.014151
v -0.095001 0.450278 -0.039430
v -0.142307 0.161266 -0.039562
v -0.034587 0.414532 -0.014191
v -0.132114 0.145704 -0.039972
v -0.034587 0.414532 -0.039522
v -0.132114 0.145704 -0.013740
v -0.033703 0.363344 -0.039549
v -0.132106 -0.023856 -0.013650
v -0.033703 0.363344 -0.014163
v -0.132106 -0.023856 -0.040062
v -0.047949 0.343260 -0.013734
v -0.142277 -0.039286 -0.014085
v -0.047949 0.343260 -0.039979
v -0.142277 -0.039286 -0.039627
v -0.049207 0.150263 -0.014030
v -0.141611 -0.300527 -0.013417
v -0.049207 0.150263 -0.039683
v -0.141611 -0.300529 -0.040297
v -0.064520 0.143479 -0.039923
v -0.156672 -0.314296 -0.039692
v -0.064521 0.143479 -0.013790
v -0.156673 -0.314296 -0.014021
v -0.080717 0.124152 -0.040066
v -0.157036 -0.353619 -0.039550
v -0.080717 0.124152 -0.013646
v -0.157036 -0.353619 -0.014162
v -0.080436 0.106076 -0.013774
v -0.112614 -0.410278 -0.014133
v -0.080435 0.106076 -0.039939
v -0.112614 -0.410278 -0.039579
v -0.065167 0.080308 -0.039570
v -0.077387 -0.410278 -0.014133
v -0.065167 0.080308 -0.014143
v -0.077387 -0.410278 -0.039579
v -0.091173 -0.006199 -0.013373
v -0.032965 -0.353619 -0.039550
v -0.091173 -0.006199 -0.040340
v -0.032966 -0.353619 -0.014162
v -0.077790 -0.019883 -0.013596
v -0.033311 -0.314301 -0.014064
v -0.077790 -0.019883 -0.040117
v -0.033311 -0.314301 -0.039649
v -0.050410 -0.021774 -0.039670
v -0.048167 -0.300593 -0.039885
v -0.050410 -0.021774 -0.014042
v -0.048167 -0.300593 -0.013828
v -0.155412 0.414448 0.014059
v -0.156276 0.363430 0.014026
v -0.156276 0.363430 0.039686
v -0.142044 0.343266 0.013717
v -0.155412 0.414448 0.039653
v -0.142044 0.343266 0.039996
v -0.095001 0.450278 0.014283
v -0.142307 0.161266 0.014151
v -0.095001 0.450278 0.039430
v -0.142307 0.161266 0.039562
v -0.034587 0.414532 0.014191
v -0.132114 0.145704 0.039972
v -0.034587 0.414532 0.039522
v -0.132114 0.145704 0.013740
v -0.033703 0.363344 0.039549
v -0.132106 -0.023856 0.013650
v -0.033703 0.363344 0.014163
v -0.132106 -0.023856 0.040062
v -0.047949 0.343260 0.013734
v -0.142277 -0.039286 0.014085
v -0.047949 0.343260 0.039979
v -0.142277 -0.039286 0.039627
v -0.049207 0.150263 0.014030
v -0.141611 -0.300527 0.013417
v -0.049207 0.150263 0.039683
v -0.141611 -0.300529 0.040297
v -0.064520 0.143479 0.039923
v -0.156672 -0.314296 0.039692
v -0.064521 0.143479 0.013790
v -0.156673 -0.314296 0.014021
v -0.080717 0.124152 0.040066
v -0.157036 -0.353619 0.039550
v -0.080717 0.124152 0.013646
v -0.157036 -0.353619 0.014162
v -0.080436 0.106076 0.013774
v -0.112614 -0.410278 0.014133
v -0.080435 0.106076 0.039939
v -0.112614 -0.410278 0.039579
v -0.065167 0.080308 0.039570
v -0.077387 -0.410278 0.014133
v -0.065167 0.080308 0.014143
v -0.077387 -0.410278 0.039579
v -0.091173 -0.006199 0.013373
v -0.032965 -0.353619 0.039550
v -0.091173 -0.006199 0.040340
v -0.032966 -0.353619 0.014162
v -0.077790 -0.019883 0.013596
v -0.033311 -0.314301 0.014064
v -0.077790 -0.019883 0.040117
v -0.033311 -0.314301 0.039649
v -0.050410 -0.021774 0.039670
v -0.048167 -0.300593 0.039885
v -0.050410 -0.021774 0.014042
v -0.048167 -0.300593 0.013828
v -0.095001 0.419429 -0.051150
v -0.095001 0.419429 -0.002563
v -0.123851 0.402772 -0.051150
v -0.123851 0.402772 -0.002563
v -0.066151 0.402772 -0.002563
v -0.123851 0.369459 -0.002563
v -0.066151 0.402772 -0.051150
v -0.123851 0.369459 -0.051150
v -0.066151 0.369459 -0.002563
v -0.095001 0.352802 -0.002563
v -0.066151 0.369459 -0.051150
v -0.095001 0.352802 -0.051150
v -0.095001 -0.309246 -0.051150
v -0.123851 -0.325903 -0.002563
v -0.123851 -0.325903 -0.051150
v -0.123851 -0.359216 -0.002563
v -0.095001 -0.309246 -0.002563
v -0.066151 -0.325903 -0.051150
v -0.066151 -0.325903 -0.002563
v -0.123851 -0.359216 -0.051150
v -0.095001 -0.375873 -0.002563
v -0.095001 -0.375873 -0.051150
v -0.066151 -0.359216 -0.002563
v -0.066151 -0.359216 -0.051150
v -0.066151 -0.325903 -0.002563
v -0.066151 -0.325903 -0.051150
v -0.095001 0.419429 0.002563
v -0.123851 0.402772 0.051150
v -0.123851 0.402772 0.002563
v -0.123851 0.369459 0.002563
v -0.095001 0.419429 0.051150
v -0.123851 0.369459 0.051150
v -0.066151 0.402772 0.002563
v -0.095001 0.352802 0.002563
v -0.066151 0.402772 0.051150
v -0.095001 0.352802 0.051150
v -0.066151 0.369459 0.002563
v -0.066151 0.369459 0.051150
v -0.077001 -0.229104 -0.002563
v -0.077001 -0.112464 -0.051150
v -0.077001 -0.229104 -0.051150
v -0.095001 -0.246600 -0.051150
v -0.077001 -0.112464 -0.002563
v -0.095001 -0.246600 -0.002563
v -0.095001 -0.094968 -0.051150
v -0.113001 -0.229104 -0.051150
v -0.095001 -0.094968 -0.002563
v -0.113001 -0.229104 -0.002563
v -0.113001 -0.112464 -0.051150
v -0.113001 -0.112464 -0.002563
v -0.077001 -0.229104 0.002563
v -0.077001 -0.112464 0.051150
v -0.077001 -0.112464 0.002563
v -0.095001 -0.094968 0.051150
v -0.077001 -0.229104 0.051150
v -0.095001 -0.094968 0.002563
v -0.095001 -0.246600 0.051150
v -0.113001 -0.112464 0.051150
v -0.095001 -0.246600 0.002563
v -0.113001 -0.112464 0.002563
v -0.113001 -0.229104 0.051150
v -0.113001 -0.229104 0.002563
v -0.095001 -0.309246 0.002563
v -0.095001 -0.309246 0.051150
v -0.123851 -0.325903 0.002563
v -0.066151 -0.325903 0.051150
v -0.066151 -0.325903 0.002563
v -0.123851 -0.325903 0.051150
v -0.123851 -0.359216 0.002563
v -0.123851 -0.359216 0.051150
v -0.095001 -0.375873 0.002563
v -0.095001 -0.375873 0.051150
v -0.066151 -0.359216 0.002563
v -0.066151 -0.359216 0.051150
v -0.066151 -0.325903 0.002563
v -0.066151 -0.325903 0.051150
v -0.077001 0.218392 -0.051150
v -0.077001 0.218392 -0.002563
v -0.077001 0.300040 -0.051150
v -0.095001 0.206145 -0.051150
v -0.077001 0.300040 -0.002563
v -0.095001 0.206145 -0.002563
v -0.095001 0.312287 -0.051150
v -0.113001 0.218392 -0.051150
v -0.095001 0.312287 -0.002563
v -0.113001 0.218392 -0.002563
v -0.113001 0.300040 -0.051150
v -0.113001 0.300040 -0.002563
v -0.077001 0.218392 0.002563
v -0.077001 0.300040 0.051150
v -0.077001 0.300040 0.002563
v -0.095001 0.312287 0.051150
v -0.077001 0.218392 0.051150
v -0.095001 0.312287 0.002563
v -0.095001 0.206145 0.051150
v -0.113001 0.300040 0.051150
v -0.095001 0.206145 0.002563
v -0.113001 0.300040 0.002563
v -0.113001 0.218392 0.051150
v -0.113001 0.218392 0.002563
v -0.095001 0.432159 -0.002563
v -0.123851 0.402772 -0.002563
v -0.095001 0.419429 -0.002563
v -0.066151 0.402772 -0.002563
v -0.137850 0.406862 -0.002563
v -0.050984 0.406035 -0.002563
v -0.137895 0.367142 -0.002563
v -0.050984 0.368752 -0.002563
v -0.123851 0.369459 -0.002563
v -0.066151 0.369459 -0.002563
v -0.124978 0.348628 -0.002563
v -0.065022 0.348628 -0.002563
v -0.095001 0.352802 -0.002563
v -0.095001 0.312287 -0.002563
v -0.113001 0.300040 -0.002563
v -0.077001 0.300040 -0.002563
v -0.113001 0.218392 -0.002563
v -0.077001 0.218392 -0.002563
v -0.124978 0.166337 -0.002563
v -0.065022 0.161440 -0.002563
v -0.095001 0.206145 -0.002563
v -0.074812 0.158083 -0.002563
v -0.114979 0.150718 -0.002563
v -0.097623 0.130180 -0.002563
v -0.097623 0.101272 -0.002563
v -0.108974 -0.010049 -0.002563
v -0.083432 0.077915 -0.002563
v -0.114979 -0.028763 -0.002563
v -0.084411 -0.036757 -0.002563
v -0.125070 -0.047167 -0.002563
v -0.095001 -0.094968 -0.002563
v -0.063122 -0.036745 -0.002563
v -0.113001 -0.112464 -0.002563
v -0.077001 -0.112464 -0.002563
v -0.113001 -0.229104 -0.002563
v -0.077001 -0.229104 -0.002563
v -0.125202 -0.308829 -0.002563
v -0.063122 -0.310325 -0.002563
v -0.095001 -0.246600 -0.002563
v -0.095001 -0.309246 -0.002563
v -0.123851 -0.325903 -0.002563
v -0.066151 -0.325903 -0.002563
v -0.139842 -0.323538 -0.002563
v -0.050160 -0.322590 -0.002563
v -0.139842 -0.347753 -0.002563
v -0.050160 -0.347753 -0.002563
v -0.123851 -0.359216 -0.002563
v -0.066151 -0.359216 -0.002563
v -0.104434 -0.393601 -0.002563
v -0.085568 -0.393601 -0.002563
v -0.095001 -0.375873 -0.002563
v -0.123851 0.402772 0.002563
v -0.095001 0.432159 0.002563
v -0.095001 0.419429 0.002563
v -0.066151 0.402772 0.002563
v -0.137850 0.406862 0.002563
v -0.050984 0.406035 0.002563
v -0.137895 0.367142 0.002563
v -0.050984 0.368752 0.002563
v -0.123851 0.369459 0.002563
v -0.066151 0.369459 0.002563
v -0.124978 0.348628 0.002563
v -0.065022 0.348628 0.002563
v -0.095001 0.352802 0.002563
v -0.095001 0.312287 0.002563
v -0.113001 0.300040 0.002563
v -0.077001 0.300040 0.002563
v -0.113001 0.218392 0.002563
v -0.077001 0.218392 0.002563
v -0.124978 0.166337 0.002563
v -0.065022 0.161440 0.002563
v -0.095001 0.206145 0.002563
v -0.074812 0.158083 0.002563
v -0.114979 0.150718 0.002563
v -0.097623 0.130180 0.002563
v -0.097623 0.101272 0.002563
v -0.108974 -0.010049 0.002563
v -0.083432 0.077915 0.002563
v -0.114979 -0.028763 0.002563
v -0.084411 -0.036757 0.002563
v -0.125070 -0.047167 0.002563
v -0.095001 -0.094968 0.002563
v -0.063122 -0.036745 0.002563
v -0.113001 -0.112464 0.002563
v -0.077001 -0.112464 0.002563
v -0.113001 -0.229104 0.002563
v -0.077001 -0.229104 0.002563
v -0.125202 -0.308829 0.002563
v -0.063122 -0.310325 0.002563
v -0.095001 -0.246600 0.002563
v -0.095001 -0.309246 0.002563
v -0.123851 -0.325903 0.002563
v -0.066151 -0.325903 0.002563
v -0.139842 -0.323538 0.002563
v -0.050160 -0.322590 0.002563
v -0.139842 -0.347753 0.002563
v -0.050160 -0.347753 0.002563
v -0.123851 -0.359216 0.002563
v -0.066151 -0.359216 0.002563
v -0.104434 -0.393601 0.002563
v -0.085568 -0.393601 0.002563
v -0.095001 -0.375873 0.002563
v -0.156276 0.363430 -0.014026
v -0.137850 0.406862 -0.002563
v -0.155412 0.414448 -0.014059
v -0.095001 0.450278 -0.014283
v -0.137895 0.367142 -0.002563
v -0.095001 0.432159 -0.002563
v -0.142044 0.343266 -0.013717
v -0.050984 0.406035 -0.002563
v -0.124978 0.348628 -0.002563
v -0.034587 0.414532 -0.014191
v -0.124978 0.166337 -0.002563
v -0.033703 0.363344 -0.014163
v -0.142307 0.161266 -0.014151
v -0.050984 0.368752 -0.002563
v -0.132114 0.145704 -0.013740
v -0.047949 0.343260 -0.013734
v -0.114979 0.150718 -0.002563
v -0.065022 0.348628 -0.002563
v -0.114979 -0.028763 -0.002563
v -0.065022 0.161440 -0.002563
v -0.132106 -0.023856 -0.013650
v -0.049207 0.150263 -0.014030
v -0.125070 -0.047167 -0.002563
v -0.064521 0.143479 -0.013790
v -0.142277 -0.039286 -0.014085
v -0.074812 0.158083 -0.002563
v -0.141611 -0.300527 -0.013417
v -0.080717 0.124152 -0.013646
v -0.125202 -0.308829 -0.002563
v -0.097623 0.130180 -0.002563
v -0.139842 -0.323538 -0.002563
v -0.097623 0.101272 -0.002563
v -0.156673 -0.314296 -0.014021
v -0.080436 0.106076 -0.013774
v -0.157036 -0.353619 -0.014162
v -0.083432 0.077915 -0.002563
v -0.139842 -0.347753 -0.002563
v -0.065167 0.080308 -0.014143
v -0.104434 -0.393601 -0.002563
v -0.091173 -0.006199 -0.013373
v -0.112614 -0.410278 -0.014133
v -0.108974 -0.010049 -0.002563
v -0.085568 -0.393601 -0.002563
v -0.084411 -0.036757 -0.002563
v -0.077387 -0.410278 -0.014133
v -0.077790 -0.019883 -0.013596
v -0.032966 -0.353619 -0.014162
v -0.063122 -0.036745 -0.002563
v -0.050160 -0.347753 -0.002563
v -0.050410 -0.021774 -0.014042
v -0.050160 -0.322590 -0.002563
v -0.048167 -0.300593 -0.013828
v -0.033311 -0.314301 -0.014064
v -0.063122 -0.310325 -0.002563
v -0.137850 0.406862 0.002563
v -0.156276 0.363430 0.014026
v -0.155412 0.414448 0.014059
v -0.095001 0.450278 0.014283
v -0.137895 0.367142 0.002563
v -0.095001 0.432159 0.002563
v -0.142044 0.343266 0.013717
v -0.050984 0.406035 0.002563
v -0.124978 0.348628 0.002563
v -0.034587 0.414532 0.014191
v -0.124978 0.166337 0.002563
v -0.033703 0.363344 0.014163
v -0.142307 0.161266 0.014151
v -0.050984 0.368752 0.002563
v -0.132114 0.145704 0.013740
v -0.047949 0.343260 0.013734
v -0.114979 0.150718 0.002563
v -0.065022 0.348628 0.002563
v -0.114979 -0.028763 0.002563
v -0.065022 0.161440 0.002563
v -0.132106 -0.023856 0.013650
v -0.049207 0.150263 0.014030
v -0.125070 -0.047167 0.002563
v -0.064521 0.143479 0.013790
v -0.142277 -0.039286 0.014085
v -0.074812 0.158083 0.002563
v -0.141611 -0.300527 0.013417
v -0.080717 0.124152 0.013646
v -0.125202 -0.308829 0.002563
v -0.097623 0.130180 0.002563
v -0.139842 -0.323538 0.002563
v -0.097623 0.101272 0.002563
v -0.156673 -0.314296 0.014021
v -0.080436 0.106076 0.013774
v -0.157036 -0.353619 0.014162
v -0.083432 0.077915 0.002563
v -0.139842 -0.347753 0.002563
v -0.065167 0.080308 0.014143
v -0.104434 -0.393601 0.002563
v -0.091173 -0.006199 0.013373
v -0.112614 -0.410278 0.014133
v -0.108974 -0.010049 0.002563
v -0.085568 -0.393601 0.002563
v -0.084411 -0.036757 0.002563
v -0.077387 -0.410278 0.014133
v -0.077790 -0.019883 0.013596
v -0.032966 -0.353619 0.014162
v -0.063122 -0.036745 0.002563
v -0.050160 -0.347753 0.002563
v -0.050410 -0.021774 0.014042
v -0.050160 -0.322590 0.002563
v -0.048167 -0.300593 0.013828
v -0.033311 -0.314301 0.014064
v -0.063122 -0.310325 0.002563
vn 0.0005 0.0005 -1.0000
vn 0.0002 0.0002 -1.0000
vn 0.0005 0.0005 1.0000
vn 0.0002 0.0002 1.0000
vn 0.4530 0.2761 -0.8477
vn 0.5186 -0.1549 -0.8409
vn 0.5184 -0.1549 -0.8410
vn 0.4595 0.2632 -0.8483
vn 0.5173 -0.1597 -0.8408
vn 0.0005 0.5409 -0.8411
vn 0.5174 -0.1588 -0.8409
vn 0.0005 0.5410 -0.8410
vn 0.4109 -0.2721 -0.8701
vn -0.4334 0.2839 -0.8554
vn 0.4069 -0.2780 -0.8701
vn -0.4488 0.2496 -0.8581
vn 0.3229 -0.4332 -0.8415
vn -0.5056 -0.1441 -0.8507
vn 0.3228 -0.4332 -0.8415
vn -0.5006 -0.1626 -0.8503
vn 0.4940 -0.1759 -0.8515
vn -0.5088 -0.1589 -0.8461
vn 0.4939 -0.1764 -0.8514
vn -0.5096 -0.1578 -0.8458
vn 0.5182 0.1421 -0.8434
vn -0.5153 -0.1480 -0.8442
vn 0.5180 0.1431 -0.8433
vn -0.5153 -0.1460 -0.8445
vn 0.5222 0.0640 -0.8504
vn -0.5115 -0.1480 -0.8464
vn 0.5222 0.0650 -0.8504
vn -0.5115 -0.1470 -0.8466
vn 0.4955 0.1216 -0.8600
vn -0.5065 0.1363 -0.8514
vn 0.4971 0.1148 -0.8601
vn -0.5066 0.1344 -0.8516
vn 0.2212 0.4879 -0.8444
vn -0.5163 0.1226 -0.8476
vn 0.2311 0.4831 -0.8445
vn -0.5075 0.1451 -0.8494
vn 0.3736 0.3033 -0.8766
vn -0.4764 0.1861 -0.8593
vn 0.3345 0.3384 -0.8795
vn -0.4693 0.1998 -0.8601
vn 0.5282 0.1911 -0.8273
vn -0.4821 0.1812 -0.8572
vn 0.5045 0.2281 -0.8327
vn -0.4732 0.1998 -0.8580
vn 0.4824 0.1990 -0.8530
vn -0.5116 -0.1764 -0.8409
vn 0.4782 0.2085 -0.8532
vn -0.5117 -0.1755 -0.8411
vn 0.5123 -0.1753 -0.8407
vn -0.2301 -0.4733 -0.8503
vn 0.5124 -0.1753 -0.8407
vn -0.2310 -0.4732 -0.8501
vn 0.2301 -0.4733 -0.8503
vn 0.2310 -0.4732 -0.8501
vn 0.5187 -0.1549 0.8408
vn 0.4530 0.2761 0.8477
vn 0.5184 -0.1549 0.8410
vn 0.4595 0.2632 0.8483
vn 0.5174 -0.1597 0.8407
vn 0.0005 0.5410 0.8410
vn 0.5174 -0.1588 0.8409
vn 0.4109 -0.2721 0.8701
vn -0.4334 0.2839 0.8554
vn 0.4069 -0.2780 0.8701
vn -0.4488 0.2496 0.8581
vn 0.3229 -0.4332 0.8415
vn -0.5055 -0.1442 0.8507
vn 0.3228 -0.4332 0.8415
vn -0.5006 -0.1626 0.8503
vn 0.4939 -0.1762 0.8515
vn -0.5088 -0.1588 0.8461
vn 0.4939 -0.1764 0.8515
vn -0.5096 -0.1578 0.8458
vn 0.5182 0.1421 0.8434
vn -0.5153 -0.1480 0.8442
vn 0.5180 0.1431 0.8433
vn -0.5153 -0.1460 0.8445
vn 0.5222 0.0640 0.8504
vn -0.5114 -0.1480 0.8465
vn 0.5222 0.0650 0.8504
vn -0.5115 -0.1470 0.8466
vn 0.4955 0.1216 0.8600
vn -0.5065 0.1363 0.8514
vn 0.4971 0.1148 0.8601
vn -0.5066 0.1344 0.8516
vn 0.2212 0.4879 0.8444
vn -0.5163 0.1226 0.8476
vn 0.2311 0.4831 0.8445
vn -0.5075 0.1451 0.8494
vn 0.3736 0.3033 0.8766
vn -0.4763 0.1861 0.8594
vn 0.3345 0.3384 0.8795
vn -0.4693 0.1998 0.8601
vn 0.5282 0.1911 0.8273
vn -0.4823 0.1812 0.8571
vn 0.5045 0.2281 0.8327
vn -0.4732 0.2000 0.8579
vn 0.4824 0.1990 0.8530
vn -0.5116 -0.1764 0.8409
vn 0.4781 0.2085 0.8532
vn -0.5117 -0.1754 0.8411
vn 0.5123 -0.1753 0.8407
vn -0.2301 -0.4733 0.8503
vn 0.5124 -0.1753 0.8407
vn -0.2310 -0.4732 0.8501
vn 0.2301 -0.4733 0.8503
vn 0.2310 -0.4732 0.8501
vn -0.9553 -0.2956 0.0003
vn -0.8651 0.5017 0.0004
vn -0.9553 -0.2957 0.0003
vn -0.9538 -0.3004 0.0004
vn -0.8651 0.5017 0.0005
vn -0.9538 -0.3005 0.0004
vn -0.0005 1.0000 0.0005
vn -0.9580 -0.2868 0.0004
vn -0.9579 -0.2870 -0.0000
vn 0.8645 0.5026 -0.0000
vn -0.9589 -0.2838 0.0006
vn -0.9589 -0.2838 0.0005
vn 0.9548 -0.2974 0.0004
vn -0.9586 0.2848 0.0004
vn 0.9548 -0.2972 -0.0000
vn -0.9585 0.2849 0.0002
vn 0.9522 -0.3054 0.0005
vn -0.9577 0.2877 0.0004
vn 0.9522 -0.3054 0.0006
vn -0.9577 0.2876 0.0006
vn 0.8348 -0.5505 0.0004
vn -0.9172 0.3983 0.0004
vn 0.8350 -0.5503 -0.0000
vn -0.9172 0.3984 0.0004
vn 0.6025 -0.7981 -0.0000
vn -0.9113 0.4117 -0.0000
vn 0.9424 -0.3346 -0.0000
vn -0.9468 -0.3218 0.0006
vn -0.9468 -0.3218 0.0005
vn 0.9628 0.2701 0.0005
vn -0.4375 -0.8992 -0.0000
vn 0.9628 0.2701 0.0006
vn -0.4374 -0.8993 0.0003
vn 0.9926 0.1217 -0.0000
vn 0.4372 -0.8994 0.0006
vn 0.9926 0.1217 0.0003
vn 0.4373 -0.8993 0.0004
vn 0.9713 0.2380 0.0003
vn 0.9467 -0.3220 -0.0000
vn 0.9712 0.2382 -0.0000
vn 0.9467 -0.3221 0.0006
vn 0.4226 0.9063 0.0007
vn 0.9134 0.4071 0.0006
vn 0.4227 0.9063 0.0005
vn 0.9134 0.4071 0.0007
vn 0.7252 0.6886 -0.0000
vn 0.9151 0.4032 0.0004
vn 0.7254 0.6883 0.0004
vn 0.9151 0.4033 0.0003
vn -0.9553 -0.2956 0.0005
vn -0.9553 -0.2957 -0.0000
vn -0.9538 -0.3005 0.0003
vn -0.9589 -0.2838 0.0003
vn 0.9548 -0.2973 0.0003
vn -0.9586 0.2846 0.0006
vn 0.9522 -0.3054 0.0004
vn 0.8348 -0.5506 0.0007
vn -0.9172 0.3984 0.0003
vn -0.9112 0.4119 0.0005
vn 0.9628 0.2702 -0.0000
vn 0.9628 0.2701 0.0003
vn 0.9467 -0.3220 0.0003
vn 0.9467 -0.3221 0.0004
vn 0.4227 0.9063 0.0006
vn 0.9134 0.4070 0.0003
vn 0.9152 0.4031 0.0005
vn 0.7252 0.6885 -0.0000
vn 0.0005 -1.0000 0.0005
vn 0.8661 -0.4998 0.0004
vn 0.8662 -0.4998 0.0004
vn -0.8661 -0.4999 0.0003
vn 0.8661 0.4999 0.0003
vn 0.8660 0.5000 -0.0000
vn -0.8661 0.4999 0.0003
vn 0.0005 1.0000 0.0005
vn -0.8662 0.4998 0.0004
vn 0.8660 -0.5000 -0.0000
vn 0.8661 -0.4999 0.0003
vn -0.4998 -0.8661 0.0004
vn -0.4999 -0.8661 0.0003
vn -0.8660 0.5000 -0.0000
vn -1.0000 0.0005 0.0005
vn -0.9211 0.3894 0.0003
vn -0.9211 -0.3894 0.0003
vn -0.9210 0.3894 0.0004
vn -0.9211 -0.3892 -0.0000
vn 0.9211 0.3892 -0.0000
vn 0.9211 -0.3894 0.0003
vn 0.9211 -0.3894 0.0004
vn 0.9210 0.3895 0.0004
vn -0.8839 0.4676 0.0005
vn -0.8839 -0.4676 0.0003
vn -0.8839 -0.4676 0.0005
vn 0.8839 0.4676 0.0003
vn 0.8839 0.4677 -0.0000
vn 0.8839 -0.4676 0.0005
vn 0.8839 -0.4676 0.0003
vn -0.5056 -0.1442 0.8506
vn -0.4333 0.2838 0.8554
vn 0.4529 0.2761 0.8477
vn 0.5186 -0.1549 0.8408
vn -0.5115 -0.1480 0.8465
vn 0.5173 -0.1597 0.8408
vn -0.5066 0.1363 0.8514
vn 0.4070 -0.2780 0.8701
vn -0.5165 0.1226 0.8475
vn -0.4764 0.1861 0.8593
vn 0.4940 -0.1759 0.8515
vn -0.4694 0.1998 0.8601
vn 0.4938 -0.1764 0.8515
vn -0.4821 0.1812 0.8572
vn 0.5181 0.1421 0.8434
vn -0.4733 0.1999 0.8580
vn -0.5116 -0.1763 0.8409
vn 0.4956 0.1216 0.8600
vn 0.4970 0.1148 0.8601
vn 0.2300 -0.4733 0.8503
vn 0.5123 -0.1754 0.8407
vn 0.4780 0.2085 0.8533
vn -0.4333 0.2838 -0.8554
vn -0.5056 -0.1442 -0.8506
vn 0.0005 0.5411 -0.8410
vn -0.5088 -0.1588 -0.8461
vn 0.4529 0.2761 -0.8477
vn 0.5186 -0.1549 -0.8408
vn -0.5115 -0.1480 -0.8465
vn 0.4070 -0.2780 -0.8701
vn -0.5165 0.1226 -0.8475
vn 0.4938 -0.1763 -0.8515
vn -0.4822 0.1813 -0.8571
vn 0.5181 0.1421 -0.8434
vn 0.5181 0.1431 -0.8433
vn -0.5116 -0.1763 -0.8409
vn -0.5117 -0.1754 -0.8411
vn 0.2300 -0.4733 -0.8503
vn 0.5124 -0.1754 -0.8406
vn 0.5124 -0.1754 -0.8407
vn 0.4780 0.2085 -0.8533
vt 0.000000 0.000000
s 1
f 1/1/1 2/1/1 3/1/1
f 3/1/1 4/1/1 1/1/1
f 2/1/1 1/1/1 5/1/1
f 1/1/1 4/1/1 6/1/1
f 4/1/1 7/1/1 6/1/1
f 7/1/1 4/1/1 8/1/1
f 9/1/1 7/1/1 8/1/1
f 7/1/1 9/1/1 10/1/1
f 11/1/2 2/1/1 5/1/1
f 10/1/1 9/1/1 12/1/2
f 13/1/1 11/1/2 5/1/1
f 10/1/1 12/1/2 13/1/1
f 14/1/1 11/1/2 13/1/1
f 14/1/1 13/1/1 12/1/2
f 11/1/2 14/1/1 15/1/1
f 14/1/1 12/1/2 16/1/1
f 17/1/1 11/1/2 15/1/1
f 12/1/2 18/1/1 16/1/1
f 11/1/2 17/1/1 19/1/1
f 18/1/1 12/1/2 20/1/1
f 20/1/1 21/1/1 18/1/1
f 21/1/1 19/1/1 17/1/1
f 22/1/1 21/1/1 20/1/1
f 22/1/1 19/1/1 21/1/1
f 19/1/1 22/1/1 23/1/2
f 23/1/2 22/1/1 24/1/1
f 25/1/1 23/1/2 24/1/1
f 26/1/1 23/1/2 25/1/1
f 25/1/1 27/1/1 26/1/1
f 23/1/2 26/1/1 28/1/1
f 26/1/1 29/1/1 28/1/1
f 29/1/1 30/1/2 28/1/1
f 30/1/2 29/1/1 31/1/1
f 32/1/1 31/1/1 29/1/1
f 30/1/2 31/1/1 33/1/1
f 31/1/1 32/1/1 34/1/1
f 35/1/1 30/1/2 33/1/1
f 32/1/1 36/1/1 34/1/1
f 30/1/2 35/1/1 37/1/1
f 32/1/1 38/1/2 36/1/1
f 38/1/2 39/1/1 36/1/1
f 40/1/2 35/1/1 39/1/1
f 40/1/2 39/1/1 38/1/2
f 35/1/1 40/1/2 37/1/1
f 41/1/1 40/1/2 38/1/2
f 37/1/1 40/1/2 42/1/1
f 41/1/1 38/1/2 43/1/1
f 42/1/1 44/1/1 37/1/1
f 45/1/1 41/1/1 43/1/1
f 42/1/1 46/1/1 44/1/1
f 47/1/1 41/1/1 45/1/1
f 46/1/1 42/1/1 48/1/1
f 45/1/1 49/1/1 47/1/1
f 50/1/1 46/1/1 48/1/1
f 49/1/1 51/1/1 47/1/1
f 51/1/1 50/1/1 48/1/1
f 50/1/1 51/1/1 49/1/1
f 52/1/3 53/1/3 54/1/3
f 55/1/3 54/1/3 53/1/3
f 53/1/3 52/1/3 56/1/3
f 55/1/3 53/1/3 57/1/3
f 58/1/3 55/1/3 57/1/3
f 55/1/3 58/1/3 59/1/3
f 58/1/3 60/1/3 59/1/3
f 60/1/3 58/1/3 61/1/3
f 62/1/4 56/1/3 52/1/3
f 60/1/3 61/1/3 63/1/4
f 56/1/3 62/1/4 64/1/3
f 64/1/3 63/1/4 61/1/3
f 62/1/4 65/1/3 64/1/3
f 65/1/3 63/1/4 64/1/3
f 65/1/3 62/1/4 66/1/3
f 63/1/4 65/1/3 67/1/3
f 62/1/4 68/1/3 66/1/3
f 69/1/3 63/1/4 67/1/3
f 62/1/4 70/1/3 68/1/3
f 63/1/4 69/1/3 71/1/3
f 72/1/3 71/1/3 69/1/3
f 70/1/3 72/1/3 68/1/3
f 71/1/3 72/1/3 73/1/3
f 70/1/3 73/1/3 72/1/3
f 73/1/3 70/1/3 74/1/4
f 73/1/3 74/1/4 75/1/3
f 76/1/3 75/1/3 74/1/4
f 74/1/4 77/1/3 76/1/3
f 77/1/3 78/1/3 76/1/3
f 77/1/3 74/1/4 79/1/3
f 79/1/3 80/1/3 77/1/3
f 79/1/3 81/1/4 80/1/3
f 82/1/3 80/1/3 81/1/4
f 80/1/3 82/1/3 83/1/3
f 82/1/3 81/1/4 84/1/3
f 82/1/3 85/1/3 83/1/3
f 81/1/4 86/1/3 84/1/3
f 87/1/3 83/1/3 85/1/3
f 86/1/3 81/1/4 88/1/3
f 89/1/4 83/1/3 87/1/3
f 90/1/3 89/1/4 87/1/3
f 86/1/3 91/1/4 90/1/3
f 89/1/4 90/1/3 91/1/4
f 91/1/4 86/1/3 88/1/3
f 91/1/4 92/1/3 89/1/4
f 89/1/4 92/1/3 93/1/3
f 91/1/4 88/1/3 94/1/3
f 92/1/3 95/1/3 93/1/3
f 88/1/3 96/1/3 94/1/3
f 92/1/3 97/1/3 95/1/3
f 98/1/3 94/1/3 96/1/3
f 99/1/3 95/1/3 97/1/3
f 94/1/3 98/1/3 100/1/3
f 101/1/3 99/1/3 97/1/3
f 98/1/3 102/1/3 100/1/3
f 99/1/3 101/1/3 102/1/3
f 101/1/3 100/1/3 102/1/3
f 103/1/5 104/1/6 105/1/7
f 104/1/6 103/1/5 106/1/8
f 107/1/9 105/1/7 104/1/6
f 108/1/10 106/1/8 103/1/5
f 105/1/7 107/1/9 109/1/11
f 108/1/10 103/1/5 110/1/12
f 111/1/13 109/1/11 107/1/9
f 112/1/14 108/1/10 110/1/12
f 107/1/9 113/1/15 111/1/13
f 108/1/10 112/1/14 114/1/16
f 115/1/17 111/1/13 113/1/15
f 112/1/14 116/1/18 114/1/16
f 111/1/13 115/1/17 117/1/19
f 116/1/18 112/1/14 118/1/20
f 119/1/21 117/1/19 115/1/17
f 116/1/18 118/1/20 120/1/22
f 117/1/19 119/1/21 121/1/23
f 120/1/22 118/1/20 122/1/24
f 119/1/21 123/1/25 121/1/23
f 124/1/26 120/1/22 122/1/24
f 123/1/25 119/1/21 125/1/27
f 120/1/22 124/1/26 126/1/28
f 123/1/25 125/1/27 127/1/29
f 128/1/30 126/1/28 124/1/26
f 127/1/29 125/1/27 129/1/31
f 124/1/26 130/1/32 128/1/30
f 131/1/33 127/1/29 129/1/31
f 132/1/34 128/1/30 130/1/32
f 127/1/29 131/1/33 133/1/35
f 128/1/30 132/1/34 134/1/36
f 135/1/37 133/1/35 131/1/33
f 136/1/38 134/1/36 132/1/34
f 135/1/37 131/1/33 137/1/39
f 134/1/36 136/1/38 138/1/40
f 139/1/41 135/1/37 137/1/39
f 136/1/38 140/1/42 138/1/40
f 137/1/39 141/1/43 139/1/41
f 136/1/38 142/1/44 140/1/42
f 143/1/45 139/1/41 141/1/43
f 144/1/46 140/1/42 142/1/44
f 139/1/41 143/1/45 145/1/47
f 140/1/42 144/1/46 146/1/48
f 147/1/49 145/1/47 143/1/45
f 148/1/50 146/1/48 144/1/46
f 147/1/49 143/1/45 149/1/51
f 144/1/46 150/1/52 148/1/50
f 151/1/53 147/1/49 149/1/51
f 152/1/54 148/1/50 150/1/52
f 147/1/49 151/1/53 153/1/55
f 148/1/50 152/1/54 154/1/56
f 151/1/53 155/1/57 153/1/55
f 155/1/57 154/1/56 152/1/54
f 155/1/57 151/1/53 156/1/58
f 154/1/56 155/1/57 156/1/58
f 157/1/59 158/1/60 159/1/61
f 158/1/60 157/1/59 160/1/62
f 159/1/61 161/1/63 157/1/59
f 162/1/64 158/1/60 160/1/62
f 161/1/63 159/1/61 163/1/65
f 164/1/64 158/1/60 162/1/64
f 165/1/66 161/1/63 163/1/65
f 162/1/64 166/1/67 164/1/64
f 167/1/68 161/1/63 165/1/66
f 166/1/67 162/1/64 168/1/69
f 165/1/66 169/1/70 167/1/68
f 168/1/69 170/1/71 166/1/67
f 169/1/70 165/1/66 171/1/72
f 166/1/67 170/1/71 172/1/73
f 171/1/72 173/1/74 169/1/70
f 174/1/75 172/1/73 170/1/71
f 173/1/74 171/1/72 175/1/76
f 172/1/73 174/1/75 176/1/77
f 177/1/78 173/1/74 175/1/76
f 174/1/75 178/1/79 176/1/77
f 173/1/74 177/1/78 179/1/80
f 178/1/79 174/1/75 180/1/81
f 181/1/82 179/1/80 177/1/78
f 178/1/79 180/1/81 182/1/83
f 179/1/80 181/1/82 183/1/84
f 184/1/85 178/1/79 182/1/83
f 181/1/82 185/1/86 183/1/84
f 182/1/83 186/1/87 184/1/85
f 185/1/86 181/1/82 187/1/88
f 186/1/87 182/1/83 188/1/89
f 189/1/90 185/1/86 187/1/88
f 188/1/89 190/1/91 186/1/87
f 185/1/86 189/1/90 191/1/92
f 190/1/91 188/1/89 192/1/93
f 189/1/90 193/1/94 191/1/92
f 192/1/93 194/1/95 190/1/91
f 193/1/94 195/1/96 191/1/92
f 196/1/97 190/1/91 194/1/95
f 193/1/94 197/1/98 195/1/96
f 194/1/95 198/1/99 196/1/97
f 197/1/98 193/1/94 199/1/100
f 198/1/99 194/1/95 200/1/101
f 197/1/98 199/1/100 201/1/102
f 202/1/103 198/1/99 200/1/101
f 203/1/104 197/1/98 201/1/102
f 202/1/103 204/1/105 198/1/99
f 201/1/102 205/1/106 203/1/104
f 202/1/103 206/1/107 204/1/105
f 205/1/106 201/1/102 207/1/108
f 206/1/107 202/1/103 208/1/109
f 209/1/110 205/1/106 207/1/108
f 208/1/109 209/1/110 206/1/107
f 205/1/106 209/1/110 210/1/111
f 209/1/110 208/1/109 210/1/111
f 211/1/112 212/1/113 213/1/114
f 213/1/114 214/1/115 211/1/112
f 215/1/116 213/1/114 212/1/113
f 214/1/115 213/1/114 216/1/117
f 217/1/118 215/1/116 212/1/113
f 216/1/117 218/1/119 214/1/115
f 215/1/116 217/1/118 219/1/118
f 216/1/117 220/1/120 218/1/119
f 221/1/121 219/1/118 217/1/118
f 222/1/122 218/1/119 220/1/120
f 219/1/118 221/1/121 223/1/121
f 218/1/119 222/1/122 224/1/123
f 221/1/121 225/1/124 223/1/121
f 222/1/122 226/1/125 224/1/123
f 225/1/124 221/1/121 227/1/126
f 222/1/122 228/1/127 226/1/125
f 229/1/128 225/1/124 227/1/126
f 228/1/127 230/1/129 226/1/125
f 225/1/124 229/1/128 231/1/130
f 228/1/127 232/1/131 230/1/129
f 233/1/132 231/1/130 229/1/128
f 232/1/131 234/1/133 230/1/129
f 231/1/130 233/1/132 235/1/134
f 232/1/131 236/1/135 234/1/133
f 237/1/136 235/1/134 233/1/132
f 238/1/137 234/1/133 236/1/135
f 237/1/136 233/1/132 239/1/136
f 234/1/133 238/1/137 240/1/137
f 239/1/136 241/1/138 237/1/136
f 242/1/139 240/1/137 238/1/137
f 241/1/138 239/1/136 243/1/138
f 240/1/137 242/1/139 244/1/140
f 241/1/138 243/1/138 245/1/141
f 242/1/139 246/1/142 244/1/140
f 247/1/143 241/1/138 245/1/141
f 246/1/142 242/1/139 248/1/144
f 245/1/141 249/1/145 247/1/143
f 248/1/144 250/1/146 246/1/142
f 249/1/145 245/1/141 251/1/147
f 248/1/144 252/1/148 250/1/146
f 251/1/147 253/1/149 249/1/145
f 252/1/148 254/1/150 250/1/146
f 255/1/151 249/1/145 253/1/149
f 256/1/152 250/1/146 254/1/150
f 257/1/153 255/1/151 253/1/149
f 254/1/150 258/1/154 256/1/152
f 255/1/151 257/1/153 259/1/155
f 258/1/154 254/1/150 260/1/156
f 257/1/153 261/1/157 259/1/155
f 260/1/156 262/1/158 258/1/154
f 261/1/157 257/1/153 263/1/159
f 262/1/158 264/1/160 258/1/154
f 264/1/160 261/1/157 263/1/159
f 261/1/157 264/1/160 262/1/158
f 265/1/116 266/1/161 267/1/162
f 268/1/163 267/1/162 266/1/161
f 265/1/116 267/1/162 269/1/116
f 267/1/162 268/1/163 270/1/163
f 269/1/116 271/1/118 265/1/116
f 268/1/163 272/1/120 270/1/163
f 271/1/118 269/1/116 273/1/118
f 274/1/119 270/1/163 272/1/120
f 273/1/118 275/1/121 271/1/118
f 272/1/120 276/1/164 274/1/119
f 275/1/121 273/1/118 277/1/121
f 276/1/164 272/1/120 278/1/164
f 279/1/165 275/1/121 277/1/121
f 278/1/164 280/1/166 276/1/164
f 275/1/121 279/1/165 281/1/165
f 282/1/127 276/1/164 280/1/166
f 279/1/165 283/1/128 281/1/165
f 280/1/166 284/1/131 282/1/127
f 283/1/128 279/1/165 285/1/167
f 284/1/131 286/1/129 282/1/127
f 285/1/167 287/1/132 283/1/128
f 284/1/131 288/1/133 286/1/129
f 287/1/132 285/1/167 289/1/168
f 290/1/169 286/1/129 288/1/133
f 287/1/132 289/1/168 291/1/136
f 288/1/133 292/1/170 290/1/169
f 293/1/136 287/1/132 291/1/136
f 292/1/170 288/1/133 294/1/170
f 295/1/138 293/1/136 291/1/136
f 294/1/170 296/1/139 292/1/170
f 293/1/136 295/1/138 297/1/138
f 296/1/139 294/1/170 298/1/139
f 299/1/171 297/1/138 295/1/138
f 300/1/144 296/1/139 298/1/139
f 299/1/171 295/1/138 301/1/172
f 296/1/139 300/1/144 302/1/144
f 303/1/145 299/1/171 301/1/172
f 300/1/144 304/1/146 302/1/144
f 299/1/171 303/1/145 305/1/147
f 304/1/146 306/1/148 302/1/144
f 307/1/149 305/1/147 303/1/145
f 304/1/146 308/1/173 306/1/148
f 307/1/149 303/1/145 309/1/149
f 304/1/146 310/1/174 308/1/173
f 307/1/149 309/1/149 311/1/175
f 312/1/154 308/1/173 310/1/174
f 311/1/175 309/1/149 313/1/175
f 308/1/173 312/1/154 314/1/176
f 315/1/157 311/1/175 313/1/175
f 312/1/154 316/1/177 314/1/176
f 311/1/175 315/1/157 317/1/178
f 318/1/160 316/1/177 312/1/154
f 318/1/160 315/1/157 316/1/177
f 315/1/157 318/1/160 317/1/178
f 319/1/179 320/1/179 321/1/180
f 321/1/180 320/1/179 322/1/181
f 319/1/179 323/1/182 320/1/179
f 321/1/180 322/1/181 324/1/183
f 325/1/182 323/1/182 319/1/179
f 326/1/184 321/1/180 324/1/183
f 325/1/182 327/1/185 323/1/182
f 328/1/186 326/1/184 324/1/183
f 329/1/187 327/1/185 325/1/182
f 326/1/184 328/1/186 330/1/186
f 330/1/186 327/1/185 329/1/187
f 327/1/185 330/1/186 328/1/186
f 331/1/179 332/1/188 333/1/189
f 333/1/189 332/1/188 334/1/184
f 332/1/188 331/1/179 335/1/179
f 331/1/179 336/1/190 335/1/179
f 336/1/190 337/1/191 335/1/179
f 338/1/183 333/1/189 334/1/184
f 339/1/186 338/1/183 334/1/184
f 338/1/183 339/1/186 340/1/186
f 341/1/185 340/1/186 339/1/186
f 340/1/186 341/1/185 342/1/192
f 343/1/193 342/1/192 341/1/185
f 342/1/192 343/1/193 344/1/193
f 345/1/179 346/1/180 347/1/181
f 348/1/183 347/1/181 346/1/180
f 346/1/180 345/1/179 349/1/179
f 348/1/183 346/1/180 350/1/184
f 351/1/182 349/1/179 345/1/179
f 350/1/184 352/1/186 348/1/183
f 349/1/179 351/1/182 353/1/182
f 352/1/186 350/1/184 354/1/186
f 355/1/185 353/1/182 351/1/182
f 354/1/186 355/1/185 352/1/186
f 353/1/182 355/1/185 356/1/187
f 355/1/185 354/1/186 356/1/187
f 357/1/194 358/1/195 359/1/196
f 360/1/186 357/1/194 359/1/196
f 358/1/195 357/1/194 361/1/197
f 357/1/194 360/1/186 362/1/186
f 358/1/195 361/1/197 363/1/179
f 364/1/198 362/1/186 360/1/186
f 363/1/179 361/1/197 365/1/179
f 362/1/186 364/1/198 366/1/198
f 363/1/179 365/1/179 367/1/199
f 367/1/199 366/1/198 364/1/198
f 367/1/199 365/1/179 368/1/200
f 366/1/198 367/1/199 368/1/200
f 369/1/194 370/1/195 371/1/197
f 372/1/179 371/1/197 370/1/195
f 370/1/195 369/1/194 373/1/196
f 371/1/197 372/1/179 374/1/179
f 369/1/194 375/1/186 373/1/196
f 376/1/199 374/1/179 372/1/179
f 377/1/186 375/1/186 369/1/194
f 374/1/179 376/1/199 378/1/200
f 377/1/186 379/1/198 375/1/186
f 380/1/201 378/1/200 376/1/199
f 380/1/201 379/1/198 377/1/186
f 380/1/201 376/1/199 379/1/198
f 381/1/179 382/1/179 383/1/188
f 381/1/179 384/1/190 382/1/179
f 381/1/179 385/1/191 384/1/190
f 383/1/188 382/1/179 386/1/189
f 387/1/184 383/1/188 386/1/189
f 387/1/184 386/1/189 388/1/183
f 388/1/183 389/1/186 387/1/184
f 389/1/186 388/1/183 390/1/186
f 390/1/186 391/1/192 389/1/186
f 391/1/192 390/1/186 392/1/192
f 391/1/192 392/1/192 393/1/193
f 393/1/193 392/1/192 394/1/193
f 395/1/202 396/1/202 397/1/203
f 398/1/186 396/1/202 395/1/202
f 397/1/203 396/1/202 399/1/204
f 396/1/202 398/1/186 400/1/186
f 397/1/203 399/1/204 401/1/179
f 402/1/205 400/1/186 398/1/186
f 401/1/179 399/1/204 403/1/179
f 400/1/186 402/1/205 404/1/206
f 401/1/179 403/1/179 405/1/207
f 405/1/207 404/1/206 402/1/205
f 405/1/207 403/1/179 406/1/208
f 404/1/206 405/1/207 406/1/208
f 407/1/202 408/1/203 409/1/204
f 410/1/179 409/1/204 408/1/203
f 408/1/203 407/1/202 411/1/202
f 409/1/204 410/1/179 412/1/179
f 407/1/202 413/1/186 411/1/202
f 414/1/207 412/1/179 410/1/179
f 415/1/186 413/1/186 407/1/202
f 412/1/179 414/1/207 416/1/208
f 415/1/186 417/1/205 413/1/186
f 414/1/207 418/1/206 416/1/208
f 418/1/206 417/1/205 415/1/186
f 418/1/206 414/1/207 417/1/205
f 419/1/3 420/1/3 421/1/3
f 422/1/3 419/1/3 421/1/3
f 420/1/3 419/1/3 423/1/3
f 419/1/3 422/1/3 424/1/3
f 425/1/3 420/1/3 423/1/3
f 422/1/3 426/1/3 424/1/3
f 420/1/3 425/1/3 427/1/3
f 428/1/3 426/1/3 422/1/3
f 427/1/3 425/1/3 429/1/4
f 426/1/3 428/1/3 430/1/4
f 429/1/4 431/1/3 427/1/3
f 430/1/4 428/1/3 431/1/3
f 431/1/3 429/1/4 432/1/3
f 431/1/3 432/1/3 430/1/4
f 432/1/3 429/1/4 433/1/3
f 430/1/4 432/1/3 434/1/3
f 429/1/4 435/1/3 433/1/3
f 436/1/3 430/1/4 434/1/3
f 435/1/3 429/1/4 437/1/3
f 430/1/4 436/1/3 438/1/3
f 439/1/3 438/1/3 436/1/3
f 437/1/3 439/1/3 435/1/3
f 438/1/3 439/1/3 440/1/3
f 440/1/3 439/1/3 437/1/3
f 440/1/3 437/1/3 441/1/4
f 440/1/3 441/1/4 442/1/3
f 441/1/4 443/1/3 442/1/3
f 441/1/4 444/1/3 443/1/3
f 444/1/3 445/1/3 443/1/3
f 444/1/3 441/1/4 446/1/3
f 446/1/3 447/1/3 444/1/3
f 448/1/4 447/1/3 446/1/3
f 447/1/3 448/1/4 449/1/3
f 449/1/3 450/1/3 447/1/3
f 449/1/3 448/1/4 451/1/3
f 450/1/3 449/1/3 452/1/3
f 453/1/3 451/1/3 448/1/4
f 454/1/3 450/1/3 452/1/3
f 448/1/4 455/1/4 453/1/3
f 450/1/3 454/1/3 456/1/4
f 455/1/4 457/1/3 453/1/3
f 457/1/3 456/1/4 454/1/3
f 457/1/3 455/1/4 458/1/3
f 456/1/4 457/1/3 458/1/3
f 458/1/3 455/1/4 459/1/3
f 456/1/4 458/1/3 460/1/3
f 455/1/4 461/1/3 459/1/3
f 460/1/3 462/1/3 456/1/4
f 463/1/3 459/1/3 461/1/3
f 460/1/3 464/1/3 462/1/3
f 465/1/3 459/1/3 463/1/3
f 464/1/3 460/1/3 466/1/3
f 463/1/3 467/1/3 465/1/3
f 468/1/3 464/1/3 466/1/3
f 467/1/3 469/1/3 465/1/3
f 469/1/3 468/1/3 466/1/3
f 468/1/3 469/1/3 467/1/3
f 470/1/1 471/1/1 472/1/1
f 471/1/1 473/1/1 472/1/1
f 471/1/1 470/1/1 474/1/1
f 471/1/1 475/1/1 473/1/1
f 470/1/1 476/1/1 474/1/1
f 477/1/1 473/1/1 475/1/1
f 476/1/1 470/1/1 478/1/1
f 473/1/1 477/1/1 479/1/1
f 478/1/1 480/1/2 476/1/1
f 479/1/1 477/1/1 481/1/2
f 480/1/2 478/1/1 482/1/1
f 481/1/2 482/1/1 479/1/1
f 483/1/1 480/1/2 482/1/1
f 481/1/2 483/1/1 482/1/1
f 480/1/2 483/1/1 484/1/1
f 483/1/1 481/1/2 485/1/1
f 486/1/1 480/1/2 484/1/1
f 481/1/2 487/1/1 485/1/1
f 480/1/2 486/1/1 488/1/1
f 487/1/1 481/1/2 489/1/1
f 489/1/1 490/1/1 487/1/1
f 490/1/1 488/1/1 486/1/1
f 490/1/1 489/1/1 491/1/1
f 491/1/1 488/1/1 490/1/1
f 488/1/1 491/1/1 492/1/2
f 492/1/2 491/1/1 493/1/1
f 492/1/2 493/1/1 494/1/1
f 495/1/1 492/1/2 494/1/1
f 496/1/1 495/1/1 494/1/1
f 492/1/2 495/1/1 497/1/1
f 495/1/1 498/1/1 497/1/1
f 498/1/1 499/1/2 497/1/1
f 499/1/2 498/1/1 500/1/1
f 501/1/1 500/1/1 498/1/1
f 499/1/2 500/1/1 502/1/1
f 500/1/1 501/1/1 503/1/1
f 504/1/1 499/1/2 502/1/1
f 501/1/1 505/1/1 503/1/1
f 499/1/2 504/1/1 506/1/2
f 505/1/1 501/1/1 507/1/2
f 508/1/1 506/1/2 504/1/1
f 507/1/2 508/1/1 505/1/1
f 509/1/1 506/1/2 508/1/1
f 508/1/1 507/1/2 509/1/1
f 506/1/2 509/1/1 510/1/1
f 511/1/1 509/1/1 507/1/2
f 506/1/2 510/1/1 512/1/1
f 513/1/1 511/1/1 507/1/2
f 512/1/1 510/1/1 514/1/1
f 515/1/1 511/1/1 513/1/1
f 510/1/1 516/1/1 514/1/1
f 511/1/1 515/1/1 517/1/1
f 518/1/1 514/1/1 516/1/1
f 515/1/1 519/1/1 517/1/1
f 520/1/1 518/1/1 516/1/1
f 518/1/1 520/1/1 519/1/1
f 517/1/1 519/1/1 520/1/1
f 521/1/209 522/1/210 523/1/69
f 524/1/64 523/1/69 522/1/210
f 522/1/210 521/1/209 525/1/73
f 524/1/64 522/1/210 526/1/64
f 527/1/75 525/1/73 521/1/209
f 528/1/211 524/1/64 526/1/64
f 525/1/73 527/1/75 529/1/77
f 524/1/64 528/1/211 530/1/62
f 531/1/79 529/1/77 527/1/75
f 532/1/212 530/1/62 528/1/211
f 531/1/79 527/1/75 533/1/81
f 528/1/211 534/1/61 532/1/212
f 535/1/213 531/1/79 533/1/81
f 536/1/214 532/1/212 534/1/61
f 531/1/79 535/1/213 537/1/85
f 534/1/61 538/1/65 536/1/214
f 535/1/213 539/1/215 537/1/85
f 540/1/66 536/1/214 538/1/65
f 539/1/215 535/1/213 541/1/89
f 536/1/214 540/1/66 542/1/216
f 543/1/217 539/1/215 541/1/89
f 542/1/216 540/1/66 544/1/72
f 541/1/89 545/1/93 543/1/217
f 540/1/66 546/1/72 544/1/72
f 547/1/218 543/1/217 545/1/93
f 546/1/72 548/1/219 544/1/72
f 543/1/217 547/1/218 549/1/220
f 546/1/72 550/1/221 548/1/219
f 547/1/218 551/1/222 549/1/220
f 552/1/223 548/1/219 550/1/221
f 553/1/224 551/1/222 547/1/218
f 548/1/219 552/1/223 554/1/80
f 555/1/225 551/1/222 553/1/224
f 556/1/82 554/1/80 552/1/223
f 551/1/222 555/1/225 557/1/105
f 554/1/80 556/1/82 558/1/84
f 559/1/107 557/1/105 555/1/225
f 556/1/82 560/1/226 558/1/84
f 555/1/225 561/1/109 559/1/107
f 560/1/226 556/1/82 562/1/227
f 561/1/109 563/1/228 559/1/107
f 564/1/90 560/1/226 562/1/227
f 561/1/109 565/1/111 563/1/228
f 560/1/226 564/1/90 566/1/92
f 567/1/108 563/1/228 565/1/111
f 568/1/94 566/1/92 564/1/90
f 563/1/228 567/1/108 569/1/229
f 566/1/92 568/1/94 570/1/96
f 567/1/108 571/1/102 569/1/229
f 572/1/98 570/1/96 568/1/94
f 567/1/108 573/1/230 571/1/102
f 572/1/98 571/1/102 573/1/230
f 571/1/102 572/1/98 574/1/100
f 568/1/94 574/1/100 572/1/98
f 575/1/231 576/1/232 577/1/16
f 577/1/16 578/1/233 575/1/231
f 576/1/232 575/1/231 579/1/20
f 575/1/231 578/1/233 580/1/12
f 579/1/20 581/1/234 576/1/232
f 578/1/233 582/1/235 580/1/12
f 581/1/234 579/1/20 583/1/24
f 582/1/235 578/1/233 584/1/8
f 583/1/24 585/1/26 581/1/234
f 584/1/8 586/1/236 582/1/235
f 581/1/234 585/1/26 587/1/28
f 582/1/235 586/1/236 588/1/7
f 585/1/26 589/1/237 587/1/28
f 586/1/236 590/1/9 588/1/7
f 589/1/237 585/1/26 591/1/32
f 590/1/9 592/1/11 588/1/7
f 591/1/32 593/1/34 589/1/237
f 590/1/9 594/1/13 592/1/11
f 589/1/237 593/1/34 595/1/36
f 594/1/13 590/1/9 596/1/238
f 593/1/34 597/1/239 595/1/36
f 598/1/17 594/1/13 596/1/238
f 597/1/239 599/1/40 595/1/36
f 598/1/17 600/1/19 594/1/13
f 597/1/239 601/1/42 599/1/40
f 602/1/21 600/1/19 598/1/17
f 601/1/42 597/1/239 603/1/44
f 600/1/19 602/1/21 604/1/240
f 605/1/241 601/1/42 603/1/44
f 602/1/21 606/1/242 604/1/240
f 601/1/42 605/1/241 607/1/48
f 606/1/242 602/1/21 608/1/243
f 605/1/241 609/1/244 607/1/48
f 608/1/243 610/1/29 606/1/242
f 609/1/244 605/1/241 611/1/245
f 610/1/29 608/1/243 612/1/31
f 611/1/245 613/1/54 609/1/244
f 612/1/31 614/1/33 610/1/29
f 615/1/56 609/1/244 613/1/54
f 610/1/29 614/1/33 616/1/35
f 617/1/246 615/1/56 613/1/54
f 614/1/33 618/1/37 616/1/35
f 617/1/246 619/1/58 615/1/56
f 618/1/37 614/1/33 620/1/39
f 617/1/246 621/1/247 619/1/58
f 620/1/39 622/1/41 618/1/37
f 621/1/247 617/1/246 623/1/248
f 622/1/41 620/1/39 624/1/43
f 625/1/49 621/1/247 623/1/248
f 624/1/43 626/1/45 622/1/41
f 627/1/249 621/1/247 625/1/49
f 625/1/49 626/1/45 627/1/249
f 626/1/45 625/1/49 628/1/47
f 622/1/41 626/1/45 628/1/47
